<?xml version="1.0" standalone="no"?>
<!DOCTYPE svg PUBLIC "-//W3C//DTD SVG 1.1//EN" "http://www.w3.org/Graphics/SVG/1.1/DTD/svg11.dtd" >
<svg xmlns="http://www.w3.org/2000/svg">
<metadata></metadata>
<defs>
<font id="rubikmedium" horiz-adv-x="1425" >
<font-face units-per-em="2048" ascent="1638" descent="-410" />
<missing-glyph horiz-adv-x="466" />
<glyph unicode="&#xfb01;" horiz-adv-x="1310" d="M45 874v136q0 23 16.5 39t38.5 16h136v92q0 98 28.5 167t81.5 112t128 61.5t167 18.5h473q23 0 39 -16.5t16 -39.5v-135q0 -23 -16 -39t-39 -16h-452q-78 0 -119 -28t-41 -105v-72h612q23 0 39 -16.5t16 -38.5v-955q0 -23 -16 -39t-39 -16h-156q-23 0 -39 16.5t-16 38.5 v764h-401v-764q0 -23 -16.5 -39t-39.5 -16h-155q-23 0 -39 16.5t-16 38.5v764h-136q-23 0 -39 16.5t-16 38.5z" />
<glyph unicode="&#xfb02;" horiz-adv-x="1329" d="M45 874v136q0 23 16.5 39t38.5 16h136v92q0 98 28.5 167t81.5 112t128 61.5t167 18.5h166q23 0 39 -16.5t16 -39.5v-135q0 -23 -16.5 -39t-38.5 -16h-145q-78 0 -119 -28t-41 -105v-72h420v395q0 23 16 39.5t39 16.5h156q23 0 39 -16.5t16 -39.5v-1405q0 -23 -16.5 -39 t-38.5 -16h-156q-23 0 -39 16.5t-16 38.5v764h-420v-764q0 -23 -16.5 -39t-39.5 -16h-155q-23 0 -39 16.5t-16 38.5v764h-136q-23 0 -39 16.5t-16 38.5z" />
<glyph horiz-adv-x="0" />
<glyph horiz-adv-x="0" />
<glyph unicode="&#xd;" horiz-adv-x="593" />
<glyph unicode=" "  horiz-adv-x="466" />
<glyph unicode="&#x09;" horiz-adv-x="466" />
<glyph unicode="&#xa0;" horiz-adv-x="466" />
<glyph unicode="!" horiz-adv-x="552" d="M133 55v181q0 23 16.5 39t38.5 16h177q23 0 39 -16.5t16 -38.5v-181q0 -23 -16.5 -39t-38.5 -16h-177q-23 0 -39 16.5t-16 38.5zM143 469v909q0 23 16.5 39.5t39.5 16.5h155q23 0 39.5 -16.5t16.5 -39.5v-909q0 -23 -16.5 -39t-39.5 -16h-155q-23 0 -39.5 16t-16.5 39z " />
<glyph unicode="&#x22;" horiz-adv-x="860" d="M96 1380q-4 31 9.5 52.5t46.5 21.5h172q33 0 46 -21.5t9 -52.5l-45 -364q-4 -29 -19.5 -43.5t-38.5 -14.5h-77q-23 0 -38.5 14.5t-19.5 43.5zM481 1380q-4 31 9.5 52.5t46.5 21.5h172q33 0 46 -21.5t9 -52.5l-45 -364q-4 -29 -19.5 -43.5t-37.5 -14.5h-78 q-23 0 -38.5 14.5t-19.5 43.5z" />
<glyph unicode="#" horiz-adv-x="1402" d="M90 387v129q0 23 16.5 39t38.5 16h172l43 281h-161q-23 0 -39.5 16.5t-16.5 38.5v129q0 23 16.5 39.5t39.5 16.5h196l33 206q4 16 16.5 29.5t32.5 13.5h164q18 0 31.5 -13t13.5 -32v-6l-31 -198h205l33 206q4 16 16.5 29.5t32.5 13.5h164q18 0 31.5 -13t13.5 -32v-6 l-31 -198h137q23 0 39.5 -16.5t16.5 -39.5v-129q0 -23 -16.5 -39t-39.5 -16h-174l-41 -281h162q23 0 39.5 -16t16.5 -39v-129q0 -23 -16.5 -39t-39.5 -16h-198l-31 -209q-4 -18 -17.5 -30.5t-33.5 -12.5h-162q-18 0 -31.5 13t-13.5 32v4l31 203h-207l-31 -209 q-4 -18 -17.5 -30.5t-33.5 -12.5h-162q-18 0 -31.5 13t-13.5 32v4l31 203h-138q-23 0 -39 16.5t-16 38.5zM578 571h204l43 281h-207z" />
<glyph unicode="$" horiz-adv-x="1320" d="M68 377q-2 25 15 40t40 15h143q35 0 53.5 -12t30.5 -37q14 -27 35 -53.5t55.5 -47t87 -33.5t129.5 -13q61 0 119 9t101 30.5t69.5 53t26.5 79.5q0 45 -29 73.5t-87 49t-144 39t-199 46.5q-102 25 -179 59t-127 83t-74.5 115.5t-24.5 158.5q0 80 30.5 147.5t85 122t130 90 t165.5 52.5v139q0 23 16.5 39t38.5 16h166q23 0 39.5 -16t16.5 -39v-143q100 -18 176 -58.5t127 -91.5t77.5 -107.5t30.5 -105.5q2 -25 -15 -40t-40 -15h-143q-35 0 -52.5 13.5t-31.5 35.5q-31 51 -93.5 89t-185.5 38q-53 0 -101 -11t-84 -32.5t-56.5 -52.5t-20.5 -70 q0 -47 22.5 -76.5t72.5 -51t129 -40t192 -43.5q123 -27 208 -62.5t139 -85.5t77.5 -115.5t23.5 -149.5q0 -80 -30.5 -150t-89 -125t-142.5 -92t-190 -51v-140q0 -23 -16.5 -39t-39.5 -16h-166q-23 0 -39 16.5t-16 38.5v140q-92 14 -173 48t-141.5 83t-97 113.5t-40.5 142.5z " />
<glyph unicode="%" horiz-adv-x="1667" d="M82 1074.5q0 60.5 4 113.5q4 47 23.5 93t57.5 82t93 58.5t131 22.5t131.5 -22.5t93 -58.5t57 -82t23.5 -93q4 -53 4 -113.5t-4 -113.5q-4 -47 -23.5 -93.5t-57 -82t-93 -57t-131.5 -21.5t-131 21.5t-93 57t-57.5 81.5t-23.5 94q-4 53 -4 113.5zM193 41q0 4 2 10t6 12 l1011 1332q14 18 29.5 28.5t44.5 10.5h123q23 0 36 -11.5t13 -29.5q0 -4 -2 -10.5t-6 -12.5l-1012 -1331q-14 -18 -29.5 -28.5t-43.5 -10.5h-123q-23 0 -36 11.5t-13 29.5zM279 1075.5q0 -28.5 1 -55.5t3 -39q4 -41 26.5 -69.5t81.5 -28.5t82 28.5t27 69.5q2 12 2 39v55.5 v55t-2 38.5q-4 41 -26.5 70t-82.5 29q-59 0 -81.5 -29t-26.5 -70q-2 -12 -3 -38.5t-1 -55zM969 355.5q0 60.5 4 113.5q4 47 23.5 93t57.5 82t93 58.5t131 22.5t131 -22.5t93 -58.5t57.5 -82t23.5 -93q4 -53 4 -113.5t-4 -113.5q-4 -47 -23.5 -93.5t-57.5 -82t-93 -57 t-131 -21.5t-131 21.5t-93 57t-57.5 82t-23.5 93.5q-4 53 -4 113.5zM1165 356.5q0 -28.5 1 -55.5t3 -39q4 -41 27 -69.5t82 -28.5t81.5 28.5t26.5 69.5q2 12 2.5 39t0.5 55.5v55t-3 39.5q-4 41 -26.5 69.5t-81.5 28.5t-81.5 -28.5t-27.5 -69.5q-2 -12 -3 -39t-1 -55.5z" />
<glyph unicode="&#x26;" horiz-adv-x="1478" d="M111 365q0 72 20.5 129t56 104t81.5 86t98 74q-80 88 -117 164.5t-37 158.5t29.5 150.5t83 118t127 77t163.5 27.5q88 0 163 -28.5t127 -79t82 -118t30 -145.5q0 -123 -64.5 -205.5t-177.5 -160.5l244 -234q37 53 61.5 111t38.5 111q12 45 56 45h155q23 0 40.5 -16.5 t14.5 -39.5q-8 -86 -52 -191.5t-122 -205.5l205 -197q14 -14 18.5 -24t4.5 -19q0 -25 -15.5 -41t-38.5 -16h-202q-23 0 -33 7t-18 13l-105 99q-88 -63 -195.5 -101t-234.5 -38q-90 0 -177 24.5t-155.5 73.5t-111.5 120.5t-43 166.5zM377 371q0 -31 19.5 -57.5t50 -45 t70.5 -29t81 -10.5q68 0 128 19.5t114 54.5l-283 270q-78 -47 -129 -95t-51 -107zM479 1083q0 -53 32 -96t79 -90q80 51 121 89t41 97q0 41 -32 78t-104 37q-68 0 -102.5 -34t-34.5 -81z" />
<glyph unicode="'" horiz-adv-x="475" d="M96 1380q-4 31 9.5 52.5t46.5 21.5h172q33 0 46 -21.5t9 -52.5l-45 -364q-4 -29 -19.5 -43.5t-38.5 -14.5h-77q-23 0 -38.5 14.5t-19.5 43.5z" />
<glyph unicode="(" horiz-adv-x="753" d="M100 633q0 229 27 408.5t90.5 300t166.5 184t257 63.5q23 0 39 -16.5t16 -38.5v-135q0 -23 -16 -38t-39 -18q-84 -8 -137 -57t-84 -138t-42 -218t-11 -297t11 -297t42 -219t84 -139.5t137 -57.5q23 -2 39 -17.5t16 -37.5v-135q0 -23 -16 -39.5t-39 -16.5 q-154 0 -257 63.5t-166.5 185.5t-90.5 300t-27 410z" />
<glyph unicode=")" horiz-adv-x="753" d="M57 -135q0 23 16.5 38t39.5 17q82 8 135 57.5t83.5 139.5t43 219t12.5 297t-12.5 297t-43 218t-83.5 138t-135 57q-23 2 -39.5 17.5t-16.5 38.5v135q0 23 16.5 39t39.5 16q154 0 257 -63.5t166.5 -184t90 -300t26.5 -408.5q0 -231 -26.5 -409.5t-90 -300.5t-167 -185.5 t-256.5 -63.5q-23 0 -39.5 16.5t-16.5 39.5v135z" />
<glyph unicode="*" horiz-adv-x="913" d="M94 1171l51 156q6 18 23.5 26.5t34.5 2.5q2 0 14 -6l160 -101l-45 185q-2 10 -2 16q0 16 13 30.5t32 14.5h164q18 0 31.5 -14.5t13.5 -30.5q0 -6 -2 -16l-45 -185l159 101q12 6 15 6q16 6 33.5 -2t23.5 -27l51 -156q4 -16 -4 -33.5t-24 -23.5q-6 0 -17 -2l-186 -14 l141 -119q10 -14 10 -12q10 -14 8 -34t-18 -30l-131 -96q-16 -10 -34.5 -7t-28.5 15q0 2 -9 16l-69 170l-70 -170q-8 -14 -8 -16q-10 -12 -28.5 -15t-35.5 7l-131 96q-16 10 -18 29.5t8 34.5q0 -2 10 12l142 119l-187 14q-10 2 -16 2q-16 6 -24.5 23.5t-4.5 33.5z" />
<glyph unicode="+" horiz-adv-x="1255" d="M74 549v135q0 23 16 39t39 16h367v371q0 23 16 39t39 16h156q23 0 39 -16t16 -39v-371h364q23 0 39.5 -16t16.5 -39v-135q0 -23 -16.5 -39t-39.5 -16h-364v-373q0 -23 -16.5 -39t-38.5 -16h-156q-23 0 -39 16t-16 39v373h-367q-23 0 -39 16t-16 39z" />
<glyph unicode="," horiz-adv-x="544" d="M80 -104l51 335q4 29 25.5 54.5t62.5 25.5h178q18 0 31.5 -13t13.5 -32q0 -8 -2 -14l-135 -340q-8 -20 -27.5 -43t-60.5 -23h-92q-18 0 -31.5 13.5t-13.5 31.5v5z" />
<glyph unicode="-" horiz-adv-x="993" d="M129 547v135q0 23 16.5 39t38.5 16h625q23 0 39 -16t16 -39v-135q0 -23 -16.5 -39t-38.5 -16h-625q-23 0 -39 16t-16 39z" />
<glyph unicode="." horiz-adv-x="534" d="M117 55v201q0 23 16.5 39t38.5 16h190q23 0 39.5 -16t16.5 -39v-201q0 -23 -16.5 -39t-39.5 -16h-190q-23 0 -39 16.5t-16 38.5z" />
<glyph unicode="/" horiz-adv-x="1077" d="M51 -127q0 8 4 18l686 1657q10 23 31 42.5t59 19.5h152q18 0 31.5 -13.5t13.5 -31.5q0 -8 -4 -19l-692 -1657q-8 -20 -28.5 -40.5t-61.5 -20.5h-146q-18 0 -31.5 13.5t-13.5 31.5z" />
<glyph unicode="0" horiz-adv-x="1335" d="M113 712q0 99 4 177q6 119 35.5 222t94 179t167 120t254.5 44q150 0 253 -42t167.5 -116.5t94.5 -176t36 -220.5q2 -39 2 -86v-96v-96.5t-2 -85.5q-6 -119 -36 -220.5t-94.5 -176.5t-168 -116.5t-252.5 -41.5q-152 0 -254.5 41.5t-167 116.5t-94 176.5t-35.5 220.5 q-4 78 -4 177zM389 717q0 -94 4 -172q10 -147 70.5 -228t204.5 -81q143 0 203.5 80.5t70.5 228.5q4 78 4 172t-4 172q-10 147 -70.5 228t-203.5 81t-204 -81t-71 -228q-4 -78 -4 -172z" />
<glyph unicode="1" horiz-adv-x="933" d="M40 1011.5q3 22.5 21 37.5l445 350q16 12 33.5 23.5t38.5 11.5h159q23 0 39.5 -16.5t16.5 -39.5v-1323q0 -23 -16.5 -39t-39.5 -16h-166q-23 0 -39 16.5t-16 38.5v1012l-291 -227q-18 -14 -39.5 -11.5t-38.5 21.5l-96 121q-14 18 -11 40.5z" />
<glyph unicode="2" horiz-adv-x="1253" d="M92 55v125q0 35 20.5 60.5t34.5 35.5l609 527q61 49 78.5 100t17.5 94q0 84 -51 142.5t-170 58.5q-113 0 -165 -55.5t-75 -141.5q-6 -27 -24.5 -40t-36.5 -13h-162q-23 0 -40 15.5t-15 40.5q6 92 47 174t109.5 143t160.5 97t199 36q129 0 223 -42t155.5 -108.5t91 -147.5 t29.5 -161q0 -51 -6 -97t-28.5 -92t-65.5 -96.5t-115 -107.5l-378 -346h569q23 0 39 -16.5t16 -38.5v-146q0 -23 -16.5 -39t-38.5 -16h-957q-23 0 -39 16.5t-16 38.5z" />
<glyph unicode="3" horiz-adv-x="1300" d="M78 354q-2 25 15.5 40.5t39.5 15.5h162q20 0 33.5 -13.5t27.5 -38.5q12 -25 33 -46t54.5 -38.5t85 -27.5t124.5 -10q125 0 202 50t77 142t-77 132t-202 40h-170q-23 0 -39 16.5t-16 38.5v146q0 23 15.5 42t29.5 34l287 301h-565q-23 0 -39.5 16t-16.5 39v145 q0 23 16.5 39.5t39.5 16.5h897q23 0 39 -16.5t16 -39.5v-145q0 -23 -15.5 -42.5t-29.5 -33.5l-299 -315q92 -12 166.5 -45t128 -85.5t82 -124t28.5 -159.5q0 -106 -42 -189t-116.5 -140.5t-176 -88t-220.5 -30.5q-143 0 -248.5 33.5t-176 87t-107.5 121t-43 132.5z" />
<glyph unicode="4" horiz-adv-x="1325" d="M61 358v146q0 29 13.5 50t31.5 46l627 782q41 51 84 52h156q23 0 39 -16.5t16 -39.5v-819h176q23 0 39.5 -16.5t16.5 -38.5v-146q0 -23 -16.5 -39t-39.5 -16h-176v-248q0 -23 -16.5 -39t-38.5 -16h-166q-23 0 -39 16.5t-16 38.5v248h-635q-23 0 -39.5 16.5t-16.5 38.5z M401 559h351v438z" />
<glyph unicode="5" horiz-adv-x="1249" d="M80 383q-2 25 15.5 40t39.5 15h166q20 0 36.5 -13t22.5 -36q12 -47 39 -76.5t62 -47t78 -23.5t90 -6q117 0 188.5 63t71.5 174q0 92 -72 153.5t-188 63.5q-61 0 -97 -9t-58.5 -21.5t-41 -21.5t-47.5 -9h-188q-23 0 -39.5 16.5t-16.5 38.5l62 694q0 23 16.5 39.5 t38.5 16.5h770q23 0 39 -16.5t16 -39.5v-145q0 -23 -16 -39t-39 -16h-575l-23 -263q55 23 109.5 27t89.5 4q115 0 213 -30.5t169.5 -91t112.5 -148.5t41 -203q0 -131 -42 -224t-114.5 -153.5t-171 -88t-208.5 -27.5q-141 0 -242.5 32.5t-168 89t-100.5 129t-38 152.5z" />
<glyph unicode="6" horiz-adv-x="1269" d="M90 485q2 119 43 201t94 158l389 549q8 12 21.5 26.5t42.5 14.5h184q23 0 39.5 -16.5t16.5 -39.5q0 -10 -3.5 -16t-7.5 -10l-254 -365q121 -2 222.5 -39t174 -102.5t112.5 -157.5t40 -203q0 -113 -41 -206t-114.5 -159.5t-176 -103t-225.5 -36.5t-225.5 36.5t-176 103 t-114.5 159.5t-41 206zM369 485q0 -104 72.5 -176.5t205.5 -72.5t206 72.5t73 176.5t-73 175t-206 71t-205.5 -70.5t-72.5 -175.5z" />
<glyph unicode="7" horiz-adv-x="1122" d="M59 1233v145q0 23 16.5 39.5t39.5 16.5h897q23 0 39 -16.5t16 -39.5v-135q0 -20 -8 -41.5t-25 -56.5l-475 -1096q-8 -18 -21.5 -33.5t-37.5 -15.5h-170q-23 0 -39.5 16.5t-16.5 38.5q0 8 7 25l477 1098h-643q-23 0 -39.5 16t-16.5 39z" />
<glyph unicode="8" horiz-adv-x="1331" d="M100 426q0 106 44 189t128 141q-121 109 -120 278q0 94 38.5 172t107.5 133.5t163 85t205 29.5t205 -29.5t162.5 -85t107.5 -133.5t39 -172q0 -86 -32 -155.5t-89 -122.5q82 -57 127 -140.5t45 -189.5q0 -100 -40 -182t-113.5 -140.5t-178 -91t-233.5 -32.5t-233.5 32.5 t-178.5 91t-114 140.5t-40 182zM377 426q0 -47 24.5 -83t64.5 -59.5t92 -35.5t108 -12q55 0 107 12t92 35.5t64.5 59.5t24.5 83t-24.5 82t-64.5 58.5t-92 35.5t-107 12t-107.5 -12t-92.5 -35.5t-64.5 -58.5t-24.5 -82zM428 1034q0 -41 19.5 -71.5t53.5 -51t75.5 -31 t89.5 -10.5q45 0 88 10.5t76.5 31t53 51t19.5 71.5t-19.5 72t-53 51.5t-76.5 30.5t-88 10q-47 0 -89 -10t-76 -30.5t-53.5 -51.5t-19.5 -72z" />
<glyph unicode="9" horiz-adv-x="1236" d="M66 961q0 113 42 203.5t115.5 155t174 99.5t214.5 35q115 0 215.5 -35t174 -99.5t115.5 -155.5t42 -203q0 -59 -13 -110.5t-34.5 -96.5t-47.5 -86t-52 -78l-385 -549q-8 -12 -21.5 -26.5t-42.5 -14.5h-184q-23 0 -39 16t-16 39q0 10 3 16.5t7 10.5l270 387 q-115 0 -213 36t-169.5 99.5t-113.5 154.5t-42 202zM344 961q0 -115 76 -175.5t192 -60.5q117 0 193 61.5t76 174.5t-76 175t-193 62t-192.5 -62t-75.5 -175z" />
<glyph unicode=":" horiz-adv-x="559" d="M129 55v201q0 23 16.5 39t38.5 16h191q23 0 39 -16t16 -39v-201q0 -23 -16.5 -39t-38.5 -16h-191q-23 0 -39 16.5t-16 38.5zM129 772v201q0 23 16.5 39t38.5 16h191q23 0 39 -16.5t16 -38.5v-201q0 -23 -16.5 -39t-38.5 -16h-191q-23 0 -39 16.5t-16 38.5z" />
<glyph unicode=";" horiz-adv-x="591" d="M100 -102l52 333q4 29 25.5 54.5t62.5 25.5h178q18 0 31.5 -13t13.5 -32q0 -8 -2 -14l-135 -338q-8 -20 -27.5 -43t-60.5 -23h-93q-18 0 -31.5 13.5t-13.5 32.5v4zM162 772v201q0 23 16.5 39t38.5 16h191q23 0 39 -16.5t16 -38.5v-201q0 -23 -16.5 -39t-38.5 -16h-191 q-23 0 -39 16.5t-16 38.5z" />
<glyph unicode="&#x3c;" horiz-adv-x="1024" d="M61 674v86q0 33 15.5 50t44.5 36l717 483q8 4 13 5t9 1q18 0 30.5 -12t12.5 -31v-174q0 -31 -22.5 -53.5t-42.5 -36.5l-463 -311l463 -311q20 -14 42.5 -37t22.5 -54v-174q0 -18 -12 -30.5t-31 -12.5q-4 0 -9 1t-13 5l-717 484q-29 18 -44.5 35.5t-15.5 50.5z" />
<glyph unicode="=" horiz-adv-x="1165" d="M133 295v135q0 23 16.5 39t38.5 16h789q23 0 39 -16t16 -39v-135q0 -23 -16.5 -39t-38.5 -16h-789q-23 0 -39 16t-16 39zM133 801v135q0 23 16.5 39t38.5 16h789q23 0 39 -16.5t16 -38.5v-135q0 -23 -16.5 -39.5t-38.5 -16.5h-789q-23 0 -39 16.5t-16 39.5z" />
<glyph unicode="&#x3e;" horiz-adv-x="1024" d="M121 141v174q0 31 22.5 53.5t42.5 37.5l463 311l-463 311q-20 14 -42.5 36.5t-22.5 53.5v174q0 18 12 30.5t31 12.5q4 0 9 -1t13 -5l717 -483q29 -18 44.5 -35.5t15.5 -50.5v-86q0 -33 -15.5 -50.5t-44.5 -35.5l-717 -484q-8 -4 -13 -5t-9 -1q-18 0 -30.5 12.5 t-12.5 30.5z" />
<glyph unicode="?" horiz-adv-x="1157" d="M57 1034q2 72 44 146.5t113 135t166 99.5t204 39q96 0 187 -26.5t162 -79t114 -129t43 -177.5q0 -82 -26 -142t-66 -108.5t-87 -88t-89 -75.5t-73.5 -75t-37.5 -84q-4 -23 -18.5 -39t-37.5 -16h-155q-23 0 -40.5 16t-15.5 39q4 80 34 140.5t72 108.5t90 87t89 74.5 t67.5 71.5t26.5 79q0 78 -65.5 128t-173.5 50q-174 0 -256 -174q-10 -23 -21.5 -34t-38.5 -11h-166q-18 0 -31.5 12.5t-13.5 32.5zM434 55v181q0 23 16.5 39t38.5 16h177q23 0 39 -16.5t16 -38.5v-181q0 -23 -16.5 -39t-38.5 -16h-177q-23 0 -39 16.5t-16 38.5z" />
<glyph unicode="@" horiz-adv-x="1767" d="M104 556q0 52 1 99t4 74q10 127 62 245t146.5 208t230.5 144t314 54q209 0 354.5 -51t238.5 -139t139 -207t59 -254q4 -53 4 -124t-4 -126q-4 -78 -33 -137t-73 -99t-99 -60.5t-113 -20.5q-102 0 -158.5 29.5t-84.5 64.5q-16 -20 -35 -40.5t-47.5 -37t-71.5 -27 t-107 -10.5q-76 0 -137 30t-105 85t-67.5 132t-23.5 171t22.5 171t63.5 132.5t101 86t136 30.5q84 0 125 -25.5t68 -64.5v18q0 23 16.5 39.5t38.5 16.5h107q23 0 39 -16.5t16 -39.5v-436q0 -49 31.5 -75.5t72.5 -26.5t71 27.5t34 92.5q4 55 4 116t-6 114q-12 113 -51 199 t-108 142t-172 85t-245 29q-119 0 -213 -34t-161.5 -94.5t-108.5 -144.5t-53 -182q-4 -27 -5.5 -71t-1.5 -92t1.5 -93t5.5 -74q12 -98 53 -180t108.5 -142.5t161.5 -94t213 -33.5q84 0 145.5 8t107.5 22.5t79 31.5t59 36q23 16 36.5 23.5t35.5 7.5h152q23 0 40 -15.5 t15 -42.5q0 -16 -14 -30q-43 -43 -97.5 -88.5t-130.5 -80t-180 -57t-248 -22.5q-178 0 -313 52t-228.5 141t-146.5 207t-65 247q-2 29 -3.5 77t-1.5 100zM713 559q0 -100 39 -155.5t110 -55.5q76 0 114 54.5t38 156.5q0 100 -38 156.5t-114 56.5q-72 0 -110.5 -56.5 t-38.5 -156.5z" />
<glyph unicode="A" horiz-adv-x="1441" d="M27 55q0 8 2 15l501 1294q12 35 28.5 52.5t49.5 17.5h226q33 0 49 -17.5t28 -52.5l502 -1294q2 -6 2 -15q0 -23 -16.5 -39t-38.5 -16h-148q-41 0 -57 17.5t-22 33.5l-89 228h-647l-88 -228q-6 -16 -22.5 -33.5t-57.5 -17.5h-147q-23 0 -39 16.5t-16 38.5zM496 535h450 l-225 583z" />
<glyph unicode="B" horiz-adv-x="1404" d="M160 55v1323q0 23 16.5 39.5t38.5 16.5h604q131 0 219 -40t141.5 -100.5t77 -131t23.5 -132.5q0 -61 -16.5 -109.5t-40 -82t-47 -56t-37.5 -30.5q63 -43 116.5 -122t53.5 -200q0 -78 -29 -154.5t-84 -138t-138 -99.5t-192 -38h-651q-23 0 -39 16.5t-16 38.5zM436 256h379 q113 0 165 48t52 126t-54 127t-163 49h-379v-350zM436 862h363q106 0 155.5 40t49.5 118t-49.5 118t-155.5 40h-363v-316z" />
<glyph unicode="C" horiz-adv-x="1400" d="M104 717v17q0 84 5 155q8 123 50 227.5t117.5 179t184 116.5t250.5 42q160 0 272.5 -43t186 -110.5t109.5 -152.5t42 -167v-5q1 -22 -15 -35q-18 -15 -40 -15h-166q-20 0 -39 13t-23 40q-6 41 -28.5 80t-61.5 69.5t-98 50t-139 19.5t-139.5 -24.5t-99.5 -65.5 t-61.5 -98.5t-25.5 -120.5q-4 -78 -4 -172t4 -172q4 -66 25.5 -122t61.5 -97t99.5 -65.5t139.5 -24.5t139 19t99 50t62.5 70t28.5 80q4 27 21.5 40t38.5 13h166q23 0 40 -16q15 -14 15 -34q0 -74 -42 -173q-36 -84 -109.5 -151.5t-186.5 -110.5t-272 -43q-141 0 -250 41.5 t-184.5 116.5t-117.5 179.5t-50 227.5q-5 78 -5 172z" />
<glyph unicode="D" horiz-adv-x="1441" d="M160 55v1323q0 23 16.5 39.5t38.5 16.5h506q152 0 263.5 -40t186 -114t114.5 -178.5t48 -233.5q4 -76 4 -152t-4 -151q-8 -129 -48 -233.5t-113.5 -178t-183 -113.5t-257.5 -40h-516q-23 0 -39 16.5t-16 38.5zM436 256h285q84 0 145.5 23.5t102.5 64.5t62.5 98.5 t25.5 122.5q4 76 4 151.5t-4 151.5q-4 66 -25.5 122.5t-63.5 98t-105.5 65.5t-151.5 24h-275v-922z" />
<glyph unicode="E" horiz-adv-x="1263" d="M160 55v1323q0 23 16.5 39.5t38.5 16.5h883q23 0 39 -16.5t16 -39.5v-145q0 -23 -16.5 -39t-38.5 -16h-662v-326h617q23 0 39 -16.5t16 -38.5v-146q0 -23 -16.5 -39t-38.5 -16h-617v-340h678q23 0 39 -16.5t16 -38.5v-146q0 -23 -16 -39t-39 -16h-899q-23 0 -39 16.5 t-16 38.5z" />
<glyph unicode="F" horiz-adv-x="1222" d="M160 55v1323q0 23 16.5 39.5t38.5 16.5h875q23 0 39 -16.5t16 -39.5v-145q0 -23 -16.5 -39t-38.5 -16h-654v-398h613q23 0 39 -16t16 -39v-145q0 -23 -16.5 -39.5t-38.5 -16.5h-613v-469q0 -23 -16.5 -39t-38.5 -16h-166q-23 0 -39 16.5t-16 38.5z" />
<glyph unicode="G" horiz-adv-x="1449" d="M104 721q0 49 1.5 96t3.5 86q4 123 45 224.5t118.5 174t191.5 112.5t265 40q178 0 294 -46t184.5 -110.5t96 -133t31.5 -115.5q2 -25 -15 -40.5t-40 -15.5h-166q-23 0 -36 11.5t-19 23.5q-4 8 -21.5 36t-55.5 57.5t-99.5 53t-153.5 23.5q-154 0 -246 -83t-98 -222 q-4 -78 -4 -167t4 -167q6 -170 98 -246.5t246 -76.5q76 0 139.5 16t109.5 53t71.5 97.5t25.5 148.5v16h-250q-23 0 -39 16.5t-16 39.5v145q0 23 16.5 39t38.5 16h471q23 0 39.5 -16t16.5 -39v-225q0 -123 -39 -226.5t-117 -178.5t-194.5 -116.5t-272.5 -41.5t-270.5 40.5 t-190 114.5t-115.5 177.5t-44 226.5q-2 39 -3.5 86t-1.5 96z" />
<glyph unicode="H" horiz-adv-x="1490" d="M160 55v1323q0 23 16.5 39.5t38.5 16.5h166q23 0 39 -16.5t16 -39.5v-526h619v526q0 23 16 39.5t39 16.5h166q23 0 39 -16.5t16 -39.5v-1323q0 -23 -16.5 -39t-38.5 -16h-166q-23 0 -39 16.5t-16 38.5v541h-619v-541q0 -23 -16.5 -39t-38.5 -16h-166q-23 0 -39 15.5 t-16 39.5z" />
<glyph unicode="I" horiz-adv-x="595" d="M160 55v1323q0 23 16.5 39.5t38.5 16.5h166q23 0 39 -16.5t16 -39.5v-1323q0 -23 -16.5 -39t-38.5 -16h-166q-23 0 -39 16.5t-16 38.5z" />
<glyph unicode="J" horiz-adv-x="1341" d="M53 432v5q0 22 15 35q18 15 41 15h165q16 0 34 -10t22 -28q8 -41 28.5 -80t55.5 -69t86 -47t123 -17q141 0 216.5 73.5t75.5 214.5v654h-671q-23 0 -39.5 16t-16.5 39v145q0 23 16.5 39.5t39.5 16.5h893q23 0 39 -16.5t16 -39.5v-866q0 -264 -147.5 -398t-421.5 -134 q-145 0 -251 35.5t-174.5 97t-103.5 143.5t-41 176z" />
<glyph unicode="K" horiz-adv-x="1286" d="M160 55v1323q0 23 16.5 39.5t38.5 16.5h166q23 0 39 -16.5t16 -39.5v-481l447 492q18 20 38.5 32.5t53.5 12.5h188q23 0 39.5 -16.5t16.5 -39.5q0 -16 -13 -30l-551 -600l592 -662q10 -10 12.5 -18.5t2.5 -12.5q0 -23 -16.5 -39t-39.5 -16h-194q-41 0 -65.5 21.5 t-28.5 25.5l-482 543v-535q0 -23 -16.5 -39t-38.5 -16h-166q-23 0 -39 16.5t-16 38.5z" />
<glyph unicode="L" horiz-adv-x="1204" d="M160 55v1323q0 23 16.5 39.5t38.5 16.5h166q23 0 39 -16.5t16 -39.5v-1122h676q23 0 39 -16.5t16 -38.5v-146q0 -23 -16 -39t-39 -16h-897q-23 0 -39 16.5t-16 38.5z" />
<glyph unicode="M" horiz-adv-x="1662" d="M160 55v1323q0 23 16.5 39.5t38.5 16.5h139q41 0 60.5 -22.5t27.5 -33.5l389 -676l390 676q8 10 27.5 33t60.5 23h139q23 0 39 -16.5t16 -39.5v-1323q0 -23 -16.5 -39t-38.5 -16h-166q-23 0 -39 16.5t-16 38.5v801l-266 -461q-10 -16 -29 -33.5t-47 -17.5h-107 q-29 0 -47 17.5t-29 33.5l-266 461v-801q0 -23 -16.5 -39t-38.5 -16h-166q-23 0 -39 16.5t-16 38.5z" />
<glyph unicode="N" horiz-adv-x="1447" d="M160 55v1323q0 23 16.5 39.5t38.5 16.5h143q35 0 53.5 -18.5t26.5 -29.5l574 -851v843q0 23 16 39.5t39 16.5h166q23 0 39 -16.5t16 -39.5v-1323q0 -23 -16.5 -39t-38.5 -16h-143q-35 0 -53.5 18.5t-26.5 28.5l-574 852v-844q0 -23 -16.5 -39t-38.5 -16h-166 q-23 0 -39 16.5t-16 38.5z" />
<glyph unicode="O" d="M106 716q0 50 1.5 97t3.5 86q6 115 44 216.5t111.5 176t184 118.5t262.5 44q150 0 260 -43t184 -118.5t113 -176t45 -217.5q2 -39 3 -86t1 -97t-1 -97.5t-3 -86.5q-6 -115 -44 -216t-112 -175.5t-185.5 -117.5t-260.5 -43q-152 0 -262.5 43t-184 117.5t-111.5 176 t-44 215.5q-2 39 -3.5 86.5t-1.5 97.5zM383 716q0 -95 4 -173q8 -147 95 -227t231 -80q143 0 230 79.5t95 227.5q4 78 4 173t-4 173q-8 147 -95 228t-230 81t-230.5 -81t-95.5 -228q-4 -78 -4 -173z" />
<glyph unicode="P" horiz-adv-x="1349" d="M160 55v1323q0 23 16.5 39.5t38.5 16.5h549q248 0 385 -117t137 -342t-137 -344t-385 -119h-328v-457q0 -23 -16.5 -39t-38.5 -16h-166q-23 0 -39 16.5t-16 38.5zM436 768h318q117 0 186.5 46t69.5 161t-70 159t-186 44h-318v-410z" />
<glyph unicode="Q" d="M104 716q0 50 1.5 97t3.5 86q6 115 43.5 216.5t111.5 176t184.5 118.5t262.5 44q150 0 260 -43t184 -118.5t113 -176t45 -217.5q2 -39 3 -86t1 -97t-1 -97.5t-3 -86.5q-6 -111 -41 -209t-105 -171l154 -222q6 -10 6 -18v-5q0 -17 -11 -27q-13 -13 -32 -13h-194 q-37 2 -54.5 20.5t-27.5 30.5l-66 94q-51 -16 -108.5 -24t-122.5 -8q-152 0 -262.5 43t-184.5 117.5t-111.5 176t-43.5 215.5q-2 39 -3.5 86.5t-1.5 97.5zM381 716q0 -95 4 -173q8 -147 95 -227t231 -80q143 0 230 79.5t95 227.5q4 78 4 173t-4 173q-8 147 -95 228t-230 81 t-230.5 -81t-95.5 -228q-4 -78 -4 -173z" />
<glyph unicode="R" horiz-adv-x="1372" d="M160 55v1323q0 23 16.5 39.5t38.5 16.5h528q256 0 389.5 -119t133.5 -330q0 -150 -69 -255t-202 -157l283 -505q6 -12 6 -23q0 -18 -13.5 -31.5t-31.5 -13.5h-174q-41 0 -60.5 19.5t-27.5 35.5l-268 477h-273v-477q0 -23 -16.5 -39t-38.5 -16h-166q-23 0 -39 16.5 t-16 38.5zM436 788h297q117 0 186.5 41t69.5 156t-69.5 154t-186.5 39h-297v-390z" />
<glyph unicode="S" horiz-adv-x="1327" d="M72 377v5q0 21 15 35q17 15 40 15h143q35 0 53.5 -12t30.5 -37q14 -27 35 -53.5t55.5 -47t87 -33.5t130.5 -13q61 0 118.5 9t100.5 30.5t69.5 53t26.5 79.5q0 45 -28.5 73.5t-87 49t-144.5 39t-199 46.5q-102 25 -179 59t-127 83t-74.5 115.5t-24.5 158.5t41 170 t112.5 133.5t170.5 87t214 31.5q137 0 241.5 -37t174.5 -92t105.5 -121.5t39.5 -126.5q2 -25 -15 -40t-40 -15h-143q-35 0 -52.5 13.5t-31.5 35.5q-31 51 -93.5 89t-185.5 38q-53 0 -101 -11t-84 -32.5t-56.5 -52.5t-20.5 -70q0 -47 19.5 -76.5t65.5 -51t122 -40t188 -43.5 q123 -27 212 -62.5t145.5 -85.5t84 -115.5t27.5 -149.5q0 -92 -41 -171t-116.5 -135.5t-186 -89t-247.5 -32.5q-115 0 -219.5 27.5t-185.5 79.5t-130 126t-55 164z" />
<glyph unicode="T" horiz-adv-x="1214" d="M45 1233v145q0 23 16.5 39.5t38.5 16.5h1014q23 0 39 -16.5t16 -39.5v-145q0 -23 -16 -39t-39 -16h-369v-1123q0 -23 -16 -39t-39 -16h-166q-23 0 -39 16.5t-16 38.5v1123h-369q-23 0 -39 16t-16 39z" />
<glyph unicode="U" horiz-adv-x="1472" d="M150 539v839q0 23 16 39.5t39 16.5h166q23 0 39 -16.5t16 -39.5v-829q0 -84 22.5 -143.5t63.5 -97.5t98.5 -55t124.5 -17q68 0 126.5 17t99 55t64.5 97.5t24 143.5v829q0 23 16 39.5t39 16.5h164q23 0 39 -16.5t16 -39.5v-839q0 -127 -37 -229.5t-110.5 -176.5 t-184 -113.5t-256.5 -39.5q-147 0 -256.5 39.5t-183.5 113.5t-109.5 176.5t-35.5 229.5z" />
<glyph unicode="V" horiz-adv-x="1359" d="M57 1371v7q0 23 16.5 39.5t39.5 16.5h155q31 0 46.5 -17.5t21.5 -34.5l344 -976l344 976q6 16 21.5 34t46.5 18h155q23 0 39.5 -16.5t16.5 -39.5v-7t-5 -13l-458 -1288q-12 -35 -28.5 -52.5t-49.5 -17.5h-164q-33 0 -49.5 17.5t-28.5 52.5l-459 1288q-4 10 -4 13z" />
<glyph unicode="W" horiz-adv-x="1642" d="M72 1378q0 23 16 39.5t39 16.5h152q20 0 38.5 -12.5t24.5 -43.5l172 -868l152 547q4 14 19 36.5t52 22.5h168q37 0 52.5 -22.5t19.5 -36.5l151 -547l172 868q6 31 24.5 43.5t39.5 12.5h152q23 0 39 -16.5t16 -39.5q0 -6 -2 -16l-262 -1292q-6 -31 -23.5 -50.5 t-48.5 -19.5h-166q-31 0 -46 19.5t-26 50.5l-176 612l-176 -612q-10 -31 -25.5 -50.5t-46.5 -19.5h-165q-31 0 -48.5 19.5t-23.5 50.5l-262 1292q-2 10 -2 16z" />
<glyph unicode="X" horiz-adv-x="1357" d="M39 55q0 10 6 23l469 653l-448 625q-6 12 -7 22q0 23 16.5 39.5t39.5 16.5h172q41 0 59.5 -20.5t26.5 -31.5l309 -432l307 432q8 10 26.5 31t59.5 21h172q23 0 39.5 -16.5t16.5 -39.5q0 -10 -7 -22l-452 -633l465 -645q6 -12 6 -23q0 -23 -16.5 -39t-38.5 -16h-173 q-41 0 -59 20.5t-27 30.5l-325 453l-324 -453q-8 -10 -26.5 -30.5t-59.5 -20.5h-172q-23 0 -39 16.5t-16 38.5z" />
<glyph unicode="Y" horiz-adv-x="1355" d="M51 1378q0 23 16.5 39.5t38.5 16.5h154q41 0 61.5 -20.5t24.5 -31.5l332 -579l332 579q4 10 24.5 31t61.5 21h153q23 0 39.5 -16.5t16.5 -39.5q0 -10 -5 -18l-485 -854v-451q0 -23 -16.5 -39t-38.5 -16h-164q-23 0 -39 16.5t-16 38.5v451l-486 854q-4 8 -4 18z" />
<glyph unicode="Z" horiz-adv-x="1300" d="M82 55v146q0 29 11 45t20 26l727 906h-682q-23 0 -39.5 16t-16.5 39v145q0 23 16.5 39.5t39.5 16.5h985q23 0 39 -16.5t16 -39.5v-145q0 -41 -27 -68l-729 -909h721q23 0 39.5 -16.5t16.5 -38.5v-146q0 -23 -16.5 -39t-39.5 -16h-1026q-23 0 -39 16.5t-16 38.5z" />
<glyph unicode="[" horiz-adv-x="724" d="M137 -270v1804q0 23 16.5 39t39.5 16h417q23 0 39.5 -16.5t16.5 -38.5v-135q0 -23 -16.5 -39.5t-39.5 -16.5h-207v-1423h207q23 0 39.5 -16.5t16.5 -38.5v-135q0 -23 -16.5 -39.5t-39.5 -16.5h-417q-23 0 -39.5 16.5t-16.5 39.5z" />
<glyph unicode="\" horiz-adv-x="1077" d="M49 1565q0 18 13.5 31.5t31.5 13.5h152q39 0 59.5 -19.5t30.5 -42.5l686 -1657q4 -10 4 -18q0 -18 -13.5 -31.5t-31.5 -13.5h-145q-41 0 -61.5 20.5t-29.5 40.5l-692 1657q-4 10 -4 19z" />
<glyph unicode="]" horiz-adv-x="724" d="M59 -135q0 23 16.5 39t39.5 16h207v1423h-207q-23 0 -39.5 16.5t-16.5 39.5v135q0 23 16.5 39t39.5 16h417q23 0 39.5 -16.5t16.5 -38.5v-1804q0 -23 -16.5 -39.5t-39.5 -16.5h-417q-23 0 -39.5 16.5t-16.5 39.5v135z" />
<glyph unicode="^" horiz-adv-x="884" d="M106 1251q0 16 11 27l188 209q20 23 36.5 31t39.5 8h123q23 0 39 -8.5t37 -30.5l188 -209q10 -10 10 -27q0 -33 -33 -32h-88q-20 0 -32.5 5t-30.5 17l-152 96l-151 -96q-18 -12 -30.5 -17t-33.5 -5h-88q-33 0 -33 32z" />
<glyph unicode="_" horiz-adv-x="1513" d="M102 -68v136q0 23 16.5 39t39.5 16h1198q23 0 39 -16.5t16 -38.5v-136q0 -23 -16.5 -39t-38.5 -16h-1198q-23 0 -39.5 16.5t-16.5 38.5z" />
<glyph unicode="`" horiz-adv-x="739" d="M123 1485q0 41 39 41h194q23 0 38.5 -6.5t37.5 -32.5l174 -209q10 -14 10 -27q0 -33 -32 -32h-113q-33 0 -51.5 10t-34.5 24l-252 207q-10 10 -10 25z" />
<glyph unicode="a" horiz-adv-x="1169" d="M70 299q0 141 100 221t268 109l334 57q0 84 -55 119t-137 35q-51 0 -80 -14.5t-56 -39.5q-18 -16 -33.5 -22t-33.5 -6h-191q-20 0 -34.5 12.5t-10.5 32.5q8 43 38 92t84 92t133 70.5t184 27.5q104 0 188 -27.5t144.5 -80.5t93 -134t32.5 -186v-602q0 -23 -16 -39t-39 -16 h-156q-23 0 -39 16.5t-16 38.5v68q-43 -59 -124 -101t-206 -42q-88 0 -157.5 23.5t-116.5 66.5t-72.5 101t-25.5 128zM336 309q0 -43 44 -63.5t103 -20.5q70 0 124.5 19.5t91 52.5t55 74t18.5 84v20l-278 -49q-84 -14 -121 -42t-37 -75z" />
<glyph unicode="b" horiz-adv-x="1267" d="M141 55v1344q0 23 16.5 39t39.5 16h155q23 0 39.5 -16.5t16.5 -38.5v-436q16 18 42.5 39.5t64.5 40t88.5 30.5t113.5 12q102 0 185 -39.5t141.5 -106.5t92 -154t38.5 -181q2 -31 2 -71.5t-2 -71.5q-4 -94 -38 -181t-92.5 -154t-141.5 -106.5t-185 -39.5q-63 0 -113.5 12 t-88.5 30.5t-64.5 40t-42.5 39.5v-47q0 -23 -16.5 -39t-39.5 -16h-155q-23 0 -39.5 16.5t-16.5 38.5zM404 532q0 -4 -1 -8q0 -41 5 -69q10 -111 78.5 -170.5t168.5 -59.5t170 58.5t82 191.5q3 29 3 58t-3 57q-12 133 -81.5 191.5t-170.5 58.5q-100 0 -168.5 -61.5 t-78.5 -168.5q-4 -31 -4 -78z" />
<glyph unicode="c" horiz-adv-x="1181" d="M86 530.5q0 44.5 4 83.5q6 94 45 180.5t104.5 151t156.5 102t204 37.5q131 0 225.5 -38.5t154.5 -94.5t89 -118q31 -66 31 -110q0 -20 -16 -34q-18 -16 -40 -16h-155q-23 0 -39 18.5t-29 36.5q-16 25 -33.5 44.5t-42 34.5t-59.5 23.5t-86 8.5q-43 0 -84 -13.5t-74.5 -41 t-56.5 -73t-29 -108.5q-4 -31 -4 -71.5t4 -71.5q6 -63 29 -108.5t56.5 -73t74.5 -41t84 -13.5q51 0 86 8.5t59.5 23.5t42 34.5t33.5 44.5q12 18 28.5 36.5t39.5 18.5h155q22 -1 40 -17q16 -15 16 -34q0 -42 -31 -108q-29 -62 -89 -118.5t-154.5 -95t-225.5 -38.5 q-113 0 -203 37.5t-156.5 102t-104.5 149.5t-46 180q-4 37 -4 81.5z" />
<glyph unicode="d" horiz-adv-x="1267" d="M92 532.5q0 40.5 2 71.5q4 94 38 181t92.5 154t141.5 106.5t185 39.5q63 0 113.5 -12t88.5 -30.5t64.5 -40t42.5 -39.5v436q0 23 16.5 39t38.5 16h156q23 0 39 -16.5t16 -38.5v-1344q0 -23 -16 -39t-39 -16h-156q-23 0 -39 16.5t-16 38.5v47q-16 -18 -42.5 -39.5 t-64.5 -40t-88.5 -30.5t-113.5 -12q-102 0 -185 39.5t-141.5 106.5t-92.5 154t-38 181q-2 31 -2 71.5zM360 475q12 -133 82 -191.5t170 -58.5t169 59.5t79 170.5q4 31 4 78t-4 77q-10 106 -78.5 168t-169.5 62q-100 0 -170 -58.5t-82 -191.5q-3 -28 -3 -57t3 -58z" />
<glyph unicode="e" horiz-adv-x="1175" d="M88 532q0 115 35 216.5t100.5 176t158.5 117.5t208 43t208 -42t158.5 -112.5t101.5 -165.5t36 -200v-92q0 -23 -16.5 -39t-39.5 -16h-684q0 -47 19.5 -83t52.5 -60.5t76 -37t88 -12.5q66 0 106.5 13.5t67.5 33.5q23 16 37 22.5t39 6.5h164q23 0 40 -16.5t15 -38.5 q-2 -29 -32 -74t-89 -88t-146 -73.5t-202 -30.5t-208 39.5t-158.5 113.5t-100.5 175t-35 224zM354 651h463q-4 31 -15 65t-37 61.5t-67.5 45t-107.5 17.5q-59 0 -101.5 -17.5t-71 -45t-44 -61.5t-19.5 -65z" />
<glyph unicode="f" horiz-adv-x="874" d="M45 874v136q0 23 16.5 39t38.5 16h136v92q0 98 28.5 167t81.5 112t128 61.5t167 18.5h166q23 0 39 -16.5t16 -39.5v-135q0 -23 -16.5 -39t-38.5 -16h-145q-78 0 -119 -28t-41 -105v-72h284q23 0 39.5 -16.5t16.5 -38.5v-136q0 -23 -16.5 -39t-39.5 -16h-284v-764 q0 -23 -16.5 -39t-39.5 -16h-155q-23 0 -39 16.5t-16 38.5v764h-136q-23 0 -39 16.5t-16 38.5z" />
<glyph unicode="g" horiz-adv-x="1267" d="M92 532.5q0 40.5 2 71.5q4 94 38 181t92.5 154t141.5 106.5t185 39.5q63 0 113.5 -12t88.5 -30.5t64.5 -40t42.5 -39.5v47q0 23 16.5 39t38.5 16h156q23 0 39 -16.5t16 -38.5v-961q0 -248 -138 -374t-382 -126q-104 0 -193 28t-154.5 74t-104.5 104.5t-43 119.5 q-2 23 15 39t40 16h139q29 0 49.5 -19.5t34.5 -35.5q27 -35 73 -57.5t144 -22.5q43 0 88 13.5t82 42t60.5 72.5t23.5 104v75q-16 -18 -42.5 -39.5t-64.5 -40t-88.5 -30.5t-113.5 -12q-102 0 -185 39.5t-141.5 106.5t-92.5 154t-38 181q-2 31 -2 71.5zM360 475 q12 -133 82 -191.5t170 -58.5t169 59.5t79 170.5q4 31 4 78t-4 77q-10 106 -78.5 168t-169.5 62q-100 0 -170 -58.5t-82 -191.5q-3 -28 -3 -57t3 -58z" />
<glyph unicode="h" horiz-adv-x="1271" d="M141 55v1344q0 23 16.5 39t39.5 16h155q23 0 39.5 -16.5t16.5 -38.5v-436q53 53 124.5 87.5t169.5 34.5q125 0 209 -38.5t135.5 -104t73 -153t21.5 -183.5v-551q0 -23 -16.5 -39t-39.5 -16h-155q-23 0 -39.5 16.5t-16.5 38.5v520q0 123 -57 197t-176 74q-109 0 -171 -74 t-62 -197v-520q0 -23 -16.5 -39t-39.5 -16h-155q-23 0 -39.5 16.5t-16.5 38.5z" />
<glyph unicode="i" horiz-adv-x="548" d="M131 1239v160q0 23 16.5 39t38.5 16h176q23 0 39.5 -16.5t16.5 -38.5v-160q0 -23 -16.5 -39t-39.5 -16h-176q-23 0 -39 16.5t-16 38.5zM141 55v955q0 23 16.5 39t39.5 16h155q23 0 39.5 -16.5t16.5 -38.5v-955q0 -23 -16.5 -39t-39.5 -16h-155q-23 0 -39.5 16.5 t-16.5 38.5z" />
<glyph unicode="j" horiz-adv-x="569" d="M-78 -199q0 23 16.5 39.5t38.5 16.5h31q92 0 123 34.5t31 98.5v1020q0 23 16.5 39t38.5 16h156q23 0 39 -16.5t16 -38.5v-1030q0 -184 -103.5 -276.5t-295.5 -92.5h-52q-23 0 -39 16.5t-16 38.5v135zM152 1239v160q0 23 16 39t39 16h176q23 0 39 -16.5t16 -38.5v-160 q0 -23 -16 -39t-39 -16h-176q-23 0 -39 16.5t-16 38.5z" />
<glyph unicode="k" horiz-adv-x="1150" d="M141 55v1344q0 23 16.5 39t39.5 16h155q23 0 39.5 -16.5t16.5 -38.5v-645l342 276q12 10 31.5 22.5t47.5 12.5h209q20 0 34.5 -14.5t14.5 -34.5q0 -10 -3 -19.5t-19 -21.5l-477 -385l522 -502q12 -12 16 -20.5t4 -18.5q0 -20 -14 -34.5t-35 -14.5h-198q-31 0 -52.5 12.5 t-31.5 22.5l-391 373v-353q0 -23 -16.5 -39t-39.5 -16h-155q-23 0 -39.5 16.5t-16.5 38.5z" />
<glyph unicode="l" horiz-adv-x="548" d="M141 55v1344q0 23 16.5 39t39.5 16h155q23 0 39.5 -16.5t16.5 -38.5v-1344q0 -23 -16.5 -39t-39.5 -16h-155q-23 0 -39.5 16.5t-16.5 38.5z" />
<glyph unicode="m" horiz-adv-x="1882" d="M141 55v955q0 23 16.5 39t39.5 16h155q23 0 39.5 -16.5t16.5 -38.5v-47q49 59 118.5 90.5t145.5 31.5q129 0 211 -48t129 -126q27 41 65.5 74t82.5 55.5t91 33.5t92 11q117 0 195 -38.5t126 -104t67.5 -153t19.5 -183.5v-551q0 -23 -16.5 -39t-38.5 -16h-156 q-23 0 -39 16.5t-16 38.5v541q0 139 -53.5 194.5t-149.5 55.5q-82 0 -140.5 -53.5t-62.5 -186.5v-551q0 -23 -16 -39t-39 -16h-156q-23 0 -39 16.5t-16 38.5v541q0 139 -53 194.5t-150 55.5q-84 0 -143 -56.5t-59 -193.5v-541q0 -23 -16.5 -39t-39.5 -16h-155 q-23 0 -39.5 16.5t-16.5 38.5z" />
<glyph unicode="n" horiz-adv-x="1271" d="M141 55v955q0 23 16.5 39t39.5 16h155q23 0 39.5 -16.5t16.5 -38.5v-47q53 53 124.5 87.5t169.5 34.5q125 0 209 -38.5t135.5 -104t73 -153t21.5 -183.5v-551q0 -23 -16.5 -39t-39.5 -16h-155q-23 0 -39.5 16.5t-16.5 38.5v520q0 123 -57 197t-176 74q-109 0 -171 -74 t-62 -197v-520q0 -23 -16.5 -39t-39.5 -16h-155q-23 0 -39.5 16.5t-16.5 38.5z" />
<glyph unicode="o" horiz-adv-x="1218" d="M92 530.5q0 28.5 1 57t3 47.5q6 94 46 176t106.5 143.5t157.5 96t204 34.5t204 -34.5t157.5 -96t106.5 -143.5t46 -176q2 -18 2 -47v-57.5v-56.5t-2 -46q-8 -94 -47 -176t-105.5 -142.5t-157.5 -95t-204 -34.5t-204 34.5t-157.5 95t-105.5 142.5t-47 176q-2 18 -3 46 t-1 56.5zM358 532.5q0 -26.5 1 -52t3 -40.5q6 -63 30 -105t58.5 -66.5t75.5 -34t84 -9.5t84 9.5t76 34t58.5 66.5t29.5 105q2 14 2 40v52.5v51.5t-2 41q-6 63 -29.5 105t-58.5 66.5t-76 34t-84 9.5t-84 -9.5t-75.5 -34t-58 -66.5t-30.5 -105q-2 -16 -3 -41t-1 -51.5z" />
<glyph unicode="p" horiz-adv-x="1267" d="M141 -334v1344q0 23 16.5 39t39.5 16h155q23 0 39.5 -16.5t16.5 -38.5v-47q16 18 42.5 39.5t64.5 40t88 30.5t114 12q102 0 185 -39.5t141.5 -106.5t92 -154t38.5 -181q2 -31 2 -71.5t-2 -71.5q-4 -94 -38 -181t-92.5 -154t-141.5 -106.5t-185 -39.5q-63 0 -113.5 12 t-88.5 30.5t-64.5 40t-42.5 39.5v-436q0 -23 -16.5 -39t-39.5 -16h-155q-23 0 -39.5 16.5t-16.5 38.5zM404 532q-1 -4 -1 -8q0 -42 5 -69q10 -106 78.5 -168t168.5 -62t170 58.5t82 191.5q3 29 3 57.5t-3 57.5q-12 133 -81.5 191.5t-170.5 58.5q-100 0 -168.5 -59.5 t-78.5 -170.5q-4 -31 -4 -78z" />
<glyph unicode="q" horiz-adv-x="1267" d="M92 532.5q0 40.5 2 71.5q4 94 38 181t92.5 154t141.5 106.5t185 39.5q63 0 113.5 -12t88.5 -30.5t64.5 -40t42.5 -39.5v47q0 23 16.5 39t38.5 16h156q23 0 39 -16.5t16 -38.5v-1344q0 -23 -16 -39t-39 -16h-156q-23 0 -39 16.5t-16 38.5v436q-16 -18 -42.5 -39.5 t-64.5 -40t-88.5 -30.5t-113.5 -12q-102 0 -185 39.5t-141.5 106.5t-92.5 154t-38 181q-2 31 -2 71.5zM360 475q12 -133 82 -191.5t170 -58.5t169 61.5t79 168.5q4 31 4 78t-4 77q-10 111 -78.5 170.5t-169.5 59.5q-100 0 -169.5 -58.5t-82.5 -191.5q-3 -29 -3 -57.5 t3 -57.5z" />
<glyph unicode="r" horiz-adv-x="856" d="M141 55v955q0 23 16.5 39t39.5 16h155q23 0 39.5 -16.5t16.5 -38.5v-47q53 49 113.5 75.5t158.5 26.5h92q23 0 39 -16.5t16 -38.5v-136q0 -23 -16 -39t-39 -16h-133q-123 0 -177 -54t-54 -177v-533q0 -23 -16.5 -39t-39.5 -16h-155q-23 0 -39.5 16.5t-16.5 38.5z" />
<glyph unicode="s" horiz-adv-x="1064" d="M80 264q-2 23 15.5 39t39.5 16h158q31 0 46 -14t34.5 -32.5t54.5 -33t104 -14.5q31 0 64 4t60.5 13.5t46 24.5t18.5 38t-14.5 37t-50 26.5t-95 25t-151.5 32.5q-90 20 -149.5 51t-95.5 72t-50.5 93t-14.5 114q0 61 29 120.5t83 105.5t132 74.5t178 28.5t179 -22.5 t134.5 -59t86 -85t34.5 -97.5q2 -23 -15 -39t-40 -16h-158q-31 0 -46 11t-33.5 25.5t-49 26t-92.5 11.5q-61 0 -108 -18.5t-47 -65.5q0 -23 11 -38.5t43 -27.5t88 -25.5t146 -31.5q182 -39 257 -122t75 -206q0 -61 -30.5 -119.5t-89 -104.5t-143.5 -73.5t-192 -27.5 q-109 0 -191.5 25.5t-140 66.5t-88 92t-32.5 100z" />
<glyph unicode="t" horiz-adv-x="899" d="M43 874v136q0 23 16.5 39t38.5 16h135v334q0 23 16.5 39t39.5 16h155q23 0 39.5 -16.5t16.5 -38.5v-334h264q23 0 39 -16.5t16 -38.5v-136q0 -23 -16.5 -39t-38.5 -16h-264v-434q0 -63 33.5 -101t125.5 -38h125q23 0 39.5 -16.5t16.5 -39.5v-135q0 -23 -16.5 -39 t-39.5 -16h-151q-193 0 -296.5 93t-103.5 286v440h-135q-23 0 -39 16.5t-16 38.5z" />
<glyph unicode="u" horiz-adv-x="1251" d="M131 459v551q0 23 16.5 39t38.5 16h156q23 0 39 -16.5t16 -38.5v-521q0 -123 52.5 -196.5t171.5 -73.5q109 0 166 74t57 196v521q0 23 16.5 39t38.5 16h156q23 0 39 -16.5t16 -38.5v-955q0 -23 -16.5 -39t-38.5 -16h-156q-23 0 -39 16.5t-16 38.5v47q-47 -47 -117 -84.5 t-168 -37.5q-125 0 -207 38.5t-131 104t-69.5 152.5t-20.5 184z" />
<glyph unicode="v" horiz-adv-x="1204" d="M53 1010q0 23 16.5 39t39.5 16h153q31 0 45.5 -16.5t22.5 -32.5l272 -635l272 635q8 16 22.5 32.5t45.5 16.5h154q23 0 39 -16.5t16 -38.5q0 -8 -2 -15l-412 -944q-8 -18 -22.5 -34.5t-44.5 -16.5h-135q-31 0 -45.5 16.5t-22.5 34.5l-412 944q-2 6 -2 15z" />
<glyph unicode="w" horiz-adv-x="1699" d="M66 1010q0 23 16 39t39 16h155q29 0 40.5 -16.5t17.5 -32.5l184 -586l197 586q4 16 19.5 32.5t37.5 16.5h156q23 0 38 -16.5t19 -32.5l197 -586l184 586q6 16 17.5 32.5t39.5 16.5h156q23 0 39 -16.5t16 -38.5q0 -8 -2 -15l-309 -944q-6 -18 -18.5 -34.5t-40.5 -16.5 h-156q-29 0 -40 16.5t-19 34.5l-199 547l-199 -547q-8 -18 -19 -34.5t-40 -16.5h-156q-29 0 -41 16.5t-18 34.5l-309 944q-2 6 -2 15z" />
<glyph unicode="x" horiz-adv-x="1198" d="M53 57q0 16 8 29l369 457l-352 436q-8 12 -8 29q0 25 15 41t38 16h158q27 0 48 -7t42 -32l231 -287l229 287q20 25 42 32t49 7h157q23 0 38.5 -16.5t15.5 -40.5q0 -16 -9 -29l-356 -444l365 -449q8 -12 8 -29q0 -25 -15.5 -41t-38.5 -16h-157q-27 0 -48.5 7t-41.5 32 l-244 299l-242 -299q-20 -25 -41.5 -32t-48.5 -7h-158q-23 0 -38 16.5t-15 40.5z" />
<glyph unicode="y" horiz-adv-x="1206" d="M57 1010q0 23 16.5 39t39.5 16h153q25 0 43.5 -16.5t24.5 -32.5l272 -633l273 633q6 16 24.5 32.5t42.5 16.5h154q23 0 39 -16.5t16 -38.5q0 -8 -2 -15l-575 -1335q-6 -16 -24.5 -32.5t-43.5 -16.5h-154q-23 0 -39 16.5t-16 38.5q0 8 2 15l162 376l-406 938q-2 6 -2 15z " />
<glyph unicode="z" horiz-adv-x="1107" d="M88 55v140q0 25 8 40t21 29l512 555h-465q-23 0 -39 16.5t-16 38.5v136q0 23 16 39t39 16h770q23 0 39 -16.5t16 -38.5v-140q0 -18 -9 -36.5t-19 -32.5l-512 -555h526q23 0 39 -16.5t16 -39.5v-135q0 -23 -16.5 -39t-38.5 -16h-832q-23 0 -39 16.5t-16 38.5z" />
<glyph unicode="{" horiz-adv-x="815" d="M16 578v106q0 49 60 76l35 14q59 25 87.5 90.5t28.5 163.5q0 137 34 242.5t96.5 176.5t149.5 106.5t193 35.5q23 0 39.5 -16.5t16.5 -38.5v-135q0 -23 -16.5 -39.5t-39.5 -16.5q-100 0 -153 -96t-53 -286q0 -74 -13.5 -128.5t-36 -93.5t-50 -64.5t-54.5 -43.5 q27 -18 54.5 -44t50 -65t36 -93t13.5 -128q0 -190 53 -285.5t153 -95.5q23 0 39.5 -16.5t16.5 -38.5v-135q0 -23 -16.5 -39.5t-39.5 -16.5q-106 0 -193 36t-149.5 106.5t-96.5 175t-34 241.5q0 98 -28.5 164t-87.5 90l-35 15q-59 27 -60 76z" />
<glyph unicode="|" horiz-adv-x="544" d="M139 -371v2151q0 23 16.5 39t39.5 16h155q23 0 39.5 -16.5t16.5 -38.5v-2151q0 -23 -16.5 -39t-39.5 -16h-155q-23 0 -39.5 16.5t-16.5 38.5z" />
<glyph unicode="}" horiz-adv-x="815" d="M59 -135q0 23 16.5 39t39.5 16q100 0 153.5 95.5t53.5 285.5q0 74 13 128t35.5 93t49 64.5t55.5 44.5q-29 18 -55.5 43.5t-49 64.5t-35.5 93.5t-13 128.5q0 190 -53.5 286t-153.5 96q-23 0 -39.5 16.5t-16.5 39.5v135q0 23 16.5 39t39.5 16q106 0 193 -35.5t149.5 -106.5 t96.5 -176.5t34 -242.5q0 -98 28.5 -163.5t88.5 -90.5l34 -14q59 -27 60 -76v-106q0 -49 -60 -76l-34 -15q-59 -25 -88 -90t-29 -164q0 -137 -34 -241.5t-96.5 -175t-149.5 -106.5t-193 -36q-23 0 -39.5 16.5t-16.5 39.5v135z" />
<glyph unicode="~" horiz-adv-x="1150" d="M137 539v82q0 68 55.5 115.5t159.5 47.5q76 0 128 -13t98.5 -29.5t95.5 -30t121 -13.5q47 0 83.5 19.5t53.5 34.5q8 6 17 11t24 7q29 0 37 -18.5t8 -57.5v-82q0 -68 -60.5 -115.5t-164.5 -47.5q-76 0 -128.5 13t-98.5 29.5t-95 30t-121 13.5q-47 0 -78.5 -19.5 t-48.5 -34.5q-8 -6 -17 -11t-24 -7q-29 0 -37 18.5t-8 57.5z" />
<glyph unicode="&#xa1;" horiz-adv-x="532" d="M123 831q0 -23 16.5 -39t38.5 -16h177q23 0 39 16.5t16 38.5v181q0 23 -16.5 39t-38.5 16h-177q-23 0 -39 -16.5t-16 -38.5v-181zM133 -311q0 -23 16.5 -39.5t39.5 -16.5h155q23 0 39.5 16.5t16.5 39.5v909q0 23 -16.5 39t-39.5 16h-155q-23 0 -39.5 -16t-16.5 -39v-909z " />
<glyph unicode="&#xa2;" horiz-adv-x="1198" d="M96 530.5q0 44.5 4 83.5q6 78 34 151t75 133t113.5 104.5t148.5 64.5v127q0 23 16.5 39t38.5 16h156q23 0 39 -16t16 -39v-121q96 -18 166 -60t115 -92.5t67.5 -102.5t24.5 -89q2 -23 -15.5 -39t-39.5 -16h-156q-23 0 -39 18.5t-29 36.5q-16 25 -33.5 44.5t-42 34.5 t-59 23.5t-86.5 8.5q-43 0 -84 -13.5t-74.5 -41t-56 -73t-28.5 -108.5q-4 -31 -4.5 -71.5t4.5 -71.5q6 -63 28.5 -108.5t56 -73t74.5 -41t84 -13.5q51 0 86 8.5t59.5 23.5t42 34.5t33.5 44.5q12 18 29 36.5t39 18.5h156q23 0 40 -16.5t15 -38.5q-2 -39 -24.5 -90 t-67.5 -102.5t-114.5 -92.5t-166.5 -59v-142q0 -23 -16 -39t-39 -16h-156q-23 0 -39 16.5t-16 38.5v148q-82 20 -147.5 64t-113.5 103.5t-76 132.5t-34 151q-4 37 -4 81.5z" />
<glyph unicode="&#xa3;" horiz-adv-x="1468" d="M86 45q0 98 56.5 193.5t166.5 144.5q-2 57 -8 111.5t-14 109.5h-146q-45 0 -45 45v115q0 45 45 45h117q-2 20 -2 38.5v41.5q0 123 37 227.5t106.5 179t169 116.5t226.5 42q143 0 247.5 -44t172 -114.5t99.5 -156.5t32 -168q0 -18 -13.5 -31.5t-32.5 -13.5h-186 q-16 0 -28.5 13t-16.5 32q-8 41 -24.5 82t-48 72.5t-81 52t-120.5 20.5q-66 0 -114 -24.5t-82 -65.5t-50.5 -98.5t-16.5 -120.5v-40t3 -40h387q45 0 45 -45v-115q0 -45 -45 -45h-359q8 -47 13.5 -95t9.5 -95q76 -14 127 -44t92 -60.5t75.5 -53.5t75.5 -23q57 0 91 33t57 88 q16 45 53 45h180q18 0 31.5 -13t13.5 -32q0 -68 -26.5 -134t-78.5 -120.5t-127 -88.5t-173 -34q-104 0 -171 30t-115 64.5t-88 64.5t-91 30q-57 0 -91 -33t-56 -88q-16 -45 -54 -45h-180q-18 0 -31.5 13.5t-13.5 31.5z" />
<glyph unicode="&#xa5;" horiz-adv-x="1347" d="M57 1389q0 18 13.5 31.5t31.5 13.5h179q41 0 61 -20.5t25 -31.5l307 -548l307 548q4 10 24.5 31t61.5 21h178q18 0 31.5 -13.5t13.5 -31.5q0 -10 -4 -19l-407 -729h245q45 0 45 -45v-74q0 -45 -45 -45h-311v-82h311q45 0 45 -45v-74q0 -45 -45 -45h-311v-176 q0 -23 -16.5 -39t-38.5 -16h-168q-23 0 -39 16.5t-16 38.5v176h-312q-45 0 -45 45v74q0 45 45 45h312v82h-312q-45 0 -45 45v74q0 45 45 45h246l-408 729q-4 8 -4 19z" />
<glyph unicode="&#xa7;" horiz-adv-x="1228" d="M70 637q0 104 43 173t114 116q-35 66 -34 155q0 88 33.5 158t93 118t140.5 72.5t175 24.5q119 0 204 -31.5t140 -78t81.5 -97.5t29.5 -90q2 -27 -16.5 -41t-37.5 -14h-157q-31 0 -48.5 16.5t-39 37t-55.5 36.5t-101 16q-72 0 -124 -29.5t-52 -88.5q0 -53 67.5 -90 t223.5 -82q213 -59 311 -148.5t98 -239.5q0 -104 -44 -173.5t-116 -116.5q16 -33 26.5 -70t10.5 -84q0 -90 -33.5 -158.5t-93 -117t-140.5 -73t-175 -24.5q-119 0 -204 32t-140 78t-82 97t-29 90q-2 27 16.5 41.5t37.5 14.5h157q31 0 48.5 -16.5t39 -37t55 -37t101.5 -16.5 q72 0 124 29.5t52 89.5q0 53 -67.5 90t-223.5 82q-213 59 -311 148t-98 239zM336 643q0 -29 22.5 -50.5t64.5 -42t101.5 -41t132.5 -44.5q76 -29 142 -55q53 27 73.5 53t20.5 61q0 27 -22.5 49.5t-64.5 43t-101.5 41t-133.5 44.5q-78 25 -141 56q-53 -27 -73.5 -53.5 t-20.5 -61.5z" />
<glyph unicode="&#xa8;" horiz-adv-x="950" d="M123 1274v180q0 23 16.5 39t38.5 16h170q23 0 39 -16t16 -39v-180q0 -23 -16 -39t-39 -16h-170q-23 0 -39 16t-16 39zM547 1274v180q0 23 16.5 39t38.5 16h170q23 0 39 -16t16 -39v-180q0 -23 -16 -39t-39 -16h-170q-23 0 -39 16t-16 39z" />
<glyph unicode="&#xa9;" horiz-adv-x="1667" d="M96 717q0 154 58.5 288t158 233t233.5 157.5t288 58.5t287.5 -58.5t233 -157.5t158 -233.5t58.5 -287.5q0 -154 -58.5 -288t-158 -233.5t-233.5 -157.5t-287 -58q-154 0 -288 58t-233.5 157.5t-158 233.5t-58.5 288zM270 717q0 -119 43 -223.5t119 -182.5t179.5 -123 t222.5 -45t222 45t179 123t119 182.5t43 223.5t-43 223t-119 182t-179.5 123t-221.5 45q-119 0 -222.5 -45t-179.5 -123t-119 -182t-43 -223zM483 718.5q0 38.5 2 69.5q4 147 96.5 236.5t252.5 89.5q84 0 149.5 -26.5t109.5 -64.5t66.5 -82t22.5 -81q0 -45 -45 -45h-121 q-25 0 -35 15.5t-18 27.5q-29 45 -65 54.5t-64 9.5q-68 0 -100 -35t-36 -99q-2 -31 -2 -69.5t2 -69.5q4 -63 36 -98t100 -35q29 0 64.5 9.5t64.5 54.5q8 12 18 27.5t35 15.5h121q45 0 45 -45q0 -37 -22.5 -81t-66.5 -82t-109.5 -64.5t-149.5 -26.5q-160 0 -252.5 89 t-96.5 236q-2 31 -2 69.5z" />
<glyph unicode="&#xaa;" horiz-adv-x="739" d="M84 1042q0 74 64.5 123t175.5 66l120 18q0 16 -15 40t-60 24q-20 0 -35 -6.5t-28 -14.5t-26.5 -14t-29.5 -6h-76q-20 0 -33.5 7t-11.5 28q2 14 17.5 37.5t45 46t73.5 38t104 15.5q115 0 183.5 -55.5t68.5 -159.5v-295q0 -45 -46 -45h-81q-45 0 -45 45v14 q-16 -29 -66.5 -49t-106.5 -20q-45 0 -80.5 14t-60 37.5t-38 52.5t-13.5 59zM270 1051q0 -18 12.5 -29.5t43.5 -11.5q59 0 88.5 40t29.5 80l-90 -14q-35 -6 -59.5 -20.5t-24.5 -44.5z" />
<glyph unicode="&#xab;" horiz-adv-x="1275" d="M88 606v135q0 33 29 58l403 391q10 8 18.5 9t10.5 1q18 0 31.5 -13t13.5 -32v-182q0 -35 -8 -53.5t-29 -38.5l-213 -207l213 -207q20 -20 28.5 -38.5t8.5 -53.5v-182q0 -18 -13.5 -32t-31.5 -14q-2 0 -10.5 1.5t-18.5 9.5l-403 391q-29 25 -29 57zM643 606v135 q0 33 29 58l403 391q10 8 18.5 9t10.5 1q18 0 31.5 -13t13.5 -32v-182q0 -35 -8 -53.5t-29 -38.5l-213 -207l213 -207q20 -20 28.5 -38.5t8.5 -53.5v-182q0 -18 -13.5 -32t-31.5 -14q-2 0 -10.5 1.5t-18.5 9.5l-403 391q-29 25 -29 57z" />
<glyph unicode="&#xac;" horiz-adv-x="1179" d="M121 526v136q0 23 16.5 39t38.5 16h809q23 0 39 -16.5t16 -38.5v-390q0 -23 -16 -39t-39 -16h-156q-23 0 -39 16.5t-16 38.5v199h-598q-23 0 -39 16.5t-16 38.5z" />
<glyph unicode="&#xad;" horiz-adv-x="993" d="M129 547v135q0 23 16.5 39t38.5 16h625q23 0 39 -16t16 -39v-135q0 -23 -16.5 -39t-38.5 -16h-625q-23 0 -39 16t-16 39z" />
<glyph unicode="&#xae;" horiz-adv-x="1667" d="M96 717q0 154 58.5 288t158 233t233.5 157.5t288 58.5t287.5 -58.5t233 -157.5t158 -233.5t58.5 -287.5q0 -154 -58.5 -288t-158 -233.5t-233.5 -157.5t-287 -58q-154 0 -288 58t-233.5 157.5t-158 233.5t-58.5 288zM270 717q0 -119 43 -223.5t119 -182.5t179.5 -123 t222.5 -45t222 45t179 123t119 182.5t43 223.5t-43 223t-119 182t-179.5 123t-221.5 45q-119 0 -222.5 -45t-179.5 -123t-119 -182t-43 -223zM537 389v660q0 45 45 45h284q82 0 139.5 -19.5t94.5 -53.5t53 -79t16 -96q0 -66 -27.5 -125t-88.5 -96l112 -207q8 -12 9 -29 q0 -16 -11.5 -30.5t-34.5 -14.5h-116q-41 0 -60 39l-98 195h-104v-189q0 -45 -45 -45h-123q-45 0 -45 45zM750 772h120q49 0 67.5 19.5t18.5 54.5t-18 54.5t-68 19.5h-120v-148z" />
<glyph unicode="&#xaf;" horiz-adv-x="886" d="M123 1274v135q0 23 16.5 39t38.5 16h531q23 0 39 -16t16 -39v-135q0 -23 -16.5 -39t-38.5 -16h-531q-23 0 -39 16t-16 39z" />
<glyph unicode="&#xb0;" horiz-adv-x="835" d="M78 1124q0 70 26.5 130.5t72.5 105.5t107.5 69.5t133.5 24.5q70 0 132 -24.5t108.5 -69.5t73 -105.5t26.5 -130.5q0 -72 -26.5 -131t-73 -104t-109 -69.5t-131.5 -24.5q-72 0 -133.5 24.5t-107.5 69.5t-72.5 104t-26.5 131zM262 1124q0 -70 43 -112.5t113 -42.5t112.5 43 t42.5 112q0 70 -43 113t-112 43q-70 0 -113 -43t-43 -113z" />
<glyph unicode="&#xb1;" horiz-adv-x="1144" d="M100 754v135q0 23 16.5 39t39.5 16h284v289q0 23 16.5 39t39.5 16h155q23 0 39.5 -16.5t16.5 -38.5v-289h282q23 0 39 -16.5t16 -38.5v-135q0 -23 -16 -39.5t-39 -16.5h-282v-290q0 -23 -16.5 -39.5t-39.5 -16.5h-155q-23 0 -39.5 16.5t-16.5 39.5v290h-284 q-23 0 -39.5 16.5t-16.5 39.5zM141 55v135q0 23 16.5 39.5t39.5 16.5h751q23 0 39.5 -16.5t16.5 -39.5v-135q0 -23 -16.5 -39t-39.5 -16h-751q-23 0 -39.5 16.5t-16.5 38.5z" />
<glyph unicode="&#xb4;" horiz-adv-x="739" d="M123 1251q0 12 10 27l174 209q23 27 38 33t38 6h195q39 0 38 -41q0 -14 -10 -25l-252 -207q-16 -14 -34.5 -24t-51.5 -10h-112q-33 0 -33 32z" />
<glyph unicode="&#xb5;" horiz-adv-x="1265" d="M133 -354v1364q0 23 16.5 39t38.5 16h156q23 0 39 -16.5t16 -38.5v-521q0 -123 62.5 -196.5t171.5 -73.5t171 74t62 196v521q0 23 16.5 39t39.5 16h155q23 0 39.5 -16.5t16.5 -38.5v-955q0 -23 -16.5 -39t-39.5 -16h-155q-23 0 -39.5 16.5t-16.5 38.5v47 q-41 -59 -96 -90.5t-137 -31.5t-137.5 31.5t-96.5 90.5v-456q0 -23 -16 -39.5t-39 -16.5h-156q-23 0 -39 16.5t-16 39.5z" />
<glyph unicode="&#xb6;" horiz-adv-x="1148" d="M57 1051q0 80 30 149.5t82 121.5t121.5 82t149.5 30h508q23 0 39.5 -16.5t16.5 -39.5v-1528q0 -23 -16.5 -39t-39.5 -16h-90q-23 0 -39 16.5t-16 38.5v1383h-162v-1383q0 -23 -16.5 -39t-38.5 -16h-90q-23 0 -39.5 16.5t-16.5 38.5v818q-80 0 -149.5 29.5t-121.5 81.5 t-82 122t-30 150z" />
<glyph unicode="&#xb7;" horiz-adv-x="679" d="M94 614q0 51 19.5 95.5t53.5 78t78 53t95 19.5t95 -19.5t78 -53t53.5 -77.5t19.5 -96q0 -51 -19.5 -95t-53.5 -77.5t-78 -53t-95 -19.5t-95 19.5t-78 53t-53.5 77.5t-19.5 95z" />
<glyph unicode="&#xb8;" horiz-adv-x="618" d="M127 -380.5q-8 18.5 8 34.5l29 27q16 14 26.5 14t22.5 -7t30.5 -15.5t49.5 -8.5q78 0 78 66q0 61 -78 61q-16 0 -31.5 -6t-29 -10t-25.5 -4t-25 12l-32 37q-12 16 -15.5 27.5t10.5 39.5l78 168h125l-80 -170q12 8 30.5 14.5t41.5 6.5q84 0 120 -51.5t36 -124.5 q0 -74 -51.5 -127.5t-151.5 -53.5q-37 0 -73 10.5t-60.5 26t-32.5 34z" />
<glyph unicode="&#xba;" horiz-adv-x="716" d="M90 1161q0 39 2 56q2 55 26.5 97t61.5 71.5t83 44t95 14.5t95.5 -14.5t83 -44t60.5 -71.5t28 -97q2 -16 2 -55.5t-2 -55.5q-6 -111 -83 -169t-184 -58q-106 0 -183 58t-83 169q-2 16 -2 55zM276.5 1161.5q-0.5 -28.5 2.5 -45.5q4 -51 21 -72.5t58 -21.5t58.5 21.5 t21.5 72.5q2 16 2 45t-2 45q-4 47 -21.5 70.5t-58.5 23.5t-58 -23.5t-21 -70.5q-2 -16 -2.5 -44.5z" />
<glyph unicode="&#xbb;" horiz-adv-x="1275" d="M127 193v182q0 35 8 53t29 39l213 207l-213 207q-20 20 -28.5 38.5t-8.5 53.5v182q0 18 13.5 31.5t31.5 13.5q2 0 10 -1t19 -9l403 -391q29 -25 29 -58v-135q0 -33 -29 -57l-403 -391q-10 -8 -18.5 -9.5t-10.5 -1.5q-18 0 -31.5 13.5t-13.5 32.5zM682 193v182q0 35 8 53 t29 39l213 207l-213 207q-20 20 -28.5 38.5t-8.5 53.5v182q0 18 13.5 31.5t31.5 13.5q2 0 10 -1t19 -9l403 -391q29 -25 29 -58v-135q0 -33 -29 -57l-403 -391q-10 -8 -18.5 -9.5t-10.5 -1.5q-18 0 -31.5 13.5t-13.5 32.5z" />
<glyph unicode="&#xbf;" horiz-adv-x="1144" d="M61 25q0 82 26 142t66 108.5t87 88t89 75.5t73.5 75t37.5 84q4 23 18.5 39t37.5 16h155q23 0 40.5 -16t15.5 -39q-4 -80 -34 -140.5t-72 -108.5t-90 -87t-89 -74.5t-67.5 -71.5t-26.5 -79q0 -78 65.5 -128t173.5 -50q174 0 256 174q10 23 21.5 34t38.5 11h166 q18 0 31.5 -12.5t13.5 -32.5q-2 -72 -44 -146.5t-113 -135t-166 -99.5t-204 -39q-96 0 -187 26.5t-162 79t-114 129t-43 177.5zM430 831v181q0 23 16.5 39t38.5 16h177q23 0 39 -16.5t16 -38.5v-181q0 -23 -16.5 -39t-38.5 -16h-177q-23 0 -39 16.5t-16 38.5z" />
<glyph unicode="&#xc0;" horiz-adv-x="1441" d="M27 55q0 8 2 15l501 1294q12 35 28.5 52.5t49.5 17.5h226q33 0 49 -17.5t28 -52.5l502 -1294q2 -6 2 -15q0 -23 -16.5 -39t-38.5 -16h-148q-41 0 -57 17.5t-22 33.5l-89 228h-647l-88 -228q-6 -16 -22.5 -33.5t-57.5 -17.5h-147q-23 0 -39 16.5t-16 38.5zM338 1802 q0 41 39 41h205q23 0 38 -6t37 -33l174 -209q10 -14 11 -26q0 -33 -33 -33h-123q-33 0 -51.5 10t-34.5 25l-252 207q-10 10 -10 24zM496 535h450l-225 583z" />
<glyph unicode="&#xc1;" horiz-adv-x="1441" d="M27 55q0 8 2 15l501 1294q12 35 28.5 52.5t49.5 17.5h226q33 0 49 -17.5t28 -52.5l502 -1294q2 -6 2 -15q0 -23 -16.5 -39t-38.5 -16h-148q-41 0 -57 17.5t-22 33.5l-89 228h-647l-88 -228q-6 -16 -22.5 -33.5t-57.5 -17.5h-147q-23 0 -39 16.5t-16 38.5zM496 535h450 l-225 583zM588 1569q0 12 10 26l174 209q23 27 38 33t38 6h205q39 0 39 -41q0 -14 -11 -24l-251 -207q-16 -14 -35 -24.5t-51 -10.5h-123q-33 0 -33 33z" />
<glyph unicode="&#xc2;" horiz-adv-x="1441" d="M27 55q0 8 2 15l501 1294q12 35 28.5 52.5t49.5 17.5h226q33 0 49 -17.5t28 -52.5l502 -1294q2 -6 2 -15q0 -23 -16.5 -39t-38.5 -16h-148q-41 0 -57 17.5t-22 33.5l-89 228h-647l-88 -228q-6 -16 -22.5 -33.5t-57.5 -17.5h-147q-23 0 -39 16.5t-16 38.5zM375 1569 q0 16 10 26l189 209q20 23 36.5 31t38.5 8h144q23 0 39 -8t36 -31l189 -209q10 -10 10 -26q0 -33 -33 -33h-98q-20 0 -32.5 5t-30.5 18l-152 96l-152 -96q-18 -12 -30.5 -17.5t-32.5 -5.5h-98q-33 0 -33 33zM496 535h450l-225 583z" />
<glyph unicode="&#xc3;" horiz-adv-x="1441" d="M27 55q0 8 2 15l501 1294q12 35 28.5 52.5t49.5 17.5h226q33 0 49 -17.5t28 -52.5l502 -1294q2 -6 2 -15q0 -23 -16.5 -39t-38.5 -16h-148q-41 0 -57 17.5t-22 33.5l-89 228h-647l-88 -228q-6 -16 -22.5 -33.5t-57.5 -17.5h-147q-23 0 -39 16.5t-16 38.5zM365 1575 q0 39 14.5 81t42 76.5t67.5 57t91 22.5q55 0 89 -11t59.5 -23.5t48 -23.5t53.5 -11q25 0 35 9t18 20.5t15.5 20.5t25.5 9h115q18 0 28.5 -11t10.5 -28q0 -39 -14.5 -81t-42 -76.5t-67.5 -57t-91 -22.5q-55 0 -89 11t-60 23.5t-48.5 23.5t-52.5 11q-25 0 -35 -9t-18.5 -20.5 t-15.5 -20.5t-26 -9h-114q-18 0 -28.5 11.5t-10.5 27.5zM496 535h450l-225 583z" />
<glyph unicode="&#xc4;" horiz-adv-x="1441" d="M27 55q0 8 2 15l501 1294q12 35 28.5 52.5t49.5 17.5h226q33 0 49 -17.5t28 -52.5l502 -1294q2 -6 2 -15q0 -23 -16.5 -39t-38.5 -16h-148q-41 0 -57 17.5t-22 33.5l-89 228h-647l-88 -228q-6 -16 -22.5 -33.5t-57.5 -17.5h-147q-23 0 -39 16.5t-16 38.5zM338 1591v181 q0 23 16.5 39t38.5 16h170q23 0 39 -16.5t16 -38.5v-181q0 -23 -16 -39t-39 -16h-170q-23 0 -39 16.5t-16 38.5zM496 535h450l-225 583zM823 1591v181q0 23 16.5 39t39.5 16h170q23 0 39 -16.5t16 -38.5v-181q0 -23 -16.5 -39t-38.5 -16h-170q-23 0 -39.5 16.5t-16.5 38.5z " />
<glyph unicode="&#xc5;" horiz-adv-x="1441" d="M27 55q0 8 2 15l501 1294q12 35 28.5 52.5t49.5 17.5h226q33 0 49 -17.5t28 -52.5l502 -1294q2 -6 2 -15q0 -23 -16.5 -39t-38.5 -16h-148q-41 0 -57 17.5t-22 33.5l-89 228h-647l-88 -228q-6 -16 -22.5 -33.5t-57.5 -17.5h-147q-23 0 -39 16.5t-16 38.5zM496 535h450 l-225 583zM537 1690q0 78 53 126t131 48t131.5 -48.5t53.5 -125.5q0 -78 -53.5 -126t-131.5 -48t-131 48t-53 126zM660 1690q0 -27 17.5 -44.5t43.5 -17.5q27 0 44.5 17.5t17.5 44.5t-17.5 44t-44.5 17t-44 -17t-17 -44z" />
<glyph unicode="&#xc6;" horiz-adv-x="2068" d="M0 55q0 10 8 25l756 1286q12 23 31.5 45.5t60.5 22.5h1047q23 0 39 -16.5t16 -39.5v-145q0 -23 -16.5 -39t-38.5 -16h-662v-326h617q23 0 39 -16.5t16 -38.5v-146q0 -23 -16.5 -39t-38.5 -16h-617v-340h678q23 0 39 -16.5t16 -38.5v-146q0 -23 -16 -39t-39 -16h-899 q-23 0 -39 16.5t-16 38.5v224h-535l-133 -228q-10 -16 -27.5 -33.5t-52.5 -17.5h-162q-23 0 -39 16.5t-16 38.5zM582 535h383v645z" />
<glyph unicode="&#xc7;" horiz-adv-x="1400" d="M104.5 717q-0.5 94 4.5 172q8 123 50 227.5t117.5 179t184 116.5t250.5 42q160 0 272.5 -43t186 -110.5t109.5 -152.5t42 -167q2 -25 -15.5 -40t-39.5 -15h-166q-20 0 -39 13t-23 40q-6 41 -28.5 80t-61.5 69.5t-98 50t-139 19.5t-139.5 -24.5t-99.5 -65.5t-61.5 -98.5 t-25.5 -120.5q-4 -78 -4 -172t4 -172q4 -66 25.5 -122t61.5 -97t99.5 -65.5t139.5 -24.5t139 19t99 50t62.5 70t28.5 80q4 27 21.5 40t38.5 13h166q23 0 40 -15.5t15 -39.5q-6 -84 -42 -167t-108.5 -150.5t-184.5 -110.5t-269 -45l-43 -95q12 8 30.5 14.5t40.5 6.5 q84 0 120 -51.5t36 -124.5q0 -74 -51 -127.5t-152 -53.5q-37 0 -72.5 10.5t-60 26t-33 34t8.5 34.5l28 27q16 14 26.5 14t23 -7t31 -15.5t48.5 -8.5q78 0 78 66q0 61 -78 61q-16 0 -31.5 -6t-28.5 -10t-25.5 -4t-24.5 12l-33 37q-12 16 -15 27.5t11 39.5l45 101 q-115 16 -202 63t-148.5 120t-96 168t-40.5 206q-4 78 -4.5 172z" />
<glyph unicode="&#xc8;" horiz-adv-x="1263" d="M160 55v1323q0 23 16.5 39.5t38.5 16.5h883q23 0 39 -16.5t16 -39.5v-145q0 -23 -16.5 -39t-38.5 -16h-662v-326h617q23 0 39 -16.5t16 -38.5v-146q0 -23 -16.5 -39t-38.5 -16h-617v-340h678q23 0 39 -16.5t16 -38.5v-146q0 -23 -16 -39t-39 -16h-899q-23 0 -39 16.5 t-16 38.5zM275 1802q0 41 39 41h205q23 0 38 -6t37 -33l174 -209q10 -14 11 -26q0 -33 -33 -33h-123q-33 0 -51.5 10t-34.5 25l-252 207q-10 10 -10 24z" />
<glyph unicode="&#xc9;" horiz-adv-x="1263" d="M160 55v1323q0 23 16.5 39.5t38.5 16.5h883q23 0 39 -16.5t16 -39.5v-145q0 -23 -16.5 -39t-38.5 -16h-662v-326h617q23 0 39 -16.5t16 -38.5v-146q0 -23 -16.5 -39t-38.5 -16h-617v-340h678q23 0 39 -16.5t16 -38.5v-146q0 -23 -16 -39t-39 -16h-899q-23 0 -39 16.5 t-16 38.5zM529 1569q0 12 10 26l174 209q23 27 38 33t38 6h205q39 0 39 -41q0 -14 -11 -24l-251 -207q-16 -14 -35 -24.5t-51 -10.5h-123q-33 0 -33 33z" />
<glyph unicode="&#xca;" horiz-adv-x="1263" d="M160 55v1323q0 23 16.5 39.5t38.5 16.5h883q23 0 39 -16.5t16 -39.5v-145q0 -23 -16.5 -39t-38.5 -16h-662v-326h617q23 0 39 -16.5t16 -38.5v-146q0 -23 -16.5 -39t-38.5 -16h-617v-340h678q23 0 39 -16.5t16 -38.5v-146q0 -23 -16 -39t-39 -16h-899q-23 0 -39 16.5 t-16 38.5zM318 1569q0 16 10 26l189 209q20 23 36.5 31t38.5 8h144q23 0 39 -8t36 -31l189 -209q10 -10 10 -26q0 -33 -33 -33h-98q-20 0 -32.5 5t-30.5 18l-152 96l-152 -96q-18 -12 -30.5 -17.5t-32.5 -5.5h-98q-33 0 -33 33z" />
<glyph unicode="&#xcb;" horiz-adv-x="1263" d="M160 55v1323q0 23 16.5 39.5t38.5 16.5h883q23 0 39 -16.5t16 -39.5v-145q0 -23 -16.5 -39t-38.5 -16h-662v-326h617q23 0 39 -16.5t16 -38.5v-146q0 -23 -16.5 -39t-38.5 -16h-617v-340h678q23 0 39 -16.5t16 -38.5v-146q0 -23 -16 -39t-39 -16h-899q-23 0 -39 16.5 t-16 38.5zM281 1591v181q0 23 16.5 39t38.5 16h170q23 0 39 -16.5t16 -38.5v-181q0 -23 -16 -39t-39 -16h-170q-23 0 -39 16.5t-16 38.5zM766 1591v181q0 23 16.5 39t39.5 16h170q23 0 39 -16.5t16 -38.5v-181q0 -23 -16.5 -39t-38.5 -16h-170q-23 0 -39.5 16.5t-16.5 38.5z " />
<glyph unicode="&#xcc;" horiz-adv-x="595" d="M-84 1802q0 41 39 41h205q23 0 38 -6t37 -33l174 -209q10 -14 11 -26q0 -33 -33 -33h-123q-33 0 -51.5 10t-34.5 25l-252 207q-10 10 -10 24zM160 55v1323q0 23 16.5 39.5t38.5 16.5h166q23 0 39 -16.5t16 -39.5v-1323q0 -23 -16.5 -39t-38.5 -16h-166q-23 0 -39 16.5 t-16 38.5z" />
<glyph unicode="&#xcd;" horiz-adv-x="595" d="M160 55v1323q0 23 16.5 39.5t38.5 16.5h166q23 0 39 -16.5t16 -39.5v-1323q0 -23 -16.5 -39t-38.5 -16h-166q-23 0 -39 16.5t-16 38.5zM182 1569q0 12 10 26l174 209q23 27 38 33t38 6h205q39 0 39 -41q0 -14 -11 -24l-251 -207q-16 -14 -35 -24.5t-51 -10.5h-123 q-33 0 -33 33z" />
<glyph unicode="&#xce;" horiz-adv-x="595" d="M-49 1569q0 16 10 26l189 209q20 23 36.5 31t38.5 8h144q23 0 39 -8t36 -31l189 -209q10 -10 10 -26q0 -33 -33 -33h-98q-20 0 -32.5 5t-30.5 18l-152 96l-152 -96q-18 -12 -30.5 -17.5t-32.5 -5.5h-98q-33 0 -33 33zM160 55v1323q0 23 16.5 39.5t38.5 16.5h166 q23 0 39 -16.5t16 -39.5v-1323q0 -23 -16.5 -39t-38.5 -16h-166q-23 0 -39 16.5t-16 38.5z" />
<glyph unicode="&#xcf;" horiz-adv-x="595" d="M-86 1591v181q0 23 16.5 39t38.5 16h170q23 0 39 -16.5t16 -38.5v-181q0 -23 -16 -39t-39 -16h-170q-23 0 -39 16.5t-16 38.5zM160 55v1323q0 23 16.5 39.5t38.5 16.5h166q23 0 39 -16.5t16 -39.5v-1323q0 -23 -16.5 -39t-38.5 -16h-166q-23 0 -39 16.5t-16 38.5z M399 1591v181q0 23 16.5 39t39.5 16h170q23 0 39 -16.5t16 -38.5v-181q0 -23 -16.5 -39t-38.5 -16h-170q-23 0 -39.5 16.5t-16.5 38.5z" />
<glyph unicode="&#xd0;" horiz-adv-x="1488" d="M43 662v129q0 23 16.5 39t38.5 16h109v532q0 23 16.5 39.5t38.5 16.5h506q152 0 263.5 -40t186 -114t114.5 -178.5t48 -233.5q8 -152 0 -303q-8 -129 -48 -233.5t-113.5 -178t-183 -113.5t-257.5 -40h-516q-23 0 -39 16.5t-16 38.5v551h-109q-23 0 -39 16.5t-16 39.5z M483 256h285q84 0 145.5 23.5t102.5 64.5t62.5 98.5t25.5 122.5q8 151 0 303q-4 66 -25.5 122.5t-63.5 98t-105.5 65.5t-151.5 24h-275v-332h219q23 0 39.5 -16.5t16.5 -38.5v-129q0 -23 -16.5 -39.5t-39.5 -16.5h-219v-350z" />
<glyph unicode="&#xd1;" horiz-adv-x="1447" d="M160 55v1323q0 23 16.5 39.5t38.5 16.5h143q35 0 53.5 -18.5t26.5 -29.5l574 -851v843q0 23 16 39.5t39 16.5h166q23 0 39 -16.5t16 -39.5v-1323q0 -23 -16.5 -39t-38.5 -16h-143q-35 0 -53.5 18.5t-26.5 28.5l-574 852v-844q0 -23 -16.5 -39t-38.5 -16h-166 q-23 0 -39 16.5t-16 38.5zM367 1575q0 39 14.5 81t42 76.5t67.5 57t91 22.5q55 0 89 -11t59.5 -23.5t48 -23.5t53.5 -11q25 0 35 9t18 20.5t15.5 20.5t25.5 9h115q18 0 28.5 -11t10.5 -28q0 -39 -14.5 -81t-42 -76.5t-67.5 -57t-91 -22.5q-55 0 -89 11t-60 23.5t-48.5 23.5 t-52.5 11q-25 0 -35 -9t-18.5 -20.5t-15.5 -20.5t-26 -9h-114q-18 0 -28.5 11.5t-10.5 27.5z" />
<glyph unicode="&#xd2;" d="M106 716q0 50 1.5 97t3.5 86q6 115 44 216.5t111.5 176t184 118.5t262.5 44q150 0 260 -43t184 -118.5t113 -176t45 -217.5q2 -39 3 -86t1 -97t-1 -97.5t-3 -86.5q-6 -115 -44 -216t-112 -175.5t-185.5 -117.5t-260.5 -43q-152 0 -262.5 43t-184 117.5t-111.5 176 t-44 215.5q-2 39 -3.5 86.5t-1.5 97.5zM334 1802q0 41 39 41h205q23 0 38 -6t37 -33l174 -209q10 -14 11 -26q0 -33 -33 -33h-123q-33 0 -51.5 10t-34.5 25l-252 207q-10 10 -10 24zM383 716q0 -95 4 -173q8 -147 95 -227t231 -80q143 0 230 79.5t95 227.5q4 78 4 173 t-4 173q-8 147 -95 228t-230 81t-230.5 -81t-95.5 -228q-4 -78 -4 -173z" />
<glyph unicode="&#xd3;" d="M106 716q0 50 1.5 97t3.5 86q6 115 44 216.5t111.5 176t184 118.5t262.5 44q150 0 260 -43t184 -118.5t113 -176t45 -217.5q2 -39 3 -86t1 -97t-1 -97.5t-3 -86.5q-6 -115 -44 -216t-112 -175.5t-185.5 -117.5t-260.5 -43q-152 0 -262.5 43t-184 117.5t-111.5 176 t-44 215.5q-2 39 -3.5 86.5t-1.5 97.5zM383 716q0 -95 4 -173q8 -147 95 -227t231 -80q143 0 230 79.5t95 227.5q4 78 4 173t-4 173q-8 147 -95 228t-230 81t-230.5 -81t-95.5 -228q-4 -78 -4 -173zM590 1569q0 12 10 26l174 209q23 27 38 33t38 6h205q39 0 39 -41 q0 -14 -11 -24l-251 -207q-16 -14 -35 -24.5t-51 -10.5h-123q-33 0 -33 33z" />
<glyph unicode="&#xd4;" d="M106 716q0 50 1.5 97t3.5 86q6 115 44 216.5t111.5 176t184 118.5t262.5 44q150 0 260 -43t184 -118.5t113 -176t45 -217.5q2 -39 3 -86t1 -97t-1 -97.5t-3 -86.5q-6 -115 -44 -216t-112 -175.5t-185.5 -117.5t-260.5 -43q-152 0 -262.5 43t-184 117.5t-111.5 176 t-44 215.5q-2 39 -3.5 86.5t-1.5 97.5zM367 1569q0 16 10 26l189 209q20 23 36.5 31t38.5 8h144q23 0 39 -8t36 -31l189 -209q10 -10 10 -26q0 -33 -33 -33h-98q-20 0 -32.5 5t-30.5 18l-152 96l-152 -96q-18 -12 -30.5 -17.5t-32.5 -5.5h-98q-33 0 -33 33zM383 716 q0 -95 4 -173q8 -147 95 -227t231 -80q143 0 230 79.5t95 227.5q4 78 4 173t-4 173q-8 147 -95 228t-230 81t-230.5 -81t-95.5 -228q-4 -78 -4 -173z" />
<glyph unicode="&#xd5;" d="M106 716q0 50 1.5 97t3.5 86q6 115 44 216.5t111.5 176t184 118.5t262.5 44q150 0 260 -43t184 -118.5t113 -176t45 -217.5q2 -39 3 -86t1 -97t-1 -97.5t-3 -86.5q-6 -115 -44 -216t-112 -175.5t-185.5 -117.5t-260.5 -43q-152 0 -262.5 43t-184 117.5t-111.5 176 t-44 215.5q-2 39 -3.5 86.5t-1.5 97.5zM356 1575q0 39 14.5 81t42 76.5t67.5 57t91 22.5q55 0 89 -11t59.5 -23.5t48 -23.5t53.5 -11q25 0 35 9t18 20.5t15.5 20.5t25.5 9h115q18 0 28.5 -11t10.5 -28q0 -39 -14.5 -81t-42 -76.5t-67.5 -57t-91 -22.5q-55 0 -89 11t-60 23.5 t-48.5 23.5t-52.5 11q-25 0 -35 -9t-18.5 -20.5t-15.5 -20.5t-26 -9h-114q-18 0 -28.5 11.5t-10.5 27.5zM383 716q0 -95 4 -173q8 -147 95 -227t231 -80q143 0 230 79.5t95 227.5q4 78 4 173t-4 173q-8 147 -95 228t-230 81t-230.5 -81t-95.5 -228q-4 -78 -4 -173z" />
<glyph unicode="&#xd6;" d="M106 716q0 50 1.5 97t3.5 86q6 115 44 216.5t111.5 176t184 118.5t262.5 44q150 0 260 -43t184 -118.5t113 -176t45 -217.5q2 -39 3 -86t1 -97t-1 -97.5t-3 -86.5q-6 -115 -44 -216t-112 -175.5t-185.5 -117.5t-260.5 -43q-152 0 -262.5 43t-184 117.5t-111.5 176 t-44 215.5q-2 39 -3.5 86.5t-1.5 97.5zM330 1591v181q0 23 16.5 39t38.5 16h170q23 0 39 -16.5t16 -38.5v-181q0 -23 -16 -39t-39 -16h-170q-23 0 -39 16.5t-16 38.5zM383 716q0 -95 4 -173q8 -147 95 -227t231 -80q143 0 230 79.5t95 227.5q4 78 4 173t-4 173 q-8 147 -95 228t-230 81t-230.5 -81t-95.5 -228q-4 -78 -4 -173zM815 1591v181q0 23 16.5 39t39.5 16h170q23 0 39 -16.5t16 -38.5v-181q0 -23 -16.5 -39t-38.5 -16h-170q-23 0 -39.5 16.5t-16.5 38.5z" />
<glyph unicode="&#xd8;" horiz-adv-x="1490" d="M29 397v99q0 51 45 67l65 25q-4 76 -3 160.5t5 150.5q6 115 44 216.5t112 176t184.5 118.5t261.5 44q125 0 222.5 -30.5t168 -84t117.5 -127t70 -161.5l72 28q14 6 22 6q18 0 30.5 -12t12.5 -31v-98q0 -51 -45 -67l-65 -27q2 -76 1 -164t-3 -154q-6 -115 -44 -216 t-112 -175.5t-185.5 -117.5t-261.5 -43q-127 0 -224 30.5t-168.5 85t-119 129t-69.5 162.5l-68 -27q-16 -6 -22 -6q-18 0 -30.5 12.5t-12.5 30.5zM414 696l647 254q-23 119 -106 183.5t-212 64.5q-143 0 -230 -81t-95 -228q-4 -43 -4 -92v-101zM424 489q23 -123 106.5 -188 t212.5 -65q143 0 230.5 80t95.5 227q2 45 4 96t0 104z" />
<glyph unicode="&#xd9;" horiz-adv-x="1472" d="M150 539v839q0 23 16 39.5t39 16.5h166q23 0 39 -16.5t16 -39.5v-829q0 -84 22.5 -143.5t63.5 -97.5t98.5 -55t124.5 -17q68 0 126.5 17t99 55t64.5 97.5t24 143.5v829q0 23 16 39.5t39 16.5h164q23 0 39 -16.5t16 -39.5v-839q0 -127 -37 -229.5t-110.5 -176.5 t-184 -113.5t-256.5 -39.5q-147 0 -256.5 39.5t-183.5 113.5t-109.5 176.5t-35.5 229.5zM363 1802q0 41 39 41h205q23 0 38 -6t37 -33l174 -209q10 -14 11 -26q0 -33 -33 -33h-123q-33 0 -51.5 10t-34.5 25l-252 207q-10 10 -10 24z" />
<glyph unicode="&#xda;" horiz-adv-x="1472" d="M150 539v839q0 23 16 39.5t39 16.5h166q23 0 39 -16.5t16 -39.5v-829q0 -84 22.5 -143.5t63.5 -97.5t98.5 -55t124.5 -17q68 0 126.5 17t99 55t64.5 97.5t24 143.5v829q0 23 16 39.5t39 16.5h164q23 0 39 -16.5t16 -39.5v-839q0 -127 -37 -229.5t-110.5 -176.5 t-184 -113.5t-256.5 -39.5q-147 0 -256.5 39.5t-183.5 113.5t-109.5 176.5t-35.5 229.5zM604 1569q0 12 10 26l174 209q23 27 38 33t38 6h205q39 0 39 -41q0 -14 -11 -24l-251 -207q-16 -14 -35 -24.5t-51 -10.5h-123q-33 0 -33 33z" />
<glyph unicode="&#xdb;" horiz-adv-x="1472" d="M150 539v839q0 23 16 39.5t39 16.5h166q23 0 39 -16.5t16 -39.5v-829q0 -84 22.5 -143.5t63.5 -97.5t98.5 -55t124.5 -17q68 0 126.5 17t99 55t64.5 97.5t24 143.5v829q0 23 16 39.5t39 16.5h164q23 0 39 -16.5t16 -39.5v-839q0 -127 -37 -229.5t-110.5 -176.5 t-184 -113.5t-256.5 -39.5q-147 0 -256.5 39.5t-183.5 113.5t-109.5 176.5t-35.5 229.5zM389 1569q0 16 10 26l189 209q20 23 36.5 31t38.5 8h144q23 0 39 -8t36 -31l189 -209q10 -10 10 -26q0 -33 -33 -33h-98q-20 0 -32.5 5t-30.5 18l-152 96l-152 -96 q-18 -12 -30.5 -17.5t-32.5 -5.5h-98q-33 0 -33 33z" />
<glyph unicode="&#xdc;" horiz-adv-x="1472" d="M150 539v839q0 23 16 39.5t39 16.5h166q23 0 39 -16.5t16 -39.5v-829q0 -84 22.5 -143.5t63.5 -97.5t98.5 -55t124.5 -17q68 0 126.5 17t99 55t64.5 97.5t24 143.5v829q0 23 16 39.5t39 16.5h164q23 0 39 -16.5t16 -39.5v-839q0 -127 -37 -229.5t-110.5 -176.5 t-184 -113.5t-256.5 -39.5q-147 0 -256.5 39.5t-183.5 113.5t-109.5 176.5t-35.5 229.5zM352 1591v181q0 23 16.5 39t38.5 16h170q23 0 39 -16.5t16 -38.5v-181q0 -23 -16 -39t-39 -16h-170q-23 0 -39 16.5t-16 38.5zM837 1591v181q0 23 16.5 39t39.5 16h170q23 0 39 -16.5 t16 -38.5v-181q0 -23 -16.5 -39t-38.5 -16h-170q-23 0 -39.5 16.5t-16.5 38.5z" />
<glyph unicode="&#xdd;" horiz-adv-x="1355" d="M51 1378q0 23 16.5 39.5t38.5 16.5h154q41 0 61.5 -20.5t24.5 -31.5l332 -579l332 579q4 10 24.5 31t61.5 21h153q23 0 39.5 -16.5t16.5 -39.5q0 -10 -5 -18l-485 -854v-451q0 -23 -16.5 -39t-38.5 -16h-164q-23 0 -39 16.5t-16 38.5v451l-486 854q-4 8 -4 18zM561 1569 q0 12 10 26l174 209q23 27 38 33t38 6h205q39 0 39 -41q0 -14 -11 -24l-251 -207q-16 -14 -35 -24.5t-51 -10.5h-123q-33 0 -33 33z" />
<glyph unicode="&#xde;" horiz-adv-x="1355" d="M160 55v1323q0 23 16.5 39.5t38.5 16.5h166q23 0 39 -16.5t16 -39.5v-198h328q248 0 385 -117t137 -342t-137 -344t-385 -119h-328v-203q0 -23 -16.5 -39t-38.5 -16h-166q-23 0 -39 16.5t-16 38.5zM436 514h318q117 0 186.5 46t69.5 161t-70 159t-186 44h-318v-410z" />
<glyph unicode="&#xdf;" horiz-adv-x="1265" d="M141 55v869q0 254 127 392t375 138q123 0 217 -34t158.5 -91t97.5 -132t33 -157q0 -55 -11.5 -98t-28.5 -77t-39.5 -61.5t-45.5 -47.5q59 -47 102 -125t43 -195q0 -74 -26.5 -151.5t-87 -140t-158.5 -103.5t-242 -41h-69q-23 0 -39.5 16.5t-16.5 38.5v135q0 23 16.5 39.5 t39.5 16.5h69q104 0 176 45t72 145q0 96 -67.5 144.5t-180.5 48.5h-80q-45 0 -45 45v155q0 45 45 45h68q109 0 174.5 36t65.5 130q0 82 -65.5 125t-174.5 43q-53 0 -97 -13t-75 -45t-47 -87t-16 -139v-869q0 -23 -16.5 -39t-39.5 -16h-155q-23 0 -39.5 16.5t-16.5 38.5z" />
<glyph unicode="&#xe0;" horiz-adv-x="1169" d="M70 299q0 141 100 221t268 109l334 57q0 84 -55 119t-137 35q-51 0 -80 -14.5t-56 -39.5q-18 -16 -33.5 -22t-33.5 -6h-191q-20 0 -34.5 12.5t-10.5 32.5q8 43 38 92t84 92t133 70.5t184 27.5q104 0 188 -27.5t144.5 -80.5t93 -134t32.5 -186v-602q0 -23 -16 -39t-39 -16 h-156q-23 0 -39 16.5t-16 38.5v68q-43 -59 -124 -101t-206 -42q-88 0 -157.5 23.5t-116.5 66.5t-72.5 101t-25.5 128zM209 1485q0 41 39 41h194q23 0 38.5 -6.5t37.5 -32.5l174 -209q10 -14 10 -27q0 -33 -32 -32h-113q-33 0 -51.5 10t-34.5 24l-252 207q-10 10 -10 25z M336 309q0 -43 44 -63.5t103 -20.5q70 0 124.5 19.5t91 52.5t55 74t18.5 84v20l-278 -49q-84 -14 -121 -42t-37 -75z" />
<glyph unicode="&#xe1;" horiz-adv-x="1169" d="M70 299q0 141 100 221t268 109l334 57q0 84 -55 119t-137 35q-51 0 -80 -14.5t-56 -39.5q-18 -16 -33.5 -22t-33.5 -6h-191q-20 0 -34.5 12.5t-10.5 32.5q8 43 38 92t84 92t133 70.5t184 27.5q104 0 188 -27.5t144.5 -80.5t93 -134t32.5 -186v-602q0 -23 -16 -39t-39 -16 h-156q-23 0 -39 16.5t-16 38.5v68q-43 -59 -124 -101t-206 -42q-88 0 -157.5 23.5t-116.5 66.5t-72.5 101t-25.5 128zM336 309q0 -43 44 -63.5t103 -20.5q70 0 124.5 19.5t91 52.5t55 74t18.5 84v20l-278 -49q-84 -14 -121 -42t-37 -75zM457 1251q0 12 10 27l174 209 q23 27 38 33t38 6h195q39 0 38 -41q0 -14 -10 -25l-252 -207q-16 -14 -34.5 -24t-51.5 -10h-112q-33 0 -33 32z" />
<glyph unicode="&#xe2;" horiz-adv-x="1169" d="M70 299q0 141 100 221t268 109l334 57q0 84 -55 119t-137 35q-51 0 -80 -14.5t-56 -39.5q-18 -16 -33.5 -22t-33.5 -6h-191q-20 0 -34.5 12.5t-10.5 32.5q8 43 38 92t84 92t133 70.5t184 27.5q104 0 188 -27.5t144.5 -80.5t93 -134t32.5 -186v-602q0 -23 -16 -39t-39 -16 h-156q-23 0 -39 16.5t-16 38.5v68q-43 -59 -124 -101t-206 -42q-88 0 -157.5 23.5t-116.5 66.5t-72.5 101t-25.5 128zM238 1251q0 16 10 27l189 209q20 23 36.5 31t38.5 8h123q23 0 39 -8.5t37 -30.5l188 -209q10 -10 11 -27q0 -33 -33 -32h-88q-20 0 -32.5 5t-31.5 17 l-151 96l-152 -96q-18 -12 -30.5 -17t-32.5 -5h-88q-33 0 -33 32zM336 309q0 -43 44 -63.5t103 -20.5q70 0 124.5 19.5t91 52.5t55 74t18.5 84v20l-278 -49q-84 -14 -121 -42t-37 -75z" />
<glyph unicode="&#xe3;" horiz-adv-x="1169" d="M70 299q0 141 100 221t268 109l334 57q0 84 -55 119t-137 35q-51 0 -80 -14.5t-56 -39.5q-18 -16 -33.5 -22t-33.5 -6h-191q-20 0 -34.5 12.5t-10.5 32.5q8 43 38 92t84 92t133 70.5t184 27.5q104 0 188 -27.5t144.5 -80.5t93 -134t32.5 -186v-602q0 -23 -16 -39t-39 -16 h-156q-23 0 -39 16.5t-16 38.5v68q-43 -59 -124 -101t-206 -42q-88 0 -157.5 23.5t-116.5 66.5t-72.5 101t-25.5 128zM227 1257q0 39 14.5 81t42 77t67.5 57.5t91 22.5t83 -11t55.5 -23.5t43 -24t47.5 -11.5q25 0 35 9.5t18.5 20.5t15.5 20.5t26 9.5h114q18 0 28.5 -11.5 t10.5 -27.5q0 -39 -14.5 -81t-42 -77t-67.5 -57.5t-91 -22.5q-53 0 -84 11.5t-54.5 23.5t-43 23.5t-47.5 11.5q-25 0 -35 -9t-18.5 -20.5t-15.5 -20.5t-26 -9h-114q-18 0 -28.5 11t-10.5 27zM336 309q0 -43 44 -63.5t103 -20.5q70 0 124.5 19.5t91 52.5t55 74t18.5 84v20 l-278 -49q-84 -14 -121 -42t-37 -75z" />
<glyph unicode="&#xe4;" horiz-adv-x="1169" d="M70 299q0 141 100 221t268 109l334 57q0 84 -55 119t-137 35q-51 0 -80 -14.5t-56 -39.5q-18 -16 -33.5 -22t-33.5 -6h-191q-20 0 -34.5 12.5t-10.5 32.5q8 43 38 92t84 92t133 70.5t184 27.5q104 0 188 -27.5t144.5 -80.5t93 -134t32.5 -186v-602q0 -23 -16 -39t-39 -16 h-156q-23 0 -39 16.5t-16 38.5v68q-43 -59 -124 -101t-206 -42q-88 0 -157.5 23.5t-116.5 66.5t-72.5 101t-25.5 128zM221 1274v180q0 23 16.5 39t38.5 16h170q23 0 39 -16t16 -39v-180q0 -23 -16 -39t-39 -16h-170q-23 0 -39 16t-16 39zM336 309q0 -43 44 -63.5t103 -20.5 q70 0 124.5 19.5t91 52.5t55 74t18.5 84v20l-278 -49q-84 -14 -121 -42t-37 -75zM645 1274v180q0 23 16.5 39t38.5 16h170q23 0 39 -16t16 -39v-180q0 -23 -16 -39t-39 -16h-170q-23 0 -39 16t-16 39z" />
<glyph unicode="&#xe5;" horiz-adv-x="1169" d="M70 299q0 141 100 221t268 109l334 57q0 84 -55 119t-137 35q-51 0 -80 -14.5t-56 -39.5q-18 -16 -33.5 -22t-33.5 -6h-191q-20 0 -34.5 12.5t-10.5 32.5q8 43 38 92t84 92t133 70.5t184 27.5q104 0 188 -27.5t144.5 -80.5t93 -134t32.5 -186v-602q0 -23 -16 -39t-39 -16 h-156q-23 0 -39 16.5t-16 38.5v68q-43 -59 -124 -101t-206 -42q-88 0 -157.5 23.5t-116.5 66.5t-72.5 101t-25.5 128zM336 309q0 -43 44 -63.5t103 -20.5q70 0 124.5 19.5t91 52.5t55 74t18.5 84v20l-278 -49q-84 -14 -121 -42t-37 -75zM389 1382q0 78 53 126t131 48 t131.5 -48t53.5 -126t-53.5 -126t-131.5 -48t-131 48t-53 126zM512 1382q0 -27 17.5 -44t43.5 -17q27 0 44.5 17.5t17.5 43.5q0 27 -17.5 44.5t-44.5 17.5t-44 -17.5t-17 -44.5z" />
<glyph unicode="&#xe6;" horiz-adv-x="1859" d="M70 299q0 141 100 221t268 109l334 57q0 84 -55 119t-137 35q-51 0 -80 -14.5t-56 -39.5q-18 -16 -33.5 -22t-33.5 -6h-191q-20 0 -34.5 12.5t-10.5 32.5q8 43 38 92t84 92t133 70.5t184 27.5q231 0 356 -131q63 61 148 96t190 35q115 0 208 -42t158.5 -112.5 t101.5 -165.5t36 -200v-92q0 -23 -16.5 -39t-39.5 -16h-684q0 -47 19.5 -83t52.5 -60.5t76 -37t88 -12.5q66 0 104.5 12.5t63.5 34.5q23 20 33 24.5t34 4.5h191q20 0 34.5 -12.5t10.5 -32.5q-4 -25 -35 -71t-89 -92t-145 -79.5t-202 -33.5q-127 0 -225.5 48t-163.5 134 q-90 -100 -200 -141t-243 -41q-88 0 -157.5 23.5t-116.5 66.5t-72.5 101t-25.5 128zM336 309q0 -43 44 -63.5t103 -20.5q70 0 124.5 19.5t91 52.5t55 74t18.5 84v20l-278 -49q-84 -14 -121 -42t-37 -75zM1038 651h463q-4 31 -15 65t-37 61.5t-67.5 45t-107.5 17.5 q-59 0 -101.5 -17.5t-71 -45t-44 -61.5t-19.5 -65z" />
<glyph unicode="&#xe7;" horiz-adv-x="1181" d="M86 530.5q0 44.5 4 83.5q6 94 45 180.5t104.5 151t156.5 102t204 37.5q131 0 225.5 -38.5t154.5 -95t89 -118t31 -104.5q2 -23 -15.5 -39t-40.5 -16h-155q-23 0 -39 18.5t-29 36.5q-16 25 -33.5 44.5t-42 34.5t-59.5 23.5t-86 8.5q-43 0 -84 -13.5t-74.5 -41t-56.5 -73 t-29 -108.5q-4 -31 -4 -71.5t4 -71.5q6 -63 29 -108.5t56.5 -73t74.5 -41t84 -13.5q51 0 86 8.5t59.5 23.5t42 34.5t33.5 44.5q12 18 28.5 36.5t39.5 18.5h155q23 0 40.5 -16.5t15.5 -38.5q-2 -43 -31 -103.5t-87 -116t-148.5 -95t-219.5 -41.5l-43 -95q12 8 31 14.5t41 6.5 q84 0 120 -51.5t36 -124.5q0 -74 -51.5 -127.5t-151.5 -53.5q-37 0 -73 10.5t-60.5 26t-32.5 34t8 34.5l29 27q16 14 26.5 14t22.5 -7t30.5 -15.5t49.5 -8.5q78 0 78 66q0 61 -78 61q-16 0 -31.5 -6t-29 -10t-25.5 -4t-25 12l-32 37q-12 16 -15.5 27.5t11.5 39.5l47 103 q-90 16 -162 59t-124 104.5t-83 137.5t-37 158q-4 37 -4 81.5z" />
<glyph unicode="&#xe8;" horiz-adv-x="1175" d="M88 532q0 115 35 216.5t100.5 176t158.5 117.5t208 43t208 -42t158.5 -112.5t101.5 -165.5t36 -200v-92q0 -23 -16.5 -39t-39.5 -16h-684q0 -47 19.5 -83t52.5 -60.5t76 -37t88 -12.5q66 0 106.5 13.5t67.5 33.5q23 16 37 22.5t39 6.5h164q23 0 40 -16.5t15 -38.5 q-2 -29 -32 -74t-89 -88t-146 -73.5t-202 -30.5t-208 39.5t-158.5 113.5t-100.5 175t-35 224zM213 1485q0 41 39 41h194q23 0 38.5 -6.5t37.5 -32.5l174 -209q10 -14 10 -27q0 -33 -32 -32h-113q-33 0 -51.5 10t-34.5 24l-252 207q-10 10 -10 25zM354 651h463q-4 31 -15 65 t-37 61.5t-67.5 45t-107.5 17.5q-59 0 -101.5 -17.5t-71 -45t-44 -61.5t-19.5 -65z" />
<glyph unicode="&#xe9;" horiz-adv-x="1175" d="M88 532q0 115 35 216.5t100.5 176t158.5 117.5t208 43t208 -42t158.5 -112.5t101.5 -165.5t36 -200v-92q0 -23 -16.5 -39t-39.5 -16h-684q0 -47 19.5 -83t52.5 -60.5t76 -37t88 -12.5q66 0 106.5 13.5t67.5 33.5q23 16 37 22.5t39 6.5h164q23 0 40 -16.5t15 -38.5 q-2 -29 -32 -74t-89 -88t-146 -73.5t-202 -30.5t-208 39.5t-158.5 113.5t-100.5 175t-35 224zM354 651h463q-4 31 -15 65t-37 61.5t-67.5 45t-107.5 17.5q-59 0 -101.5 -17.5t-71 -45t-44 -61.5t-19.5 -65zM475 1251q0 12 10 27l174 209q23 27 38 33t38 6h195q39 0 38 -41 q0 -14 -10 -25l-252 -207q-16 -14 -34.5 -24t-51.5 -10h-112q-33 0 -33 32z" />
<glyph unicode="&#xea;" horiz-adv-x="1175" d="M88 532q0 115 35 216.5t100.5 176t158.5 117.5t208 43t208 -42t158.5 -112.5t101.5 -165.5t36 -200v-92q0 -23 -16.5 -39t-39.5 -16h-684q0 -47 19.5 -83t52.5 -60.5t76 -37t88 -12.5q66 0 106.5 13.5t67.5 33.5q23 16 37 22.5t39 6.5h164q23 0 40 -16.5t15 -38.5 q-2 -29 -32 -74t-89 -88t-146 -73.5t-202 -30.5t-208 39.5t-158.5 113.5t-100.5 175t-35 224zM254 1251q0 16 10 27l189 209q20 23 36.5 31t38.5 8h123q23 0 39 -8.5t37 -30.5l188 -209q10 -10 11 -27q0 -33 -33 -32h-88q-20 0 -32.5 5t-31.5 17l-151 96l-152 -96 q-18 -12 -30.5 -17t-32.5 -5h-88q-33 0 -33 32zM354 651h463q-4 31 -15 65t-37 61.5t-67.5 45t-107.5 17.5q-59 0 -101.5 -17.5t-71 -45t-44 -61.5t-19.5 -65z" />
<glyph unicode="&#xeb;" horiz-adv-x="1175" d="M88 532q0 115 35 216.5t100.5 176t158.5 117.5t208 43t208 -42t158.5 -112.5t101.5 -165.5t36 -200v-92q0 -23 -16.5 -39t-39.5 -16h-684q0 -47 19.5 -83t52.5 -60.5t76 -37t88 -12.5q66 0 106.5 13.5t67.5 33.5q23 16 37 22.5t39 6.5h164q23 0 40 -16.5t15 -38.5 q-2 -29 -32 -74t-89 -88t-146 -73.5t-202 -30.5t-208 39.5t-158.5 113.5t-100.5 175t-35 224zM238 1274v180q0 23 16.5 39t38.5 16h170q23 0 39 -16t16 -39v-180q0 -23 -16 -39t-39 -16h-170q-23 0 -39 16t-16 39zM354 651h463q-4 31 -15 65t-37 61.5t-67.5 45t-107.5 17.5 q-59 0 -101.5 -17.5t-71 -45t-44 -61.5t-19.5 -65zM662 1274v180q0 23 16.5 39t38.5 16h170q23 0 39 -16t16 -39v-180q0 -23 -16 -39t-39 -16h-170q-23 0 -39 16t-16 39z" />
<glyph unicode="&#xec;" horiz-adv-x="548" d="M-100 1485q0 41 39 41h194q23 0 38.5 -6.5t37.5 -32.5l174 -209q10 -14 10 -27q0 -33 -32 -32h-113q-33 0 -51.5 10t-34.5 24l-252 207q-10 10 -10 25zM141 55v955q0 23 16.5 39t39.5 16h155q23 0 39.5 -16.5t16.5 -38.5v-955q0 -23 -16.5 -39t-39.5 -16h-155 q-23 0 -39.5 16.5t-16.5 38.5z" />
<glyph unicode="&#xed;" horiz-adv-x="548" d="M141 55v955q0 23 16.5 39t39.5 16h155q23 0 39.5 -16.5t16.5 -38.5v-955q0 -23 -16.5 -39t-39.5 -16h-155q-23 0 -39.5 16.5t-16.5 38.5zM158 1251q0 12 10 27l174 209q23 27 38 33t38 6h195q39 0 38 -41q0 -14 -10 -25l-252 -207q-16 -14 -34.5 -24t-51.5 -10h-112 q-33 0 -33 32z" />
<glyph unicode="&#xee;" horiz-adv-x="548" d="M-61 1251q0 16 10 27l189 209q20 23 36.5 31t38.5 8h123q23 0 39 -8.5t37 -30.5l188 -209q10 -10 11 -27q0 -33 -33 -32h-88q-20 0 -32.5 5t-31.5 17l-151 96l-152 -96q-18 -12 -30.5 -17t-32.5 -5h-88q-33 0 -33 32zM141 55v955q0 23 16.5 39t39.5 16h155 q23 0 39.5 -16.5t16.5 -38.5v-955q0 -23 -16.5 -39t-39.5 -16h-155q-23 0 -39.5 16.5t-16.5 38.5z" />
<glyph unicode="&#xef;" horiz-adv-x="548" d="M-78 1274v180q0 23 16.5 39t38.5 16h170q23 0 39 -16t16 -39v-180q0 -23 -16 -39t-39 -16h-170q-23 0 -39 16t-16 39zM141 55v955q0 23 16.5 39t39.5 16h155q23 0 39.5 -16.5t16.5 -38.5v-955q0 -23 -16.5 -39t-39.5 -16h-155q-23 0 -39.5 16.5t-16.5 38.5zM346 1274v180 q0 23 16.5 39t38.5 16h170q23 0 39 -16t16 -39v-180q0 -23 -16 -39t-39 -16h-170q-23 0 -39 16t-16 39z" />
<glyph unicode="&#xf0;" horiz-adv-x="1212" d="M86 471q0 125 40 217t109.5 153.5t164 91.5t200.5 30q80 0 158 -19q-33 68 -80 131l-189 -74q-16 -6 -22 -6q-18 0 -30.5 12.5t-12.5 30.5v99q0 51 45 67l68 27q-33 29 -67 58.5t-71 58.5q-23 16 -28.5 26t-5.5 19q0 41 41 41h217q25 0 41 -7.5t32 -19.5l88 -80l189 74 q14 6 22 6q18 0 30.5 -12.5t12.5 -30.5v-98q0 -51 -45 -68l-67 -27q90 -121 139 -280.5t49 -398.5q0 -133 -40 -229.5t-109.5 -159t-163.5 -93t-201 -30.5q-106 0 -200.5 29.5t-164 91t-109.5 153.5t-40 217zM352 471q0 -102 63.5 -174t184.5 -72t184.5 72t63.5 174 t-63.5 174t-184.5 72t-184.5 -72t-63.5 -174z" />
<glyph unicode="&#xf1;" horiz-adv-x="1271" d="M141 55v955q0 23 16.5 39t39.5 16h155q23 0 39.5 -16.5t16.5 -38.5v-47q53 53 124.5 87.5t169.5 34.5q125 0 209 -38.5t135.5 -104t73 -153t21.5 -183.5v-551q0 -23 -16.5 -39t-39.5 -16h-155q-23 0 -39.5 16.5t-16.5 38.5v520q0 123 -57 197t-176 74q-109 0 -171 -74 t-62 -197v-520q0 -23 -16.5 -39t-39.5 -16h-155q-23 0 -39.5 16.5t-16.5 38.5zM295 1257q0 39 14.5 81t42 77t67.5 57.5t91 22.5t83 -11t55.5 -23.5t43 -24t47.5 -11.5q25 0 35 9.5t18.5 20.5t15.5 20.5t26 9.5h114q18 0 28.5 -11.5t10.5 -27.5q0 -39 -14.5 -81t-42 -77 t-67.5 -57.5t-91 -22.5q-53 0 -84 11.5t-54.5 23.5t-43 23.5t-47.5 11.5q-25 0 -35 -9t-18.5 -20.5t-15.5 -20.5t-26 -9h-114q-18 0 -28.5 11t-10.5 27z" />
<glyph unicode="&#xf2;" horiz-adv-x="1218" d="M92 530.5q0 28.5 1 57t3 47.5q6 94 46 176t106.5 143.5t157.5 96t204 34.5t204 -34.5t157.5 -96t106.5 -143.5t46 -176q2 -18 2 -47v-57.5v-56.5t-2 -46q-8 -94 -47 -176t-105.5 -142.5t-157.5 -95t-204 -34.5t-204 34.5t-157.5 95t-105.5 142.5t-47 176q-2 18 -3 46 t-1 56.5zM232 1485q0 41 39 41h194q23 0 38.5 -6.5t37.5 -32.5l174 -209q10 -14 10 -27q0 -33 -32 -32h-113q-33 0 -51.5 10t-34.5 24l-252 207q-10 10 -10 25zM358 532.5q0 -26.5 1 -52t3 -40.5q6 -63 30 -105t58.5 -66.5t75.5 -34t84 -9.5t84 9.5t76 34t58.5 66.5 t29.5 105q2 14 2 40v52.5v51.5t-2 41q-6 63 -29.5 105t-58.5 66.5t-76 34t-84 9.5t-84 -9.5t-75.5 -34t-58 -66.5t-30.5 -105q-2 -16 -3 -41t-1 -51.5z" />
<glyph unicode="&#xf3;" horiz-adv-x="1218" d="M92 530.5q0 28.5 1 57t3 47.5q6 94 46 176t106.5 143.5t157.5 96t204 34.5t204 -34.5t157.5 -96t106.5 -143.5t46 -176q2 -18 2 -47v-57.5v-56.5t-2 -46q-8 -94 -47 -176t-105.5 -142.5t-157.5 -95t-204 -34.5t-204 34.5t-157.5 95t-105.5 142.5t-47 176q-2 18 -3 46 t-1 56.5zM358 532.5q0 -26.5 1 -52t3 -40.5q6 -63 30 -105t58.5 -66.5t75.5 -34t84 -9.5t84 9.5t76 34t58.5 66.5t29.5 105q2 14 2 40v52.5v51.5t-2 41q-6 63 -29.5 105t-58.5 66.5t-76 34t-84 9.5t-84 -9.5t-75.5 -34t-58 -66.5t-30.5 -105q-2 -16 -3 -41t-1 -51.5z M500 1251q0 12 10 27l174 209q23 27 38 33t38 6h195q39 0 38 -41q0 -14 -10 -25l-252 -207q-16 -14 -34.5 -24t-51.5 -10h-112q-33 0 -33 32z" />
<glyph unicode="&#xf4;" horiz-adv-x="1218" d="M92 530.5q0 28.5 1 57t3 47.5q6 94 46 176t106.5 143.5t157.5 96t204 34.5t204 -34.5t157.5 -96t106.5 -143.5t46 -176q2 -18 2 -47v-57.5v-56.5t-2 -46q-8 -94 -47 -176t-105.5 -142.5t-157.5 -95t-204 -34.5t-204 34.5t-157.5 95t-105.5 142.5t-47 176q-2 18 -3 46 t-1 56.5zM275 1251q0 16 10 27l189 209q20 23 36.5 31t38.5 8h123q23 0 39 -8.5t37 -30.5l188 -209q10 -10 11 -27q0 -33 -33 -32h-88q-20 0 -32.5 5t-31.5 17l-151 96l-152 -96q-18 -12 -30.5 -17t-32.5 -5h-88q-33 0 -33 32zM358 532.5q0 -26.5 1 -52t3 -40.5 q6 -63 30 -105t58.5 -66.5t75.5 -34t84 -9.5t84 9.5t76 34t58.5 66.5t29.5 105q2 14 2 40v52.5v51.5t-2 41q-6 63 -29.5 105t-58.5 66.5t-76 34t-84 9.5t-84 -9.5t-75.5 -34t-58 -66.5t-30.5 -105q-2 -16 -3 -41t-1 -51.5z" />
<glyph unicode="&#xf5;" horiz-adv-x="1218" d="M92 530.5q0 28.5 1 57t3 47.5q6 94 46 176t106.5 143.5t157.5 96t204 34.5t204 -34.5t157.5 -96t106.5 -143.5t46 -176q2 -18 2 -47v-57.5v-56.5t-2 -46q-8 -94 -47 -176t-105.5 -142.5t-157.5 -95t-204 -34.5t-204 34.5t-157.5 95t-105.5 142.5t-47 176q-2 18 -3 46 t-1 56.5zM264 1257q0 39 14.5 81t42 77t67.5 57.5t91 22.5t83 -11t55.5 -23.5t43 -24t47.5 -11.5q25 0 35 9.5t18.5 20.5t15.5 20.5t26 9.5h114q18 0 28.5 -11.5t10.5 -27.5q0 -39 -14.5 -81t-42 -77t-67.5 -57.5t-91 -22.5q-53 0 -84 11.5t-54.5 23.5t-43 23.5t-47.5 11.5 q-25 0 -35 -9t-18.5 -20.5t-15.5 -20.5t-26 -9h-114q-18 0 -28.5 11t-10.5 27zM358 532.5q0 -26.5 1 -52t3 -40.5q6 -63 30 -105t58.5 -66.5t75.5 -34t84 -9.5t84 9.5t76 34t58.5 66.5t29.5 105q2 14 2 40v52.5v51.5t-2 41q-6 63 -29.5 105t-58.5 66.5t-76 34t-84 9.5 t-84 -9.5t-75.5 -34t-58 -66.5t-30.5 -105q-2 -16 -3 -41t-1 -51.5z" />
<glyph unicode="&#xf6;" horiz-adv-x="1218" d="M92 530.5q0 28.5 1 57t3 47.5q6 94 46 176t106.5 143.5t157.5 96t204 34.5t204 -34.5t157.5 -96t106.5 -143.5t46 -176q2 -18 2 -47v-57.5v-56.5t-2 -46q-8 -94 -47 -176t-105.5 -142.5t-157.5 -95t-204 -34.5t-204 34.5t-157.5 95t-105.5 142.5t-47 176q-2 18 -3 46 t-1 56.5zM258 1274v180q0 23 16.5 39t38.5 16h170q23 0 39 -16t16 -39v-180q0 -23 -16 -39t-39 -16h-170q-23 0 -39 16t-16 39zM358 532.5q0 -26.5 1 -52t3 -40.5q6 -63 30 -105t58.5 -66.5t75.5 -34t84 -9.5t84 9.5t76 34t58.5 66.5t29.5 105q2 14 2 40v52.5v51.5t-2 41 q-6 63 -29.5 105t-58.5 66.5t-76 34t-84 9.5t-84 -9.5t-75.5 -34t-58 -66.5t-30.5 -105q-2 -16 -3 -41t-1 -51.5zM682 1274v180q0 23 16.5 39t38.5 16h170q23 0 39 -16t16 -39v-180q0 -23 -16 -39t-39 -16h-170q-23 0 -39 16t-16 39z" />
<glyph unicode="&#xf7;" horiz-adv-x="1071" d="M86 549v135q0 23 16.5 39t38.5 16h789q23 0 39 -16t16 -39v-135q0 -23 -16.5 -39t-38.5 -16h-789q-23 0 -39 16t-16 39zM385 156v200q0 23 16.5 39.5t38.5 16.5h191q23 0 39 -16.5t16 -39.5v-200q0 -23 -16.5 -39.5t-38.5 -16.5h-191q-23 0 -39 16.5t-16 39.5zM385 872 v201q0 23 16.5 39t38.5 16h191q23 0 39 -16t16 -39v-201q0 -23 -16.5 -39t-38.5 -16h-191q-23 0 -39 16.5t-16 38.5z" />
<glyph unicode="&#xf8;" horiz-adv-x="1290" d="M29 250v98q0 51 45 68l55 20q0 20 -1 47t-1 54.5t1 53t3 44.5q6 94 46 176t106.5 143.5t157.5 96t204 34.5q166 0 285 -73.5t178 -192.5l86 35q14 6 23 6q18 0 30.5 -12t12.5 -31v-98q0 -51 -46 -68l-55 -22q2 -20 2 -47v-55.5v-54.5t-2 -44q-8 -94 -47 -176 t-105.5 -142.5t-157.5 -95t-204 -34.5q-166 0 -285.5 73.5t-179.5 192.5l-86 -33q-16 -6 -22 -6q-18 0 -30.5 12t-12.5 31zM393 541l471 184q-35 66 -94 90.5t-125 24.5q-43 0 -84 -9.5t-75.5 -34t-58.5 -66.5t-30 -105q-2 -14 -3 -37t-1 -47zM424 342q33 -68 94.5 -92.5 t126.5 -24.5q43 0 84 9.5t76 34t58.5 66.5t29.5 105q2 14 2 37v49z" />
<glyph unicode="&#xf9;" horiz-adv-x="1251" d="M131 459v551q0 23 16.5 39t38.5 16h156q23 0 39 -16.5t16 -38.5v-521q0 -123 52.5 -196.5t171.5 -73.5q109 0 166 74t57 196v521q0 23 16.5 39t38.5 16h156q23 0 39 -16.5t16 -38.5v-955q0 -23 -16.5 -39t-38.5 -16h-156q-23 0 -39 16.5t-16 38.5v47q-47 -47 -117 -84.5 t-168 -37.5q-125 0 -207 38.5t-131 104t-69.5 152.5t-20.5 184zM250 1485q0 41 39 41h194q23 0 38.5 -6.5t37.5 -32.5l174 -209q10 -14 10 -27q0 -33 -32 -32h-113q-33 0 -51.5 10t-34.5 24l-252 207q-10 10 -10 25z" />
<glyph unicode="&#xfa;" horiz-adv-x="1251" d="M131 459v551q0 23 16.5 39t38.5 16h156q23 0 39 -16.5t16 -38.5v-521q0 -123 52.5 -196.5t171.5 -73.5q109 0 166 74t57 196v521q0 23 16.5 39t38.5 16h156q23 0 39 -16.5t16 -38.5v-955q0 -23 -16.5 -39t-38.5 -16h-156q-23 0 -39 16.5t-16 38.5v47q-47 -47 -117 -84.5 t-168 -37.5q-125 0 -207 38.5t-131 104t-69.5 152.5t-20.5 184zM500 1251q0 12 10 27l174 209q23 27 38 33t38 6h195q39 0 38 -41q0 -14 -10 -25l-252 -207q-16 -14 -34.5 -24t-51.5 -10h-112q-33 0 -33 32z" />
<glyph unicode="&#xfb;" horiz-adv-x="1251" d="M131 459v551q0 23 16.5 39t38.5 16h156q23 0 39 -16.5t16 -38.5v-521q0 -123 52.5 -196.5t171.5 -73.5q109 0 166 74t57 196v521q0 23 16.5 39t38.5 16h156q23 0 39 -16.5t16 -38.5v-955q0 -23 -16.5 -39t-38.5 -16h-156q-23 0 -39 16.5t-16 38.5v47q-47 -47 -117 -84.5 t-168 -37.5q-125 0 -207 38.5t-131 104t-69.5 152.5t-20.5 184zM285 1251q0 16 10 27l189 209q20 23 36.5 31t38.5 8h123q23 0 39 -8.5t37 -30.5l188 -209q10 -10 11 -27q0 -33 -33 -32h-88q-20 0 -32.5 5t-31.5 17l-151 96l-152 -96q-18 -12 -30.5 -17t-32.5 -5h-88 q-33 0 -33 32z" />
<glyph unicode="&#xfc;" horiz-adv-x="1251" d="M131 459v551q0 23 16.5 39t38.5 16h156q23 0 39 -16.5t16 -38.5v-521q0 -123 52.5 -196.5t171.5 -73.5q109 0 166 74t57 196v521q0 23 16.5 39t38.5 16h156q23 0 39 -16.5t16 -38.5v-955q0 -23 -16.5 -39t-38.5 -16h-156q-23 0 -39 16.5t-16 38.5v47q-47 -47 -117 -84.5 t-168 -37.5q-125 0 -207 38.5t-131 104t-69.5 152.5t-20.5 184zM268 1274v180q0 23 16.5 39t38.5 16h170q23 0 39 -16t16 -39v-180q0 -23 -16 -39t-39 -16h-170q-23 0 -39 16t-16 39zM692 1274v180q0 23 16.5 39t38.5 16h170q23 0 39 -16t16 -39v-180q0 -23 -16 -39t-39 -16 h-170q-23 0 -39 16t-16 39z" />
<glyph unicode="&#xfd;" horiz-adv-x="1206" d="M57 1010q0 23 16.5 39t39.5 16h153q25 0 43.5 -16.5t24.5 -32.5l272 -633l273 633q6 16 24.5 32.5t42.5 16.5h154q23 0 39 -16.5t16 -38.5q0 -8 -2 -15l-575 -1335q-6 -16 -24.5 -32.5t-43.5 -16.5h-154q-23 0 -39 16.5t-16 38.5q0 8 2 15l162 376l-406 938q-2 6 -2 15z M483 1251q0 12 10 27l174 209q23 27 38 33t38 6h195q39 0 38 -41q0 -14 -10 -25l-252 -207q-16 -14 -34.5 -24t-51.5 -10h-112q-33 0 -33 32z" />
<glyph unicode="&#xfe;" horiz-adv-x="1269" d="M143 -334v1733q0 23 16.5 39t39.5 16h155q23 0 39.5 -16.5t16.5 -38.5v-436q16 18 42.5 39.5t64.5 40t88 30.5t114 12q102 0 185 -39.5t141.5 -106.5t92 -154t38.5 -181q2 -31 2 -71.5t-2 -71.5q-4 -94 -38 -181t-92.5 -154t-141.5 -106.5t-185 -39.5q-63 0 -113.5 12 t-88.5 30.5t-64.5 40t-42.5 39.5v-436q0 -23 -16.5 -39t-39.5 -16h-155q-23 0 -39.5 16.5t-16.5 38.5zM406 532q0 -47 4 -77q10 -106 78.5 -168t168.5 -62t170 58.5t82 191.5q6 57 0 115q-12 133 -81.5 191.5t-170.5 58.5q-100 0 -168.5 -59.5t-78.5 -170.5q-4 -31 -4 -78z " />
<glyph unicode="&#xff;" horiz-adv-x="1206" d="M57 1010q0 23 16.5 39t39.5 16h153q25 0 43.5 -16.5t24.5 -32.5l272 -633l273 633q6 16 24.5 32.5t42.5 16.5h154q23 0 39 -16.5t16 -38.5q0 -8 -2 -15l-575 -1335q-6 -16 -24.5 -32.5t-43.5 -16.5h-154q-23 0 -39 16.5t-16 38.5q0 8 2 15l162 376l-406 938q-2 6 -2 15z M254 1274v180q0 23 16.5 39t38.5 16h170q23 0 39 -16t16 -39v-180q0 -23 -16 -39t-39 -16h-170q-23 0 -39 16t-16 39zM678 1274v180q0 23 16.5 39t38.5 16h170q23 0 39 -16t16 -39v-180q0 -23 -16 -39t-39 -16h-170q-23 0 -39 16t-16 39z" />
<glyph unicode="&#x131;" horiz-adv-x="548" d="M141 55v955q0 23 16.5 39t39.5 16h155q23 0 39.5 -16.5t16.5 -38.5v-955q0 -23 -16.5 -39t-39.5 -16h-155q-23 0 -39.5 16.5t-16.5 38.5z" />
<glyph unicode="&#x152;" horiz-adv-x="2004" d="M109 565q-8 152 0 303q8 129 48 233.5t114.5 178.5t186 114t263.5 40h1118q23 0 39 -16.5t16 -39.5v-145q0 -23 -16 -39t-39 -16h-661v-326h616q23 0 39 -16.5t16 -38.5v-146q0 -23 -16 -39t-39 -16h-616v-340h677q23 0 39.5 -16.5t16.5 -38.5v-146q0 -23 -16.5 -39 t-39.5 -16h-1144q-147 0 -257 40t-183.5 113.5t-113.5 178t-48 233.5zM385 565q4 -66 25.5 -123t62.5 -98t102.5 -64.5t145.5 -23.5h180v922h-170q-88 0 -151.5 -24t-105.5 -65.5t-63.5 -98t-25.5 -122.5q-8 -152 0 -303z" />
<glyph unicode="&#x153;" horiz-adv-x="1947" d="M90 530.5q0 28.5 1 57t3 47.5q6 94 46 176t106.5 143.5t157.5 96t204 34.5q125 0 223.5 -43t165.5 -116q66 74 157 116.5t208 42.5q115 0 208 -42t158.5 -112.5t101.5 -165.5t36 -200v-92q0 -23 -16.5 -39t-39.5 -16h-684q0 -47 19.5 -83t52.5 -60.5t76 -37t88 -12.5 q66 0 104.5 12.5t63.5 34.5q23 20 33 24.5t34 4.5h191q20 0 34.5 -12.5t10.5 -32.5q-4 -25 -35 -71t-89 -92t-145 -79.5t-202 -33.5q-117 0 -209 40.5t-158 114.5q-68 -72 -166 -113.5t-221 -41.5q-113 0 -204 34.5t-157.5 95t-105.5 142.5t-47 176q-2 18 -3 46t-1 56.5z M356 532.5q0 -26.5 1 -52t3 -40.5q6 -63 30 -105t58.5 -66.5t75.5 -34t84 -9.5t84 9.5t76 34t58.5 66.5t29.5 105q2 14 2 40v52.5v51.5t-2 41q-6 63 -29.5 105t-58.5 66.5t-76 34t-84 9.5t-84 -9.5t-75.5 -34t-58 -66.5t-30.5 -105q-2 -16 -3 -41t-1 -51.5zM1126 651h463 q-4 31 -15 65t-37 61.5t-67.5 45t-107.5 17.5q-59 0 -101 -17.5t-71 -45t-44.5 -61.5t-19.5 -65z" />
<glyph unicode="&#x178;" horiz-adv-x="1355" d="M51 1378q0 23 16.5 39.5t38.5 16.5h154q41 0 61.5 -20.5t24.5 -31.5l332 -579l332 579q4 10 24.5 31t61.5 21h153q23 0 39.5 -16.5t16.5 -39.5q0 -10 -5 -18l-485 -854v-451q0 -23 -16.5 -39t-38.5 -16h-164q-23 0 -39 16.5t-16 38.5v451l-486 854q-4 8 -4 18zM295 1591 v181q0 23 16.5 39t38.5 16h170q23 0 39 -16.5t16 -38.5v-181q0 -23 -16 -39t-39 -16h-170q-23 0 -39 16.5t-16 38.5zM780 1591v181q0 23 16.5 39t39.5 16h170q23 0 39 -16.5t16 -38.5v-181q0 -23 -16.5 -39t-38.5 -16h-170q-23 0 -39.5 16.5t-16.5 38.5z" />
<glyph unicode="&#x192;" horiz-adv-x="923" d="M14 -270q0 23 16.5 39t39.5 16h30q92 0 123 35t31 98v901h-135q-23 0 -39.5 16.5t-16.5 38.5v136q0 23 16.5 39t39.5 16h135v92q0 98 28.5 167t82 112t128 61.5t166.5 18.5h166q23 0 39.5 -16.5t16.5 -39.5v-135q0 -23 -16.5 -39t-39.5 -16h-145q-78 0 -119 -28t-41 -105 v-72h285q23 0 39 -16.5t16 -38.5v-136q0 -23 -16.5 -39t-38.5 -16h-285v-911q0 -184 -103.5 -276.5t-295.5 -92.5h-51q-23 0 -39.5 16.5t-16.5 38.5v136z" />
<glyph unicode="&#x2c6;" horiz-adv-x="917" d="M123 1251q0 16 10 27l189 209q20 23 36.5 31t38.5 8h123q23 0 39 -8.5t37 -30.5l188 -209q10 -10 11 -27q0 -33 -33 -32h-88q-20 0 -32.5 5t-31.5 17l-151 96l-152 -96q-18 -12 -30.5 -17t-32.5 -5h-88q-33 0 -33 32z" />
<glyph unicode="&#x2c7;" horiz-adv-x="917" d="M123 1493q0 33 33 33h88q20 0 32.5 -5t30.5 -18l152 -96l151 96q18 12 30.5 17.5t33.5 5.5h88q33 0 33 -33q0 -16 -11 -27l-188 -209q-20 -23 -36.5 -30.5t-39.5 -7.5h-123q-23 0 -39 8t-36 30l-189 209q-10 10 -10 27z" />
<glyph unicode="&#x2d8;" horiz-adv-x="835" d="M123 1487q0 16 10 27.5t29 11.5h117q18 0 28 -11.5t10 -27.5q0 -45 22.5 -74t78.5 -29q55 0 77.5 29t22.5 74q0 16 10.5 27.5t28.5 11.5h117q18 0 28.5 -11.5t10.5 -27.5q0 -49 -13.5 -98.5t-47.5 -89t-91 -65.5t-143 -26t-143.5 26t-91 65.5t-47 89t-13.5 98.5z" />
<glyph unicode="&#x2d9;" horiz-adv-x="536" d="M123 1274v190q0 23 16.5 39.5t38.5 16.5h180q23 0 39.5 -16.5t16.5 -39.5v-190q0 -23 -16.5 -39t-39.5 -16h-180q-23 0 -39 16t-16 39z" />
<glyph unicode="&#x2da;" horiz-adv-x="614" d="M123 1382q0 78 53 126t131 48t131.5 -48t53.5 -126t-53.5 -126t-131.5 -48t-131 48t-53 126zM246 1382q0 -27 17.5 -44t43.5 -17q27 0 44.5 17.5t17.5 43.5q0 27 -17.5 44.5t-44.5 17.5t-44 -17.5t-17 -44.5z" />
<glyph unicode="&#x2db;" horiz-adv-x="643" d="M123 -131q0 147 86 233t227 86h39q45 0 45 -45v-98q0 -45 -45 -45h-31q-53 0 -85.5 -34t-32.5 -97t32.5 -97t85.5 -34h31q45 0 45 -45v-99q0 -45 -45 -45h-39q-141 0 -227 86t-86 234z" />
<glyph unicode="&#x2dc;" horiz-adv-x="937" d="M123 1257q0 39 14.5 81t42 77t67.5 57.5t91 22.5t83 -11t55.5 -23.5t43 -24t47.5 -11.5q25 0 35 9.5t18.5 20.5t15.5 20.5t26 9.5h114q18 0 28.5 -11.5t10.5 -27.5q0 -39 -14.5 -81t-42 -77t-67.5 -57.5t-91 -22.5q-53 0 -84 11.5t-54.5 23.5t-43 23.5t-47.5 11.5 q-25 0 -35 -9t-18.5 -20.5t-15.5 -20.5t-26 -9h-114q-18 0 -28.5 11t-10.5 27z" />
<glyph unicode="&#x2dd;" horiz-adv-x="1067" d="M123 1251q0 8 3 16.5t7 14.5l92 205q10 20 26.5 29.5t49.5 9.5h191q41 0 40 -39q0 -14 -12 -27l-196 -213q-25 -29 -70 -28h-98q-33 0 -33 32zM535 1251q0 8 3 16.5t7 14.5l92 205q10 20 26.5 29.5t49.5 9.5h190q41 0 41 -39q0 -14 -12 -27l-197 -213q-25 -29 -69 -28 h-99q-33 0 -32 32z" />
<glyph unicode="&#x400;" horiz-adv-x="1263" d="M160 55v1323q0 23 16.5 39.5t38.5 16.5h883q23 0 39 -16.5t16 -39.5v-145q0 -23 -16.5 -39t-38.5 -16h-662v-326h617q23 0 39 -16.5t16 -38.5v-146q0 -23 -16.5 -39t-38.5 -16h-617v-340h678q23 0 39 -16.5t16 -38.5v-146q0 -23 -16 -39t-39 -16h-899q-23 0 -39 16.5 t-16 38.5zM279 1802q0 41 39 41h205q23 0 38 -6t37 -33l174 -209q10 -14 11 -26q0 -33 -33 -33h-123q-33 0 -51.5 10t-34.5 25l-252 207q-10 10 -10 24z" />
<glyph unicode="&#x401;" horiz-adv-x="1263" d="M160 55v1323q0 23 16.5 39.5t38.5 16.5h883q23 0 39 -16.5t16 -39.5v-145q0 -23 -16.5 -39t-38.5 -16h-662v-326h617q23 0 39 -16.5t16 -38.5v-146q0 -23 -16.5 -39t-38.5 -16h-617v-340h678q23 0 39 -16.5t16 -38.5v-146q0 -23 -16 -39t-39 -16h-899q-23 0 -39 16.5 t-16 38.5zM281 1591v181q0 23 16.5 39t38.5 16h170q23 0 39 -16.5t16 -38.5v-181q0 -23 -16 -39t-39 -16h-170q-23 0 -39 16.5t-16 38.5zM766 1591v181q0 23 16.5 39t39.5 16h170q23 0 39 -16.5t16 -38.5v-181q0 -23 -16.5 -39t-38.5 -16h-170q-23 0 -39.5 16.5t-16.5 38.5z " />
<glyph unicode="&#x402;" horiz-adv-x="1560" d="M41 1233v145q0 23 16.5 39.5t38.5 16.5h828q23 0 39 -16.5t16 -39.5v-145q0 -23 -16.5 -39t-38.5 -16h-285v-154h326q115 0 208 -36t158.5 -101.5t101 -158.5t35.5 -208v-575q0 -207 -98 -306.5t-291 -99.5h-78q-23 0 -39 16.5t-16 38.5v146q0 23 16.5 39t38.5 16h31 q92 0 126 38t34 101v576q0 123 -67.5 190.5t-190.5 67.5h-297v-713q0 -23 -16.5 -39t-38.5 -16h-166q-23 0 -39.5 16.5t-16.5 38.5v1123h-264q-23 0 -39 16t-16 39z" />
<glyph unicode="&#x403;" horiz-adv-x="1189" d="M160 55v1323q0 23 16.5 39.5t38.5 16.5h885q23 0 39 -16.5t16 -39.5v-145q0 -23 -16.5 -39t-38.5 -16h-664v-1123q0 -23 -16.5 -39t-38.5 -16h-166q-23 0 -39 16.5t-16 38.5zM557 1569q0 12 10 26l174 209q23 27 38 33t38 6h205q39 0 39 -41q0 -14 -11 -24l-251 -207 q-16 -14 -35 -24.5t-51 -10.5h-123q-33 0 -33 33z" />
<glyph unicode="&#x404;" horiz-adv-x="1400" d="M100 721q0 27 1 54.5t3 66.5q4 137 42 249.5t113 193.5t188.5 125t273.5 44q154 0 265.5 -40t184 -100.5t107.5 -132t39 -132.5q2 -25 -15.5 -40.5t-39.5 -15.5h-166q-23 0 -36 11.5t-20 23.5q-4 8 -20 36t-51 57.5t-95.5 53t-152.5 23.5q-84 0 -147.5 -26.5 t-105.5 -73.5t-62.5 -111.5t-20.5 -140.5h481q23 0 39.5 -16.5t16.5 -38.5v-146q0 -23 -16.5 -39t-39.5 -16h-479q6 -193 93 -273.5t241 -80.5q92 0 152.5 23.5t95.5 53t51 57t20 36.5q6 12 19.5 23t36.5 11h166q23 0 40 -15t15 -40q-4 -61 -39 -133t-107.5 -132.5 t-184.5 -100t-265 -39.5q-164 0 -278.5 45t-188.5 125.5t-109.5 195.5t-40.5 254q-2 39 -3 66.5t-1 54.5z" />
<glyph unicode="&#x405;" horiz-adv-x="1327" d="M72 377q-2 25 15 40t40 15h143q35 0 53.5 -12t30.5 -37q14 -27 35 -53.5t55.5 -47t87 -33.5t130.5 -13q61 0 118.5 9t100.5 30.5t69.5 53t26.5 79.5q0 45 -28.5 73.5t-87 49t-144.5 39t-199 46.5q-102 25 -179 59t-127 83t-74.5 115.5t-24.5 158.5t41 170t112.5 133.5 t170.5 87t214 31.5q137 0 241.5 -37t174.5 -92t105.5 -121.5t39.5 -126.5q2 -25 -15 -40t-40 -15h-143q-35 0 -52.5 13.5t-31.5 35.5q-31 51 -93.5 89t-185.5 38q-53 0 -101 -11t-84 -32.5t-56.5 -52.5t-20.5 -70q0 -47 19.5 -76.5t65.5 -51t122 -40t188 -43.5 q123 -27 212 -62.5t145.5 -85.5t84 -115.5t27.5 -149.5q0 -92 -41 -171t-116.5 -135.5t-186 -89t-247.5 -32.5q-115 0 -219.5 27.5t-185.5 79.5t-130 126t-55 164z" />
<glyph unicode="&#x406;" horiz-adv-x="595" d="M160 55v1323q0 23 16.5 39.5t38.5 16.5h166q23 0 39 -16.5t16 -39.5v-1323q0 -23 -16.5 -39t-38.5 -16h-166q-23 0 -39 16.5t-16 38.5z" />
<glyph unicode="&#x407;" horiz-adv-x="595" d="M-86 1591v181q0 23 16.5 39t38.5 16h170q23 0 39 -16.5t16 -38.5v-181q0 -23 -16 -39t-39 -16h-170q-23 0 -39 16.5t-16 38.5zM160 55v1323q0 23 16.5 39.5t38.5 16.5h166q23 0 39 -16.5t16 -39.5v-1323q0 -23 -16.5 -39t-38.5 -16h-166q-23 0 -39 16.5t-16 38.5z M399 1591v181q0 23 16.5 39t39.5 16h170q23 0 39 -16.5t16 -38.5v-181q0 -23 -16.5 -39t-38.5 -16h-170q-23 0 -39.5 16.5t-16.5 38.5z" />
<glyph unicode="&#x408;" horiz-adv-x="1341" d="M53 432q-2 25 15.5 40t40.5 15h165q16 0 34 -10t22 -28q8 -41 28.5 -80t55.5 -69t86 -47t123 -17q141 0 216.5 73.5t75.5 214.5v654h-671q-23 0 -39.5 16t-16.5 39v145q0 23 16.5 39.5t39.5 16.5h893q23 0 39 -16.5t16 -39.5v-866q0 -264 -147.5 -398t-421.5 -134 q-145 0 -251 35.5t-174.5 97t-103.5 143.5t-41 176z" />
<glyph unicode="&#x409;" horiz-adv-x="2080" d="M33 35v145q0 23 16.5 39.5t38.5 16.5h21q82 0 126 49t44 131v962q0 23 16 39.5t39 16.5h811q23 0 39 -16.5t16 -39.5v-510h387q98 0 178 -31.5t136.5 -88t88 -136.5t31.5 -178q0 -90 -28.5 -169t-84 -138t-136 -93t-185.5 -34h-608q-23 0 -39 16.5t-16 38.5v1123h-369 v-758q0 -201 -105.5 -320.5t-330.5 -119.5h-31q-23 0 -39 16t-16 39zM1200 256h346q104 0 151.5 52t47.5 126t-47 126t-152 52h-346v-356z" />
<glyph unicode="&#x40a;" horiz-adv-x="2045" d="M160 55v1323q0 23 16.5 39.5t38.5 16.5h166q23 0 39 -16.5t16 -39.5v-526h453v526q0 23 16.5 39.5t38.5 16.5h166q23 0 39 -16.5t16 -39.5v-510h387q98 0 178 -31.5t136.5 -88t88.5 -136.5t32 -178q0 -90 -29 -169t-84 -138t-136 -93t-186 -34h-608q-23 0 -39 16.5 t-16 38.5v541h-453v-541q0 -23 -16.5 -39t-38.5 -16h-166q-23 0 -39 15.5t-16 39.5zM1165 256h346q104 0 151.5 52t47.5 126t-47 126t-152 52h-346v-356z" />
<glyph unicode="&#x40b;" horiz-adv-x="1558" d="M41 1233v145q0 23 16.5 39.5t38.5 16.5h828q23 0 39 -16.5t16 -39.5v-145q0 -23 -16.5 -39t-38.5 -16h-285v-154h326q115 0 208 -36t158.5 -101.5t101 -158.5t35.5 -208v-465q0 -23 -16 -39t-39 -16h-166q-23 0 -39 16.5t-16 38.5v455q0 123 -67.5 190.5t-190.5 67.5 h-297v-713q0 -23 -16.5 -39t-38.5 -16h-166q-23 0 -39.5 16.5t-16.5 38.5v1123h-264q-23 0 -39 16t-16 39z" />
<glyph unicode="&#x40c;" horiz-adv-x="1286" d="M160 55v1323q0 23 16.5 39.5t38.5 16.5h166q23 0 39 -16.5t16 -39.5v-481l447 492q18 20 38.5 32.5t53.5 12.5h188q23 0 39.5 -16.5t16.5 -39.5q0 -16 -13 -30l-551 -600l592 -662q10 -10 12.5 -18.5t2.5 -12.5q0 -23 -16.5 -39t-39.5 -16h-194q-41 0 -65.5 21.5 t-28.5 25.5l-482 543v-535q0 -23 -16.5 -39t-38.5 -16h-166q-23 0 -39 16.5t-16 38.5zM524 1569q0 12 10 26l174 209q23 27 38 33t38 6h205q39 0 39 -41q0 -14 -11 -24l-251 -207q-16 -14 -35 -24.5t-51 -10.5h-123q-33 0 -33 33z" />
<glyph unicode="&#x40d;" horiz-adv-x="1447" d="M160 55q0 -23 16.5 -39t38.5 -16h143q35 0 53.5 18.5t26.5 28.5l574 852v-844q0 -23 16.5 -39t38.5 -16h166q23 0 39 16.5t16 38.5v1323q0 23 -16.5 39.5t-38.5 16.5h-143q-35 0 -53.5 -18.5t-26.5 -29.5l-574 -851v843q0 23 -16 39.5t-39 16.5h-166q-23 0 -39 -16.5 t-16 -39.5v-1323zM326 1802q0 41 39 41h205q23 0 38 -6t37 -33l174 -209q10 -14 11 -26q0 -33 -33 -33h-123q-33 0 -51.5 10t-34.5 25l-252 207q-10 10 -10 24z" />
<glyph unicode="&#x40e;" horiz-adv-x="1302" d="M41 1378q0 18 16.5 37t38.5 19h154q41 0 58.5 -15.5t27.5 -36.5l334 -632l334 632q10 20 27.5 36t58.5 16h153q23 0 39 -16.5t16 -39.5q0 -10 -4 -18l-499 -942q-45 -84 -87 -160t-92.5 -133t-117 -91t-160.5 -34h-154q-23 0 -39 16.5t-16 38.5v146q0 23 16.5 39t38.5 16 h117q66 0 113 52t106 157l-475 895q-4 8 -4 18zM364 1804q0 16 10.5 27.5t28.5 11.5h117q18 0 28.5 -11t10.5 -28q0 -45 27.5 -73.5t82.5 -28.5t83 28.5t28 73.5q0 16 10 27.5t29 11.5h117q18 0 28.5 -11t10.5 -28q0 -49 -15.5 -98t-50.5 -89t-94.5 -65.5t-145.5 -25.5 t-145 25.5t-94 65.5t-50.5 89t-15.5 98z" />
<glyph unicode="&#x40f;" horiz-adv-x="1413" d="M160 55v1323q0 23 16.5 39.5t38.5 16.5h168q23 0 39 -16.5t16 -39.5v-1122h537v1122q0 23 16.5 39.5t38.5 16.5h168q23 0 39 -16.5t16 -39.5v-1323q0 -23 -16 -39t-39 -16h-352v-170q0 -23 -16.5 -39t-38.5 -16h-168q-23 0 -39.5 16t-16.5 39v170h-352q-23 0 -39 16.5 t-16 38.5z" />
<glyph unicode="&#x410;" horiz-adv-x="1437" d="M25 55q0 8 2 15l501 1294q12 35 28.5 52.5t49.5 17.5h226q33 0 49 -17.5t28 -52.5l502 -1294q2 -6 2 -15q0 -23 -16.5 -39t-38.5 -16h-148q-41 0 -57 17.5t-22 33.5l-89 228h-647l-88 -228q-6 -16 -22.5 -33.5t-57.5 -17.5h-147q-23 0 -39 16.5t-16 38.5zM494 535h450 l-225 583z" />
<glyph unicode="&#x411;" horiz-adv-x="1331" d="M160 55v1323q0 23 16.5 39.5t38.5 16.5h895q23 0 39 -16.5t16 -39.5v-145q0 -23 -16 -39t-39 -16h-674v-310h387q98 0 178 -31.5t136.5 -88t88 -136.5t31.5 -178q0 -90 -28.5 -169t-83.5 -138t-136 -93t-186 -34h-608q-23 0 -39 16.5t-16 38.5zM436 256h344 q104 0 152.5 52t48.5 126t-48 126t-153 52h-344v-356z" />
<glyph unicode="&#x412;" horiz-adv-x="1404" d="M160 55v1323q0 23 16.5 39.5t38.5 16.5h604q131 0 219 -40t141.5 -100.5t77 -131t23.5 -132.5q0 -61 -16.5 -109.5t-40 -82t-47 -56t-37.5 -30.5q63 -43 116.5 -122t53.5 -200q0 -78 -29 -154.5t-84 -138t-138 -99.5t-192 -38h-651q-23 0 -39 16.5t-16 38.5zM436 256h379 q113 0 165 48t52 126t-54 127t-163 49h-379v-350zM436 862h363q106 0 155.5 40t49.5 118t-49.5 118t-155.5 40h-363v-316z" />
<glyph unicode="&#x413;" horiz-adv-x="1189" d="M160 55v1323q0 23 16.5 39.5t38.5 16.5h885q23 0 39 -16.5t16 -39.5v-145q0 -23 -16.5 -39t-38.5 -16h-664v-1123q0 -23 -16.5 -39t-38.5 -16h-166q-23 0 -39 16.5t-16 38.5z" />
<glyph unicode="&#x414;" horiz-adv-x="1517" d="M37 -170v371q0 23 14.5 38t36.5 17h29q78 0 112.5 58.5t34.5 183.5v880q0 23 16.5 39.5t38.5 16.5h930q23 0 39.5 -16.5t16.5 -39.5v-1122h67q23 0 39 -16.5t16 -38.5v-371q0 -23 -16 -39t-39 -16h-166q-23 0 -39 16t-16 39v170h-838v-170q0 -23 -16 -39t-39 -16h-166 q-23 0 -39 16t-16 39zM498 256h530v922h-487v-701q0 -23 -1 -53.5t-6.5 -61t-13.5 -59.5t-22 -47z" />
<glyph unicode="&#x415;" horiz-adv-x="1263" d="M160 55v1323q0 23 16.5 39.5t38.5 16.5h883q23 0 39 -16.5t16 -39.5v-145q0 -23 -16.5 -39t-38.5 -16h-662v-326h617q23 0 39 -16.5t16 -38.5v-146q0 -23 -16.5 -39t-38.5 -16h-617v-340h678q23 0 39 -16.5t16 -38.5v-146q0 -23 -16 -39t-39 -16h-899q-23 0 -39 16.5 t-16 38.5z" />
<glyph unicode="&#x416;" horiz-adv-x="1589" d="M39 55q0 10 6 23l469 653l-448 625q-6 12 -7 22q0 23 16.5 39.5t39.5 16.5h172q41 0 59.5 -20.5t26.5 -31.5l284 -399v395q0 23 16.5 39.5t39.5 16.5h166q23 0 39 -16.5t16 -39.5v-391l283 395q8 10 26.5 31t59.5 21h172q23 0 39 -16.5t16 -39.5q0 -10 -6 -22l-449 -625 l469 -653q6 -12 6 -23q0 -23 -16 -39t-39 -16h-172q-41 0 -59.5 20.5t-26.5 30.5l-303 424v-420q0 -23 -16.5 -39t-38.5 -16h-166q-23 0 -39.5 16.5t-16.5 38.5v422l-305 -426q-8 -10 -26.5 -30.5t-59.5 -20.5h-172q-23 0 -39 16.5t-16 38.5z" />
<glyph unicode="&#x417;" horiz-adv-x="1316" d="M72 356q-2 25 15 40.5t40 15.5h166q20 0 34.5 -15.5t26.5 -38.5q39 -72 115 -97t176 -25q61 0 116.5 8t96.5 29.5t64.5 56.5t23.5 88q0 51 -23.5 86t-64.5 56.5t-96 31.5t-117 10h-182q-23 2 -37 17.5t-14 37.5v146q0 23 14 38t37 17h170q129 0 200.5 41t71.5 127 q0 92 -72.5 132t-197.5 40q-70 0 -143.5 -26.5t-112.5 -96.5q-12 -23 -26.5 -38t-35.5 -15h-165q-23 0 -40.5 15.5t-15.5 39.5q6 82 46 151.5t111 120t168 78t214 27.5q258 0 402.5 -114.5t144.5 -313.5q0 -94 -37 -162.5t-92 -122.5q74 -57 122 -139t48 -184 q0 -106 -43 -188.5t-120 -137.5t-182.5 -83.5t-232.5 -28.5q-133 0 -237.5 27.5t-177 77.5t-112.5 118.5t-46 152.5z" />
<glyph unicode="&#x418;" horiz-adv-x="1447" d="M160 55q0 -23 16.5 -39t38.5 -16h143q35 0 53.5 18.5t26.5 28.5l574 852v-844q0 -23 16.5 -39t38.5 -16h166q23 0 39 16.5t16 38.5v1323q0 23 -16.5 39.5t-38.5 16.5h-143q-35 0 -53.5 -18.5t-26.5 -29.5l-574 -851v843q0 23 -16 39.5t-39 16.5h-166q-23 0 -39 -16.5 t-16 -39.5v-1323z" />
<glyph unicode="&#x419;" horiz-adv-x="1447" d="M160 55q0 -23 16.5 -39t38.5 -16h143q35 0 53.5 18.5t26.5 28.5l574 852v-844q0 -23 16.5 -39t38.5 -16h166q23 0 39 16.5t16 38.5v1323q0 23 -16.5 39.5t-38.5 16.5h-143q-35 0 -53.5 -18.5t-26.5 -29.5l-574 -851v843q0 23 -16 39.5t-39 16.5h-166q-23 0 -39 -16.5 t-16 -39.5v-1323zM418 1804q0 16 10.5 27.5t28.5 11.5h117q18 0 28.5 -11t10.5 -28q0 -45 27.5 -73.5t82.5 -28.5t83 28.5t28 73.5q0 16 10 27.5t29 11.5h117q18 0 28.5 -11t10.5 -28q0 -49 -15.5 -98t-50.5 -89t-94.5 -65.5t-145.5 -25.5t-145 25.5t-94 65.5t-50.5 89 t-15.5 98z" />
<glyph unicode="&#x41a;" horiz-adv-x="1286" d="M160 55v1323q0 23 16.5 39.5t38.5 16.5h166q23 0 39 -16.5t16 -39.5v-481l447 492q18 20 38.5 32.5t53.5 12.5h188q23 0 39.5 -16.5t16.5 -39.5q0 -16 -13 -30l-551 -600l592 -662q10 -10 12.5 -18.5t2.5 -12.5q0 -23 -16.5 -39t-39.5 -16h-194q-41 0 -65.5 21.5 t-28.5 25.5l-482 543v-535q0 -23 -16.5 -39t-38.5 -16h-166q-23 0 -39 16.5t-16 38.5z" />
<glyph unicode="&#x41b;" horiz-adv-x="1478" d="M33 35v145q0 23 16.5 39.5t38.5 16.5h21q82 0 126 49t44 131v962q0 23 16 39.5t39 16.5h930q23 0 39 -16.5t16 -39.5v-1323q0 -23 -16.5 -39t-38.5 -16h-166q-23 0 -39.5 16.5t-16.5 38.5v1123h-487v-779q0 -92 -25.5 -168.5t-77 -133t-130 -87t-183.5 -30.5h-51 q-23 0 -39 16t-16 39z" />
<glyph unicode="&#x41c;" horiz-adv-x="1662" d="M160 55v1323q0 23 16.5 39.5t38.5 16.5h139q41 0 60.5 -22.5t27.5 -33.5l389 -676l390 676q8 10 27.5 33t60.5 23h139q23 0 39 -16.5t16 -39.5v-1323q0 -23 -16.5 -39t-38.5 -16h-166q-23 0 -39 16.5t-16 38.5v801l-266 -461q-10 -16 -29 -33.5t-47 -17.5h-107 q-29 0 -47 17.5t-29 33.5l-266 461v-801q0 -23 -16.5 -39t-38.5 -16h-166q-23 0 -39 16.5t-16 38.5z" />
<glyph unicode="&#x41d;" horiz-adv-x="1490" d="M160 55v1323q0 23 16.5 39.5t38.5 16.5h166q23 0 39 -16.5t16 -39.5v-526h619v526q0 23 16 39.5t39 16.5h166q23 0 39 -16.5t16 -39.5v-1323q0 -23 -16.5 -39t-38.5 -16h-166q-23 0 -39 16.5t-16 38.5v541h-619v-541q0 -23 -16.5 -39t-38.5 -16h-166q-23 0 -39 15.5 t-16 39.5z" />
<glyph unicode="&#x41e;" d="M106 716q0 50 1.5 97t3.5 86q6 115 44 216.5t111.5 176t184 118.5t262.5 44q150 0 260 -43t184 -118.5t113 -176t45 -217.5q2 -39 3 -86t1 -97t-1 -97.5t-3 -86.5q-6 -115 -44 -216t-112 -175.5t-185.5 -117.5t-260.5 -43q-152 0 -262.5 43t-184 117.5t-111.5 176 t-44 215.5q-2 39 -3.5 86.5t-1.5 97.5zM383 716q0 -95 4 -173q8 -147 95 -227t231 -80q143 0 230 79.5t95 227.5q4 78 4 173t-4 173q-8 147 -95 228t-230 81t-230.5 -81t-95.5 -228q-4 -78 -4 -173z" />
<glyph unicode="&#x41f;" horiz-adv-x="1490" d="M160 55v1323q0 23 16.5 39.5t38.5 16.5h1061q23 0 39 -16.5t16 -39.5v-1323q0 -23 -16.5 -39t-38.5 -16h-166q-23 0 -39 16.5t-16 38.5v1123h-619v-1123q0 -23 -16.5 -39t-38.5 -16h-166q-23 0 -39 16.5t-16 38.5z" />
<glyph unicode="&#x420;" horiz-adv-x="1349" d="M160 55v1323q0 23 16.5 39.5t38.5 16.5h549q248 0 385 -117t137 -342t-137 -344t-385 -119h-328v-457q0 -23 -16.5 -39t-38.5 -16h-166q-23 0 -39 16.5t-16 38.5zM436 768h318q117 0 186.5 46t69.5 161t-70 159t-186 44h-318v-410z" />
<glyph unicode="&#x421;" horiz-adv-x="1400" d="M104.5 717q-0.5 94 4.5 172q8 123 50 227.5t117.5 179t184 116.5t250.5 42q160 0 272.5 -43t186 -110.5t109.5 -152.5t42 -167q2 -25 -15.5 -40t-39.5 -15h-166q-20 0 -39 13t-23 40q-6 41 -28.5 80t-61.5 69.5t-98 50t-139 19.5t-139.5 -24.5t-99.5 -65.5t-61.5 -98.5 t-25.5 -120.5q-4 -78 -4 -172t4 -172q4 -66 25.5 -122t61.5 -97t99.5 -65.5t139.5 -24.5t139 19t99 50t62.5 70t28.5 80q4 27 21.5 40t38.5 13h166q23 0 40 -15.5t15 -39.5q-6 -84 -42 -168t-109.5 -151.5t-186.5 -110.5t-272 -43q-141 0 -250 41.5t-184.5 116.5 t-117.5 179.5t-50 227.5q-4 78 -4.5 172z" />
<glyph unicode="&#x422;" horiz-adv-x="1214" d="M45 1233v145q0 23 16.5 39.5t38.5 16.5h1014q23 0 39 -16.5t16 -39.5v-145q0 -23 -16 -39t-39 -16h-369v-1123q0 -23 -16 -39t-39 -16h-166q-23 0 -39 16.5t-16 38.5v1123h-369q-23 0 -39 16t-16 39z" />
<glyph unicode="&#x423;" horiz-adv-x="1302" d="M41 1378q0 18 16.5 37t38.5 19h154q41 0 58.5 -15.5t27.5 -36.5l334 -632l334 632q10 20 27.5 36t58.5 16h153q23 0 39 -16.5t16 -39.5q0 -10 -4 -18l-499 -942q-45 -84 -87 -160t-92.5 -133t-117 -91t-160.5 -34h-154q-23 0 -39 16.5t-16 38.5v146q0 23 16.5 39t38.5 16 h117q66 0 113 52t106 157l-475 895q-4 8 -4 18z" />
<glyph unicode="&#x424;" horiz-adv-x="1583" d="M55 717q0 121 49.5 218t132 166.5t191.5 108.5t225 41v168q0 23 16.5 39.5t39.5 16.5h165q23 0 39.5 -16.5t16.5 -39.5v-168q117 -2 224.5 -41t190 -108.5t133 -166.5t50.5 -218t-50.5 -218.5t-133 -167t-190 -108.5t-224.5 -41v-168q0 -23 -16.5 -39t-39.5 -16h-165 q-23 0 -39.5 16.5t-16.5 38.5v168q-117 2 -225.5 41t-191 108.5t-132 167t-49.5 218.5zM334 717q0 -45 16.5 -93.5t53 -88t98 -67.5t151.5 -30v557q-90 -4 -151.5 -30.5t-98 -66.5t-53 -88t-16.5 -93zM930 438q90 2 151.5 30t98.5 67.5t53 88t16 93.5t-16 93t-53 88 t-98.5 66.5t-151.5 30.5v-557z" />
<glyph unicode="&#x425;" horiz-adv-x="1357" d="M39 55q0 10 6 23l469 653l-448 625q-6 12 -7 22q0 23 16.5 39.5t39.5 16.5h172q41 0 59.5 -20.5t26.5 -31.5l309 -432l307 432q8 10 26.5 31t59.5 21h172q23 0 39.5 -16.5t16.5 -39.5q0 -10 -7 -22l-452 -633l465 -645q6 -12 6 -23q0 -23 -16.5 -39t-38.5 -16h-173 q-41 0 -59 20.5t-27 30.5l-325 453l-324 -453q-8 -10 -26.5 -30.5t-59.5 -20.5h-172q-23 0 -39 16.5t-16 38.5z" />
<glyph unicode="&#x426;" horiz-adv-x="1519" d="M160 55v1323q0 23 16.5 39.5t38.5 16.5h166q23 0 39 -16.5t16 -39.5v-1122h578v1122q0 23 16.5 39.5t38.5 16.5h166q23 0 39 -16.5t16 -39.5v-1122h94q23 0 39.5 -16.5t16.5 -38.5v-371q0 -23 -16.5 -39t-39.5 -16h-155q-23 0 -39 16t-16 39v170h-959q-23 0 -39 16.5 t-16 38.5z" />
<glyph unicode="&#x427;" horiz-adv-x="1347" d="M80 1020v358q0 23 16.5 39.5t38.5 16.5h166q23 0 39 -16.5t16 -39.5v-348q0 -123 68 -190.5t190 -67.5h297v606q0 23 16.5 39.5t39.5 16.5h166q23 0 39 -16.5t16 -39.5v-1323q0 -23 -16.5 -39t-38.5 -16h-168q-23 0 -39.5 16.5t-16.5 38.5v461h-325q-115 0 -208 36 t-158.5 101.5t-101.5 158.5t-36 208z" />
<glyph unicode="&#x428;" horiz-adv-x="1869" d="M160 55v1323q0 23 16.5 39.5t38.5 16.5h166q23 0 39 -16.5t16 -39.5v-1122h361v1122q0 23 16 39.5t39 16.5h166q23 0 39 -16.5t16 -39.5v-1122h361v1122q0 23 16 39.5t39 16.5h166q23 0 39 -16.5t16 -39.5v-1323q0 -23 -16.5 -39t-38.5 -16h-1440q-23 0 -39 16.5 t-16 38.5z" />
<glyph unicode="&#x429;" horiz-adv-x="1939" d="M160 55v1323q0 23 16.5 39.5t38.5 16.5h166q23 0 39 -16.5t16 -39.5v-1122h361v1122q0 23 16 39.5t39 16.5h166q23 0 39 -16.5t16 -39.5v-1122h361v1122q0 23 16 39.5t39 16.5h166q23 0 39 -16.5t16 -39.5v-1122h94q23 0 39.5 -16.5t16.5 -38.5v-371q0 -23 -16.5 -39 t-39.5 -16h-155q-23 0 -39.5 16t-16.5 39v170h-1378q-23 0 -39 16.5t-16 38.5z" />
<glyph unicode="&#x42a;" horiz-adv-x="1472" d="M43 1233v145q0 23 16.5 39.5t38.5 16.5h439q23 0 39 -16.5t16 -39.5v-510h387q98 0 178 -31.5t136.5 -88t88 -136.5t31.5 -178q0 -90 -28.5 -169t-84 -138t-136.5 -93t-185 -34h-608q-23 0 -39.5 16.5t-16.5 38.5v1123h-217q-23 0 -39 16t-16 39zM592 256h344 q104 0 152.5 52t48.5 126t-48.5 126t-152.5 52h-344v-356z" />
<glyph unicode="&#x42b;" horiz-adv-x="1775" d="M160 55v1323q0 23 16.5 39.5t38.5 16.5h166q23 0 39 -16.5t16 -39.5v-510h387q98 0 178 -31.5t136.5 -88t88 -136.5t31.5 -178q0 -90 -28.5 -169t-83.5 -138t-136 -93t-186 -34h-608q-23 0 -39 16.5t-16 38.5zM436 256h346q104 0 151.5 52t47.5 126t-47 126t-152 52h-346 v-356zM1339 55v1323q0 23 16.5 39.5t39.5 16.5h166q23 0 39 -16.5t16 -39.5v-1323q0 -23 -16.5 -39t-38.5 -16h-166q-23 0 -39.5 16.5t-16.5 38.5z" />
<glyph unicode="&#x42c;" horiz-adv-x="1316" d="M160 55v1323q0 23 16.5 39.5t38.5 16.5h166q23 0 39 -16.5t16 -39.5v-510h387q98 0 178 -31.5t136.5 -88t88 -136.5t31.5 -178q0 -90 -28.5 -169t-83.5 -138t-136 -93t-186 -34h-608q-23 0 -39 16.5t-16 38.5zM436 256h346q104 0 151.5 52t47.5 126t-47 126t-152 52h-346 v-356z" />
<glyph unicode="&#x42d;" horiz-adv-x="1400" d="M82 385q-2 25 15.5 40t39.5 15h166q23 0 36 -11t19 -23q4 -8 20.5 -36t51.5 -57.5t95.5 -53t152.5 -23.5q154 0 241 80.5t93 273.5h-480q-23 0 -39 16.5t-16 38.5v146q0 23 16.5 39t38.5 16h482q0 76 -20.5 140.5t-62.5 111.5t-105.5 73.5t-147.5 26.5 q-92 0 -152.5 -23.5t-95.5 -53t-51.5 -57.5t-20.5 -36q-6 -12 -19 -23.5t-36 -11.5h-166q-23 0 -40 15.5t-15 40.5q2 61 38 132.5t108.5 132t184 100.5t265.5 40q160 0 273.5 -44t188 -125t112.5 -193.5t42 -249.5q2 -39 2 -66.5v-54.5v-54.5t-2 -66.5q-4 -139 -39.5 -254 t-109.5 -195.5t-189.5 -125.5t-277.5 -45q-154 0 -265.5 39.5t-184 100t-108.5 132.5t-38 133z" />
<glyph unicode="&#x42e;" horiz-adv-x="2039" d="M160 55v1323q0 23 16.5 39.5t38.5 16.5h166q23 0 39 -16.5t16 -39.5v-526h289q2 135 40 245.5t112.5 190.5t186.5 123t263 43q150 0 260.5 -44t184 -120t112.5 -179t45 -222q4 -78 4 -173t-4 -173q-6 -119 -44 -222.5t-111.5 -179t-185 -118.5t-261.5 -43 q-152 0 -263.5 44t-186 125.5t-112.5 194.5t-40 252h-289v-541q0 -23 -16.5 -39t-38.5 -16h-166q-23 0 -39 16.5t-16 38.5zM997 716q0 -95 4 -173q8 -147 95.5 -227t230.5 -80t230.5 79.5t95.5 227.5q4 78 4 173t-4 173q-8 147 -95.5 228t-230.5 81t-230 -81t-96 -228 q-4 -78 -4 -173z" />
<glyph unicode="&#x42f;" horiz-adv-x="1372" d="M88 45q0 -18 13.5 -31.5t31.5 -13.5h174q41 0 60.5 19.5t27.5 35.5l268 477h273v-477q0 -23 16.5 -39t38.5 -16h166q23 0 39 16.5t16 38.5v1323q0 23 -16.5 39.5t-38.5 16.5h-528q-256 0 -389.5 -119t-133.5 -330q0 -150 69 -255t202 -157l-283 -505q-6 -12 -6 -23z M383 985q0 115 69.5 154t186.5 39h297v-390h-297q-117 0 -186.5 41t-69.5 156z" />
<glyph unicode="&#x430;" horiz-adv-x="1167" d="M68 299q0 141 100 221t268 109l334 57q0 84 -55 119t-137 35q-51 0 -80 -14.5t-56 -39.5q-18 -16 -33.5 -22t-33.5 -6h-191q-20 0 -34.5 12.5t-10.5 32.5q8 43 38 92t84 92t133 70.5t184 27.5q104 0 188 -27.5t144.5 -80.5t93 -134t32.5 -186v-602q0 -23 -16 -39t-39 -16 h-156q-23 0 -39 16.5t-16 38.5v68q-43 -59 -124 -101t-206 -42q-88 0 -157.5 23.5t-116.5 66.5t-72.5 101t-25.5 128zM334 309q0 -43 44 -63.5t103 -20.5q70 0 124.5 19.5t91 52.5t55 74t18.5 84v20l-278 -49q-84 -14 -121 -42t-37 -75z" />
<glyph unicode="&#x431;" horiz-adv-x="1204" d="M90 492q0 147 33 258.5t82 198.5t105.5 152.5t105.5 122t81.5 107.5t32.5 109q0 23 16.5 39t39.5 16h155q23 0 39.5 -16.5t16.5 -38.5q0 -70 -27 -128.5t-67.5 -115.5t-91 -114.5t-97.5 -125.5q43 6 90 7q106 0 200.5 -30t164 -91.5t109.5 -153.5t40 -217t-40 -217 t-109.5 -153.5t-163.5 -91t-201 -29.5q-106 0 -200.5 35.5t-164 103t-109.5 162t-40 211.5zM356 471q0 -102 63.5 -174t184.5 -72t184.5 72t63.5 174t-63.5 174t-184.5 72t-184.5 -72t-63.5 -174z" />
<glyph unicode="&#x432;" horiz-adv-x="1230" d="M141 41v983q0 16 12.5 28.5t28.5 12.5h576q78 0 143.5 -21.5t111.5 -59.5t71.5 -92t25.5 -120q0 -88 -28.5 -137t-73.5 -80q70 -43 96 -104.5t26 -141.5q0 -76 -25.5 -134t-70.5 -97t-106.5 -58.5t-134.5 -19.5h-611q-16 0 -28.5 12.5t-12.5 28.5zM408 240h323 q68 0 100.5 19.5t32.5 70.5t-32.5 71.5t-100.5 20.5h-323v-182zM408 662h311q68 0 96.5 17t28.5 64t-29 64.5t-96 17.5h-311v-163z" />
<glyph unicode="&#x433;" horiz-adv-x="1032" d="M141 55v955q0 23 16.5 39t39.5 16h751q23 0 39.5 -16.5t16.5 -38.5v-136q0 -23 -16.5 -39t-39.5 -16h-540v-764q0 -23 -16.5 -39t-39.5 -16h-155q-23 0 -39.5 16.5t-16.5 38.5z" />
<glyph unicode="&#x434;" horiz-adv-x="1218" d="M47 -170v360q0 23 16.5 39.5t38.5 16.5h54q29 0 46 15t27.5 40t14.5 56.5t4 62.5v590q0 23 16.5 39t38.5 16h662q23 0 39 -16.5t16 -38.5v-764h51q23 0 39 -16.5t16 -39.5v-360q0 -23 -16 -39t-39 -16h-149q-23 0 -42.5 16t-19.5 39v170h-547v-170q0 -23 -16 -39t-39 -16 h-156q-23 0 -39 16t-16 39zM483 246h271v573h-240v-426q0 -49 -7 -84t-24 -63z" />
<glyph unicode="&#x435;" horiz-adv-x="1175" d="M88 532q0 115 35 216.5t100.5 176t158.5 117.5t208 43t208 -42t158.5 -112.5t101.5 -165.5t36 -200v-92q0 -23 -16.5 -39t-39.5 -16h-684q0 -47 19.5 -83t52.5 -60.5t76 -37t88 -12.5q66 0 106.5 13.5t67.5 33.5q23 16 37 22.5t39 6.5h164q23 0 40 -16.5t15 -38.5 q-2 -29 -32 -74t-89 -88t-146 -73.5t-202 -30.5t-208 39.5t-158.5 113.5t-100.5 175t-35 224zM354 651h463q-4 31 -15 65t-37 61.5t-67.5 45t-107.5 17.5q-59 0 -101.5 -17.5t-71 -45t-44 -61.5t-19.5 -65z" />
<glyph unicode="&#x436;" horiz-adv-x="1458" d="M53 57q0 16 8 29l369 457l-352 436q-8 12 -8 29q0 25 15 41t38 16h158q27 0 48 -7t42 -32l225 -281v265q0 23 16.5 39t38.5 16h156q23 0 39 -16.5t16 -38.5v-265l225 281q20 25 42 32t49 7h157q23 0 38.5 -16.5t15.5 -40.5q0 -16 -9 -29l-352 -436l369 -457q8 -12 8 -29 q0 -25 -15.5 -41t-37.5 -16h-158q-27 0 -48.5 7t-41.5 32l-242 299v-283q0 -23 -16.5 -39t-38.5 -16h-156q-23 0 -39 16.5t-16 38.5v283l-242 -299q-20 -25 -41.5 -32t-48.5 -7h-158q-23 0 -38 16.5t-15 40.5z" />
<glyph unicode="&#x437;" horiz-adv-x="1101" d="M72 266q-2 23 15 39.5t40 16.5h156q23 0 37 -20.5t30 -35.5q27 -23 66 -32t123 -9q115 0 158.5 27t43.5 65q0 35 -41 65t-141 30h-20h-93q-23 0 -39 16t-16 39v135q0 23 16.5 39t38.5 16h93q106 0 144 28t38 65t-45 63.5t-137 26.5q-70 0 -108 -14.5t-62 -37.5 q-16 -16 -30.5 -35.5t-37.5 -19.5h-156q-23 0 -40 16.5t-15 38.5q2 43 29.5 95.5t83 97.5t138.5 74.5t198 29.5q117 0 200.5 -26.5t139 -72.5t82 -107.5t26.5 -130.5q0 -59 -18.5 -111.5t-57.5 -95.5q47 -45 72 -102.5t25 -121.5q0 -70 -28 -131t-86 -107t-146.5 -72.5 t-208.5 -26.5q-121 0 -208 28.5t-144.5 71.5t-85 93t-29.5 93z" />
<glyph unicode="&#x438;" horiz-adv-x="1304" d="M141 55v955q0 23 16.5 39t39.5 16h155q23 0 39.5 -16.5t16.5 -38.5v-578l497 610q18 23 47 23h156q23 0 39 -16.5t16 -38.5v-955q0 -23 -16.5 -39t-38.5 -16h-156q-23 0 -39 16.5t-16 38.5v574l-498 -606q-18 -23 -47 -23h-155q-23 0 -39.5 16.5t-16.5 38.5z" />
<glyph unicode="&#x439;" horiz-adv-x="1304" d="M141 55v955q0 23 16.5 39t39.5 16h155q23 0 39.5 -16.5t16.5 -38.5v-578l497 610q18 23 47 23h156q23 0 39 -16.5t16 -38.5v-955q0 -23 -16.5 -39t-38.5 -16h-156q-23 0 -39 16.5t-16 38.5v574l-498 -606q-18 -23 -47 -23h-155q-23 0 -39.5 16.5t-16.5 38.5zM356 1487 q0 16 10 27.5t29 11.5h117q18 0 28 -11.5t10 -27.5q0 -45 22.5 -74t78.5 -29q55 0 77.5 29t22.5 74q0 16 10.5 27.5t28.5 11.5h117q18 0 28.5 -11.5t10.5 -27.5q0 -49 -13.5 -98.5t-47.5 -89t-91 -65.5t-143 -26t-143.5 26t-91 65.5t-47 89t-13.5 98.5z" />
<glyph unicode="&#x43a;" horiz-adv-x="1171" d="M141 55v955q0 23 16.5 39t39.5 16h155q23 0 39.5 -16.5t16.5 -38.5v-324l376 344q12 10 32 22.5t48 12.5h195q20 0 34.5 -14.5t14.5 -34.5q0 -10 -3 -19.5t-20 -21.5l-477 -432l522 -455q12 -12 16.5 -20.5t4.5 -18.5q0 -20 -14.5 -34.5t-34.5 -14.5h-217 q-31 0 -52.5 12.5t-31.5 22.5l-393 342v-322q0 -23 -16.5 -39t-39.5 -16h-155q-23 0 -39.5 16.5t-16.5 38.5z" />
<glyph unicode="&#x43b;" horiz-adv-x="1261" d="M37 35v135q0 23 16.5 39t38.5 16h37q82 0 105.5 42t23.5 120v623q0 23 16.5 39t38.5 16h752q23 0 39 -16.5t16 -38.5v-955q0 -23 -16.5 -39t-38.5 -16h-156q-23 0 -39 16.5t-16 38.5v764h-330v-442q0 -186 -93 -291.5t-292 -105.5h-47q-23 0 -39 16t-16 39z" />
<glyph unicode="&#x43c;" d="M141 55v955q0 23 16.5 39t39.5 16h145q41 0 57.5 -14.5t22.5 -26.5l291 -526l291 526q6 12 22 26.5t57 14.5h146q23 0 39 -16.5t16 -38.5v-955q0 -23 -16.5 -39t-38.5 -16h-156q-23 0 -39 16.5t-16 38.5v514l-195 -344q-10 -16 -26.5 -33.5t-44.5 -17.5h-78 q-29 0 -45.5 17.5t-26.5 33.5l-194 344v-514q0 -23 -16.5 -39t-39.5 -16h-155q-23 0 -39.5 16.5t-16.5 38.5z" />
<glyph unicode="&#x43d;" horiz-adv-x="1294" d="M141 55v955q0 23 16.5 39t39.5 16h155q23 0 39.5 -16.5t16.5 -38.5v-351h479v351q0 23 16.5 39t38.5 16h156q23 0 39 -16.5t16 -38.5v-955q0 -23 -16.5 -39t-38.5 -16h-156q-23 0 -39 16.5t-16 38.5v359h-479v-359q0 -23 -16.5 -39t-39.5 -16h-155q-23 0 -39.5 15.5 t-16.5 39.5z" />
<glyph unicode="&#x43e;" horiz-adv-x="1218" d="M92 530.5q0 28.5 1 57t3 47.5q6 94 46 176t106.5 143.5t157.5 96t204 34.5t204 -34.5t157.5 -96t106.5 -143.5t46 -176q2 -18 2 -47v-57.5v-56.5t-2 -46q-8 -94 -47 -176t-105.5 -142.5t-157.5 -95t-204 -34.5t-204 34.5t-157.5 95t-105.5 142.5t-47 176q-2 18 -3 46 t-1 56.5zM358 532.5q0 -26.5 1 -52t3 -40.5q6 -63 30 -105t58.5 -66.5t75.5 -34t84 -9.5t84 9.5t76 34t58.5 66.5t29.5 105q2 14 2 40v52.5v51.5t-2 41q-6 63 -29.5 105t-58.5 66.5t-76 34t-84 9.5t-84 -9.5t-75.5 -34t-58 -66.5t-30.5 -105q-2 -16 -3 -41t-1 -51.5z" />
<glyph unicode="&#x43f;" horiz-adv-x="1294" d="M141 55v955q0 23 16.5 39t39.5 16h901q23 0 39 -16.5t16 -38.5v-955q0 -23 -16.5 -39t-38.5 -16h-156q-23 0 -39 16.5t-16 38.5v764h-479v-764q0 -23 -16.5 -39t-39.5 -16h-155q-23 0 -39.5 16.5t-16.5 38.5z" />
<glyph unicode="&#x440;" horiz-adv-x="1267" d="M141 -334v1344q0 23 16.5 39t39.5 16h155q23 0 39.5 -16.5t16.5 -38.5v-47q16 18 42.5 39.5t64.5 40t88 30.5t114 12q102 0 185 -39.5t141.5 -106.5t92 -154t38.5 -181q2 -31 2 -71.5t-2 -71.5q-4 -94 -38 -181t-92.5 -154t-141.5 -106.5t-185 -39.5q-63 0 -113.5 12 t-88.5 30.5t-64.5 40t-42.5 39.5v-436q0 -23 -16.5 -39t-39.5 -16h-155q-23 0 -39.5 16.5t-16.5 38.5zM403.5 532q-0.5 -47 4.5 -77q10 -106 78.5 -168t168.5 -62t170 58.5t82 191.5q6 57 0 115q-12 133 -81.5 191.5t-170.5 58.5q-100 0 -168.5 -59.5t-78.5 -170.5 q-4 -31 -4.5 -78z" />
<glyph unicode="&#x441;" horiz-adv-x="1181" d="M86 530.5q0 44.5 4 83.5q6 94 45 180.5t104.5 151t156.5 102t204 37.5q131 0 225.5 -38.5t154.5 -95t89 -118t31 -104.5q2 -23 -15.5 -39t-40.5 -16h-155q-23 0 -39 18.5t-29 36.5q-16 25 -33.5 44.5t-42 34.5t-59.5 23.5t-86 8.5q-43 0 -84 -13.5t-74.5 -41t-56.5 -73 t-29 -108.5q-4 -31 -4 -71.5t4 -71.5q6 -63 29 -108.5t56.5 -73t74.5 -41t84 -13.5q51 0 86 8.5t59.5 23.5t42 34.5t33.5 44.5q12 18 28.5 36.5t39.5 18.5h155q23 0 40.5 -16.5t15.5 -38.5q-2 -43 -31 -104.5t-89 -118t-154.5 -95t-225.5 -38.5q-113 0 -203 37.5t-156.5 102 t-104.5 149.5t-46 180q-4 37 -4 81.5z" />
<glyph unicode="&#x442;" horiz-adv-x="1114" d="M33 874v136q0 23 16.5 39t38.5 16h938q23 0 39 -16.5t16 -38.5v-136q0 -23 -16 -39t-39 -16h-336v-764q0 -23 -16.5 -39t-38.5 -16h-156q-23 0 -39 16.5t-16 38.5v764h-336q-23 0 -39 16.5t-16 38.5z" />
<glyph unicode="&#x443;" horiz-adv-x="1222" d="M57 1010q0 23 16.5 39t39.5 16h153q25 0 43.5 -16.5t24.5 -32.5l280 -654l281 654q6 16 24.5 32.5t43.5 16.5h153q23 0 39 -16.5t16 -38.5q0 -8 -2 -15l-438 -1024q-37 -86 -73.5 -152.5t-83 -112.5t-104.5 -70.5t-138 -24.5h-109q-23 0 -39 16.5t-16 38.5v135 q0 23 16.5 39.5t38.5 16.5h74q55 0 92 29.5t60 84.5l24 66l-414 958q-2 6 -2 15z" />
<glyph unicode="&#x444;" horiz-adv-x="1863" d="M92 532.5q0 40.5 2 71.5q4 94 33 181t82 154t131 106.5t180 39.5q55 0 100.5 -12t79 -30.5t58 -40t41.5 -39.5v436q0 23 16 39t39 16h156q23 0 39 -16.5t16 -38.5v-436q16 18 40.5 39.5t58.5 40t79 30.5t100 12q102 0 180.5 -39.5t131.5 -106.5t81.5 -154t32.5 -181 q2 -31 2.5 -71.5t-2.5 -71.5q-4 -94 -32.5 -181t-81.5 -154t-131 -106.5t-181 -39.5q-55 0 -100 12t-79 30.5t-58.5 40t-40.5 39.5v-436q0 -23 -16.5 -39t-38.5 -16h-156q-23 0 -39 16.5t-16 38.5v436q-16 -18 -41 -39.5t-58.5 -40t-79 -30.5t-100.5 -12q-102 0 -180 39.5 t-131 106.5t-82 154t-33 181q-2 31 -2 71.5zM360 475q12 -133 68.5 -191.5t153.5 -58.5q96 0 151 61.5t66 168.5q4 31 4 78t-4 77q-10 111 -65.5 170.5t-151.5 59.5t-152.5 -58.5t-69.5 -191.5q-6 -58 0 -115zM1061 532q0 -47 4 -77q10 -106 65.5 -168t151.5 -62t152.5 58.5 t68.5 191.5q6 57 0 115q-12 133 -68.5 191.5t-152.5 58.5t-151.5 -59.5t-65.5 -170.5q-4 -31 -4 -78z" />
<glyph unicode="&#x445;" horiz-adv-x="1198" d="M53 57q0 16 8 29l369 457l-352 436q-8 12 -8 29q0 25 15 41t38 16h158q27 0 48 -7t42 -32l231 -287l229 287q20 25 42 32t49 7h157q23 0 38.5 -16.5t15.5 -40.5q0 -16 -9 -29l-356 -444l365 -449q8 -12 8 -29q0 -25 -15.5 -41t-38.5 -16h-157q-27 0 -48.5 7t-41.5 32 l-244 299l-242 -299q-20 -25 -41.5 -32t-48.5 -7h-158q-23 0 -38 16.5t-15 40.5z" />
<glyph unicode="&#x446;" horiz-adv-x="1329" d="M141 55v955q0 23 16.5 39t39.5 16h155q23 0 39.5 -16.5t16.5 -38.5v-764h438v764q0 23 16.5 39t38.5 16h156q23 0 39 -16.5t16 -38.5v-764h80q23 0 39 -16.5t16 -39.5v-360q0 -23 -16.5 -39t-38.5 -16h-156q-23 0 -39 16t-16 39v170h-784q-23 0 -39.5 16.5t-16.5 38.5z " />
<glyph unicode="&#x447;" horiz-adv-x="1220" d="M68 805v205q0 23 16 39t39 16h156q23 0 39 -16.5t16 -38.5v-195q0 -123 55 -179t178 -56h246v430q0 23 16.5 39t38.5 16h156q23 0 39 -16.5t16 -38.5v-955q0 -23 -16 -39t-39 -16h-156q-23 0 -39 16.5t-16 38.5v279h-274q-223 0 -347 124t-124 347z" />
<glyph unicode="&#x448;" horiz-adv-x="1634" d="M141 55v955q0 23 16.5 39t39.5 16h155q23 0 39.5 -16.5t16.5 -38.5v-764h276v764q0 23 16.5 39t38.5 16h156q23 0 39 -16.5t16 -38.5v-764h277v764q0 23 16.5 39t38.5 16h156q23 0 39 -16.5t16 -38.5v-955q0 -23 -16.5 -39t-38.5 -16h-1241q-23 0 -39.5 16.5t-16.5 38.5z " />
<glyph unicode="&#x449;" horiz-adv-x="1708" d="M141 55v955q0 23 16.5 39t39.5 16h155q23 0 39.5 -16.5t16.5 -38.5v-764h276v764q0 23 16.5 39t38.5 16h156q23 0 39 -16.5t16 -38.5v-764h277v764q0 23 16.5 39t38.5 16h156q23 0 39 -16.5t16 -38.5v-770h80q23 0 39 -16.5t16 -39.5v-354q0 -23 -16.5 -39t-38.5 -16 h-156q-23 0 -39 16t-16 39v170h-1165q-23 0 -39.5 16.5t-16.5 38.5z" />
<glyph unicode="&#x44a;" horiz-adv-x="1290" d="M39 874v136q0 23 16.5 39t38.5 16h414q23 0 39 -16.5t16 -38.5v-183h211q100 0 184 -29.5t143.5 -84t93.5 -131t34 -168.5t-34 -169t-93.5 -131.5t-143.5 -84t-184 -29.5h-422q-23 0 -39 16.5t-16 38.5v764h-203q-23 0 -39 16.5t-16 38.5zM563 246h176q51 0 93 7t73 25.5 t47.5 51t16.5 84.5q0 51 -16.5 83.5t-47.5 51t-72.5 26t-93.5 7.5h-176v-336z" />
<glyph unicode="&#x44b;" horiz-adv-x="1583" d="M141 55v955q0 23 16.5 39t39.5 16h155q23 0 39.5 -16.5t16.5 -38.5v-183h210q100 0 184.5 -29.5t144 -84t93 -131t33.5 -168.5t-33.5 -169t-93 -131.5t-143.5 -84t-185 -29.5h-421q-23 0 -39.5 16.5t-16.5 38.5zM408 246h176q51 0 93 7t72.5 25.5t47 51t16.5 84.5 q0 51 -16.5 83.5t-47 51t-72.5 26t-93 7.5h-176v-336zM1176 55v955q0 23 16 39t39 16h155q23 0 39.5 -16.5t16.5 -38.5v-955q0 -23 -16.5 -39t-39.5 -16h-155q-23 0 -39 16.5t-16 38.5z" />
<glyph unicode="&#x44c;" horiz-adv-x="1134" d="M141 55v955q0 23 16.5 39t39.5 16h155q23 0 39.5 -16.5t16.5 -38.5v-183h210q100 0 184.5 -29.5t144 -84t93 -131t33.5 -168.5t-33.5 -169t-93 -131.5t-143.5 -84t-185 -29.5h-421q-23 0 -39.5 16.5t-16.5 38.5zM408 246h176q51 0 93 7t72.5 25.5t47 51t16.5 84.5 q0 51 -16.5 83.5t-47 51t-72.5 26t-93 7.5h-176v-336z" />
<glyph unicode="&#x44d;" horiz-adv-x="1181" d="M80 336q-2 23 15.5 39t39.5 16h156q23 0 39 -18.5t28 -36.5q16 -25 34 -44.5t42.5 -34.5t59.5 -23.5t86 -8.5q37 0 73.5 10.5t68.5 32t55.5 57t35.5 85.5h-246q-23 0 -39 16t-16 39v135q0 23 16.5 39t38.5 16h246q-25 98 -92.5 141.5t-140.5 43.5q-51 0 -86 -8.5 t-59.5 -23.5t-42 -34.5t-34.5 -44.5q-12 -18 -28.5 -36.5t-38.5 -18.5h-156q-23 0 -40 16.5t-15 38.5q2 43 30.5 104.5t89 118t153.5 95t227 38.5q113 0 203.5 -37.5t156.5 -102t104.5 -150.5t45.5 -181q4 -39 4 -84t-4 -81q-8 -94 -46 -179.5t-105 -150t-157 -102 t-202 -37.5q-133 0 -226.5 38.5t-154 95t-89 118t-30.5 104.5z" />
<glyph unicode="&#x44e;" horiz-adv-x="1814" d="M141 55v955q0 23 16.5 39t39.5 16h155q23 0 39.5 -16.5t16.5 -38.5v-351h286q12 90 52 168t107 135.5t155.5 90t197.5 32.5q113 0 204 -34.5t157.5 -96t106.5 -143.5t46 -176q2 -18 2 -47v-57.5v-56.5t-2 -46q-8 -94 -47 -176t-105.5 -142.5t-157.5 -95t-204 -34.5 q-111 0 -201 33.5t-155.5 92t-105 137.5t-50.5 171h-286v-359q0 -23 -16.5 -39t-39.5 -16h-155q-23 0 -39.5 16.5t-16.5 38.5zM954 532.5q0 -26.5 1 -52t3 -40.5q6 -63 30 -105t58.5 -66.5t75.5 -34t84 -9.5t84 9.5t76 34t58.5 66.5t29.5 105q2 14 2 40v52.5v51.5t-2 41 q-6 63 -29.5 105t-58.5 66.5t-76 34t-84 9.5t-84 -9.5t-75.5 -34t-58 -66.5t-30.5 -105q-2 -16 -3 -41t-1 -51.5z" />
<glyph unicode="&#x44f;" horiz-adv-x="1208" d="M84 47q0 16 8 29l203 280q-88 47 -139.5 129t-51.5 201q0 92 33 164t91.5 119t138 71.5t172.5 24.5h473q23 0 39 -16.5t16 -38.5v-955q0 -23 -16.5 -39t-38.5 -16h-156q-23 0 -39 16.5t-16 38.5v248h-232l-186 -264q-8 -10 -23.5 -24.5t-42.5 -14.5h-184 q-20 0 -34.5 14.5t-14.5 32.5zM371 684q0 -72 39 -103.5t135 -31.5h256v270h-256q-96 0 -135 -31.5t-39 -103.5z" />
<glyph unicode="&#x450;" horiz-adv-x="1175" d="M88 532q0 115 35 216.5t100.5 176t158.5 117.5t208 43t208 -42t158.5 -112.5t101.5 -165.5t36 -200v-92q0 -23 -16.5 -39t-39.5 -16h-684q0 -47 19.5 -83t52.5 -60.5t76 -37t88 -12.5q66 0 106.5 13.5t67.5 33.5q23 16 37 22.5t39 6.5h164q23 0 40 -16.5t15 -38.5 q-2 -29 -32 -74t-89 -88t-146 -73.5t-202 -30.5t-208 39.5t-158.5 113.5t-100.5 175t-35 224zM213 1485q0 41 39 41h194q23 0 38.5 -6.5t37.5 -32.5l174 -209q10 -14 10 -27q0 -33 -32 -32h-113q-33 0 -51.5 10t-34.5 24l-252 207q-10 10 -10 25zM354 651h463q-4 31 -15 65 t-37 61.5t-67.5 45t-107.5 17.5q-59 0 -101.5 -17.5t-71 -45t-44 -61.5t-19.5 -65z" />
<glyph unicode="&#x451;" horiz-adv-x="1175" d="M88 532q0 115 35 216.5t100.5 176t158.5 117.5t208 43t208 -42t158.5 -112.5t101.5 -165.5t36 -200v-92q0 -23 -16.5 -39t-39.5 -16h-684q0 -47 19.5 -83t52.5 -60.5t76 -37t88 -12.5q66 0 106.5 13.5t67.5 33.5q23 16 37 22.5t39 6.5h164q23 0 40 -16.5t15 -38.5 q-2 -29 -32 -74t-89 -88t-146 -73.5t-202 -30.5t-208 39.5t-158.5 113.5t-100.5 175t-35 224zM238 1274v180q0 23 16.5 39t38.5 16h170q23 0 39 -16t16 -39v-180q0 -23 -16 -39t-39 -16h-170q-23 0 -39 16t-16 39zM354 651h463q-4 31 -15 65t-37 61.5t-67.5 45t-107.5 17.5 q-59 0 -101.5 -17.5t-71 -45t-44 -61.5t-19.5 -65zM662 1274v180q0 23 16.5 39t38.5 16h170q23 0 39 -16t16 -39v-180q0 -23 -16 -39t-39 -16h-170q-23 0 -39 16t-16 39z" />
<glyph unicode="&#x452;" horiz-adv-x="1271" d="M-23 1190v74q0 23 16.5 39t39.5 16h108v80q0 23 16.5 39t39.5 16h155q23 0 39.5 -16.5t16.5 -38.5v-80h108q23 0 39 -16.5t16 -38.5v-74q0 -23 -16 -39t-39 -16h-108v-172q53 53 124.5 87.5t169.5 34.5q125 0 209 -38.5t135.5 -104t73 -153t21.5 -183.5v-698 q0 -184 -103.5 -276.5t-296.5 -92.5h-51q-23 0 -39 16.5t-16 38.5v136q0 23 16.5 39t38.5 16h31q92 0 122.5 35t30.5 98v657q0 123 -57 197t-176 74q-109 0 -171 -74t-62 -197v-520q0 -23 -16.5 -39t-39.5 -16h-155q-23 0 -39.5 16.5t-16.5 38.5v1080h-108q-23 0 -39.5 16 t-16.5 39z" />
<glyph unicode="&#x453;" horiz-adv-x="1032" d="M141 55v955q0 23 16.5 39t39.5 16h751q23 0 39.5 -16.5t16.5 -38.5v-136q0 -23 -16.5 -39t-39.5 -16h-540v-764q0 -23 -16.5 -39t-39.5 -16h-155q-23 0 -39.5 16.5t-16.5 38.5zM459 1251q0 12 10 27l174 209q23 27 38 33t38 6h195q39 0 38 -41q0 -14 -10 -25l-252 -207 q-16 -14 -34.5 -24t-51.5 -10h-112q-33 0 -33 32z" />
<glyph unicode="&#x454;" horiz-adv-x="1181" d="M86 530.5q0 44.5 4 83.5q6 94 45 180.5t104.5 151t156.5 102t204 37.5q131 0 225.5 -38.5t154.5 -95t89 -118t31 -104.5q2 -23 -15.5 -39t-40.5 -16h-155q-23 0 -39 18.5t-29 36.5q-16 25 -33.5 44.5t-42 34.5t-59.5 23.5t-86 8.5q-74 0 -141.5 -43t-91.5 -142h245 q23 0 39.5 -16t16.5 -39v-135q0 -23 -16.5 -39t-39.5 -16h-245q12 -49 35.5 -85t55 -57.5t68.5 -32t74 -10.5q51 0 86 8.5t59.5 23.5t42 34.5t33.5 44.5q12 18 28.5 36.5t39.5 18.5h155q23 0 40.5 -16.5t15.5 -38.5q-2 -43 -31 -104.5t-89 -118t-154.5 -95t-225.5 -38.5 q-113 0 -203 37.5t-156.5 102t-104.5 149.5t-46 180q-4 37 -4 81.5z" />
<glyph unicode="&#x455;" horiz-adv-x="1064" d="M80 264q-2 23 15.5 39t39.5 16h158q31 0 46 -14t34.5 -32.5t54.5 -33t104 -14.5q31 0 64 4t60.5 13.5t46 24.5t18.5 38t-14.5 37t-50 26.5t-95 25t-151.5 32.5q-90 20 -149.5 51t-95.5 72t-50.5 93t-14.5 114q0 61 29 120.5t83 105.5t132 74.5t178 28.5t179 -22.5 t134.5 -59t86 -85t34.5 -97.5q2 -23 -15 -39t-40 -16h-158q-31 0 -46 11t-33.5 25.5t-49 26t-92.5 11.5q-61 0 -108 -18.5t-47 -65.5q0 -23 11 -38.5t43 -27.5t88 -25.5t146 -31.5q182 -39 257 -122t75 -206q0 -61 -30.5 -119.5t-89 -104.5t-143.5 -73.5t-192 -27.5 q-109 0 -191.5 25.5t-140 66.5t-88 92t-32.5 100z" />
<glyph unicode="&#x456;" horiz-adv-x="548" d="M131 1239v160q0 23 16.5 39t38.5 16h176q23 0 39.5 -16.5t16.5 -38.5v-160q0 -23 -16.5 -39t-39.5 -16h-176q-23 0 -39 16.5t-16 38.5zM141 55v955q0 23 16.5 39t39.5 16h155q23 0 39.5 -16.5t16.5 -38.5v-955q0 -23 -16.5 -39t-39.5 -16h-155q-23 0 -39.5 16.5 t-16.5 38.5z" />
<glyph unicode="&#x457;" horiz-adv-x="548" d="M-78 1274v180q0 23 16.5 39t38.5 16h170q23 0 39 -16t16 -39v-180q0 -23 -16 -39t-39 -16h-170q-23 0 -39 16t-16 39zM141 55v955q0 23 16.5 39t39.5 16h155q23 0 39.5 -16.5t16.5 -38.5v-955q0 -23 -16.5 -39t-39.5 -16h-155q-23 0 -39.5 16.5t-16.5 38.5zM346 1274v180 q0 23 16.5 39t38.5 16h170q23 0 39 -16t16 -39v-180q0 -23 -16 -39t-39 -16h-170q-23 0 -39 16t-16 39z" />
<glyph unicode="&#x458;" horiz-adv-x="569" d="M-78 -199q0 23 16.5 39.5t38.5 16.5h31q92 0 123 34.5t31 98.5v1020q0 23 16.5 39t38.5 16h156q23 0 39 -16.5t16 -38.5v-1030q0 -184 -103.5 -276.5t-295.5 -92.5h-52q-23 0 -39 16.5t-16 38.5v135zM152 1239v160q0 23 16 39t39 16h176q23 0 39 -16.5t16 -38.5v-160 q0 -23 -16 -39t-39 -16h-176q-23 0 -39 16.5t-16 38.5z" />
<glyph unicode="&#x459;" horiz-adv-x="1804" d="M37 35v135q0 23 16.5 39t38.5 16h37q82 0 105.5 42t23.5 120v623q0 23 16.5 39t38.5 16h709q23 0 39 -16.5t16 -38.5v-183h211q100 0 184 -29.5t143.5 -84t93.5 -131t34 -168.5t-34 -169t-93.5 -131.5t-143 -84t-184.5 -29.5h-422q-23 0 -39 16.5t-16 38.5v764h-287v-442 q0 -186 -93 -291.5t-292 -105.5h-47q-23 0 -39 16t-16 39zM1077 246h176q51 0 93.5 7t73 25.5t47 51t16.5 84.5q0 51 -16.5 83.5t-47 51t-72.5 26t-94 7.5h-176v-336z" />
<glyph unicode="&#x45a;" horiz-adv-x="1769" d="M141 55v955q0 23 16.5 39t39.5 16h155q23 0 39.5 -16.5t16.5 -38.5v-351h368v351q0 23 16.5 39t38.5 16h156q23 0 39 -16.5t16 -38.5v-183h211q100 0 184.5 -29.5t143.5 -84t93 -131t34 -168.5t-34 -169t-93 -131.5t-143 -84t-185 -29.5h-422q-23 0 -39 16.5t-16 38.5 v359h-368v-359q0 -23 -16.5 -39t-39.5 -16h-155q-23 0 -39.5 15.5t-16.5 39.5zM1042 246h177q51 0 93 7t72.5 25.5t47 51t16.5 84.5q0 51 -16.5 83.5t-47 51t-72.5 26t-93 7.5h-177v-336z" />
<glyph unicode="&#x45b;" horiz-adv-x="1271" d="M-23 1190v74q0 23 16.5 39t39.5 16h108v80q0 23 16.5 39t39.5 16h155q23 0 39.5 -16.5t16.5 -38.5v-80h108q23 0 39 -16.5t16 -38.5v-74q0 -23 -16 -39t-39 -16h-108v-172q53 53 124.5 87.5t169.5 34.5q125 0 209 -38.5t135.5 -104t73 -153t21.5 -183.5v-551 q0 -23 -16.5 -39t-39.5 -16h-155q-23 0 -39.5 16.5t-16.5 38.5v520q0 123 -57 197t-176 74q-109 0 -171 -74t-62 -197v-520q0 -23 -16.5 -39t-39.5 -16h-155q-23 0 -39.5 16.5t-16.5 38.5v1080h-108q-23 0 -39.5 16t-16.5 39z" />
<glyph unicode="&#x45c;" horiz-adv-x="1171" d="M141 55v955q0 23 16.5 39t39.5 16h155q23 0 39.5 -16.5t16.5 -38.5v-324l376 344q12 10 32 22.5t48 12.5h195q20 0 34.5 -14.5t14.5 -34.5q0 -10 -3 -19.5t-20 -21.5l-477 -432l522 -455q12 -12 16.5 -20.5t4.5 -18.5q0 -20 -14.5 -34.5t-34.5 -14.5h-217 q-31 0 -52.5 12.5t-31.5 22.5l-393 342v-322q0 -23 -16.5 -39t-39.5 -16h-155q-23 0 -39.5 16.5t-16.5 38.5zM473 1251q0 12 10 27l174 209q23 27 38 33t38 6h195q39 0 38 -41q0 -14 -10 -25l-252 -207q-16 -14 -34.5 -24t-51.5 -10h-112q-33 0 -33 32z" />
<glyph unicode="&#x45d;" horiz-adv-x="1304" d="M141 55v955q0 23 16.5 39t39.5 16h155q23 0 39.5 -16.5t16.5 -38.5v-578l497 610q18 23 47 23h156q23 0 39 -16.5t16 -38.5v-955q0 -23 -16.5 -39t-38.5 -16h-156q-23 0 -39 16.5t-16 38.5v574l-498 -606q-18 -23 -47 -23h-155q-23 0 -39.5 16.5t-16.5 38.5zM270 1485 q0 41 39 41h194q23 0 38.5 -6.5t37.5 -32.5l174 -209q10 -14 10 -27q0 -33 -32 -32h-113q-33 0 -51.5 10t-34.5 24l-252 207q-10 10 -10 25z" />
<glyph unicode="&#x45e;" horiz-adv-x="1222" d="M57 1010q0 23 16.5 39t39.5 16h153q25 0 43.5 -16.5t24.5 -32.5l280 -654l281 654q6 16 24.5 32.5t43.5 16.5h153q23 0 39 -16.5t16 -38.5q0 -8 -2 -15l-438 -1024q-37 -86 -73.5 -152.5t-83 -112.5t-104.5 -70.5t-138 -24.5h-109q-23 0 -39 16.5t-16 38.5v135 q0 23 16.5 39.5t38.5 16.5h74q55 0 92 29.5t60 84.5l24 66l-414 958q-2 6 -2 15zM320 1487q0 16 10 27.5t29 11.5h117q18 0 28 -11.5t10 -27.5q0 -45 22.5 -74t78.5 -29q55 0 77.5 29t22.5 74q0 16 10.5 27.5t28.5 11.5h117q18 0 28.5 -11.5t10.5 -27.5q0 -49 -13.5 -98.5 t-47.5 -89t-91 -65.5t-143 -26t-143.5 26t-91 65.5t-47 89t-13.5 98.5z" />
<glyph unicode="&#x45f;" horiz-adv-x="1232" d="M141 55v955q0 23 16.5 39t39.5 16h155q23 0 39.5 -16.5t16.5 -38.5v-764h417v764q0 23 16.5 39t39.5 16h155q23 0 39.5 -16.5t16.5 -38.5v-955q0 -23 -16.5 -39t-39.5 -16h-286v-170q0 -23 -16.5 -39t-39.5 -16h-155q-23 0 -39.5 16t-16.5 39v170h-286q-23 0 -39.5 16.5 t-16.5 38.5z" />
<glyph unicode="&#x490;" horiz-adv-x="1189" d="M160 55v1323q0 23 16.5 39.5t38.5 16.5h662v170q0 23 16 39t39 16h168q23 0 39 -16.5t16 -38.5v-371q0 -23 -16.5 -39t-38.5 -16h-662v-1123q0 -23 -16 -39t-39 -16h-168q-23 0 -39 16.5t-16 38.5z" />
<glyph unicode="&#x491;" horiz-adv-x="1044" d="M141 55v955q0 23 16.5 39t39.5 16h559v170q0 23 16 39t39 16h150q23 0 39 -16.5t16 -38.5v-354q0 -23 -16.5 -39.5t-38.5 -16.5h-560v-770q0 -23 -16 -39t-39 -16h-149q-23 0 -39.5 16.5t-16.5 38.5z" />
<glyph unicode="&#x2000;" horiz-adv-x="932" />
<glyph unicode="&#x2001;" horiz-adv-x="1864" />
<glyph unicode="&#x2002;" horiz-adv-x="932" />
<glyph unicode="&#x2003;" horiz-adv-x="1864" />
<glyph unicode="&#x2004;" horiz-adv-x="621" />
<glyph unicode="&#x2005;" horiz-adv-x="466" />
<glyph unicode="&#x2006;" horiz-adv-x="310" />
<glyph unicode="&#x2007;" horiz-adv-x="310" />
<glyph unicode="&#x2008;" horiz-adv-x="233" />
<glyph unicode="&#x2009;" horiz-adv-x="372" />
<glyph unicode="&#x200a;" horiz-adv-x="103" />
<glyph unicode="&#x2010;" horiz-adv-x="993" d="M129 547v135q0 23 16.5 39t38.5 16h625q23 0 39 -16t16 -39v-135q0 -23 -16.5 -39t-38.5 -16h-625q-23 0 -39 16t-16 39z" />
<glyph unicode="&#x2011;" horiz-adv-x="993" d="M129 547v135q0 23 16.5 39t38.5 16h625q23 0 39 -16t16 -39v-135q0 -23 -16.5 -39t-38.5 -16h-625q-23 0 -39 16t-16 39z" />
<glyph unicode="&#x2012;" horiz-adv-x="993" d="M129 547v135q0 23 16.5 39t38.5 16h625q23 0 39 -16t16 -39v-135q0 -23 -16.5 -39t-38.5 -16h-625q-23 0 -39 16t-16 39z" />
<glyph unicode="&#x2013;" horiz-adv-x="1177" d="M129 547v135q0 23 16.5 39t38.5 16h809q23 0 39.5 -16t16.5 -39v-135q0 -23 -16.5 -39t-39.5 -16h-809q-23 0 -39 16t-16 39z" />
<glyph unicode="&#x2014;" horiz-adv-x="1566" d="M129 547v135q0 23 16.5 39t38.5 16h1198q23 0 39.5 -16t16.5 -39v-135q0 -23 -16.5 -39t-39.5 -16h-1198q-23 0 -39 16t-16 39z" />
<glyph unicode="&#x2018;" horiz-adv-x="530" d="M82 1034q0 8 2 15l135 340q8 20 27.5 42.5t60.5 22.5h92q18 0 31.5 -13.5t13.5 -31.5v-4l-51 -336q-4 -29 -25.5 -54.5t-62.5 -25.5h-178q-18 0 -31.5 13.5t-13.5 31.5z" />
<glyph unicode="&#x2019;" horiz-adv-x="516" d="M98 1034v4l52 336q4 29 25.5 54.5t62.5 25.5h178q18 0 31.5 -13.5t13.5 -31.5q0 -8 -2 -14l-135 -340q-8 -20 -28 -43t-60 -23h-93q-18 0 -31.5 13.5t-13.5 31.5z" />
<glyph unicode="&#x201a;" horiz-adv-x="544" d="M80 -104l51 335q4 29 25.5 54.5t62.5 25.5h178q18 0 31.5 -13t13.5 -32q0 -8 -2 -14l-135 -340q-8 -20 -27.5 -43t-60.5 -23h-92q-18 0 -31.5 13.5t-13.5 31.5v5z" />
<glyph unicode="&#x201c;" horiz-adv-x="937" d="M82 1034q0 8 2 15l135 340q8 20 27.5 42.5t60.5 22.5h92q18 0 31.5 -13.5t13.5 -31.5v-4l-51 -336q-4 -29 -25.5 -54.5t-62.5 -25.5h-178q-18 0 -31.5 13.5t-13.5 31.5zM489 1034q0 8 3 15l135 340q8 20 27.5 42.5t60.5 22.5h92q18 0 31.5 -13.5t13.5 -31.5v-4l-51 -336 q-4 -29 -25.5 -54.5t-62.5 -25.5h-178q-18 0 -32 13.5t-14 31.5z" />
<glyph unicode="&#x201d;" horiz-adv-x="923" d="M98 1034v4l52 336q4 29 25.5 54.5t62.5 25.5h178q18 0 31.5 -13.5t13.5 -31.5q0 -8 -2 -14l-135 -340q-8 -20 -28 -43t-60 -23h-93q-18 0 -31.5 13.5t-13.5 31.5zM506 1034v4l51 336q4 29 25.5 54.5t62.5 25.5h178q18 0 31.5 -13.5t13.5 -31.5q0 -8 -2 -14l-135 -340 q-8 -20 -27.5 -43t-60.5 -23h-92q-18 0 -31.5 13.5t-13.5 31.5z" />
<glyph unicode="&#x201e;" horiz-adv-x="952" d="M80 -104l51 335q4 29 25.5 54.5t62.5 25.5h178q18 0 31.5 -13t13.5 -32q0 -8 -2 -14l-135 -340q-8 -20 -27.5 -43t-60.5 -23h-92q-18 0 -31.5 13.5t-13.5 31.5v5zM487 -104l52 335q4 29 25.5 54.5t62.5 25.5h178q18 0 31.5 -13t13.5 -32q0 -8 -2 -14l-135 -340 q-8 -20 -27.5 -43t-60.5 -23h-93q-18 0 -31.5 13.5t-13.5 31.5v5z" />
<glyph unicode="&#x2020;" horiz-adv-x="958" d="M61 883v135q0 23 16.5 39t39.5 16h229v305q0 23 16.5 39.5t38.5 16.5h156q23 0 39 -16.5t16 -39.5v-305h230q23 0 39 -16.5t16 -38.5v-135q0 -23 -16.5 -39.5t-38.5 -16.5h-230v-772q0 -23 -16 -39t-39 -16h-156q-23 0 -39 16.5t-16 38.5v772h-229q-23 0 -39.5 16.5 t-16.5 39.5z" />
<glyph unicode="&#x2021;" horiz-adv-x="1044" d="M104 385v135q0 23 16.5 39t39.5 16h229v306h-229q-23 0 -39.5 16t-16.5 39v135q0 23 16.5 39t39.5 16h229v252q0 23 16.5 39.5t38.5 16.5h156q23 0 39 -16.5t16 -39.5v-252h230q23 0 39 -16t16 -39v-135q0 -23 -16.5 -39t-38.5 -16h-230v-306h230q23 0 39 -16t16 -39 v-135q0 -23 -16.5 -39t-38.5 -16h-230v-275q0 -23 -16 -39t-39 -16h-156q-23 0 -39 16.5t-16 38.5v275h-229q-23 0 -39.5 16t-16.5 39z" />
<glyph unicode="&#x2022;" horiz-adv-x="786" d="M147 614q0 51 19.5 95.5t53.5 78t78 53t95 19.5t95 -19.5t78 -53t53.5 -77.5t19.5 -96q0 -51 -19.5 -95t-53.5 -77.5t-78 -53t-95 -19.5t-95 19.5t-78 53t-53.5 77.5t-19.5 95z" />
<glyph unicode="&#x2026;" horiz-adv-x="1423" d="M117 55v201q0 23 16.5 39t38.5 16h190q23 0 39.5 -16t16.5 -39v-201q0 -23 -16.5 -39t-39.5 -16h-190q-23 0 -39 16.5t-16 38.5zM561 55v201q0 23 16.5 39t38.5 16h190q23 0 39.5 -16t16.5 -39v-201q0 -23 -16.5 -39t-39.5 -16h-190q-23 0 -39 16.5t-16 38.5zM1006 55 v201q0 23 16.5 39t38.5 16h190q23 0 39.5 -16t16.5 -39v-201q0 -23 -16.5 -39t-39.5 -16h-190q-23 0 -39 16.5t-16 38.5z" />
<glyph unicode="&#x202f;" horiz-adv-x="372" />
<glyph unicode="&#x2030;" horiz-adv-x="2355" d="M82 1074.5q0 60.5 4 113.5q4 47 23.5 93t57.5 82t93 58.5t131 22.5t131.5 -22.5t93 -58.5t57 -82t23.5 -93q4 -53 4 -113.5t-4 -113.5q-4 -47 -23.5 -93.5t-57 -82t-93 -57t-131.5 -21.5t-131 21.5t-93 57t-57.5 81.5t-23.5 94q-4 53 -4 113.5zM193 41q0 4 2 10t6 12 l1011 1332q14 18 29.5 28.5t44.5 10.5h123q23 0 36 -11.5t13 -29.5q0 -4 -2 -10.5t-6 -12.5l-1012 -1331q-14 -18 -29.5 -28.5t-43.5 -10.5h-123q-23 0 -36 11.5t-13 29.5zM279 1075.5q0 -28.5 1 -55.5t3 -39q4 -41 26.5 -69.5t81.5 -28.5t82 28.5t27 69.5q2 12 2 39v55.5 v55t-2 38.5q-4 41 -26.5 70t-82.5 29q-59 0 -81.5 -29t-26.5 -70q-2 -12 -3 -38.5t-1 -55zM969 355.5q0 60.5 4 113.5q4 47 23.5 93t57.5 82t93 58.5t131 22.5t131 -22.5t93 -58.5t57.5 -82t23.5 -93q4 -53 4 -113.5t-4 -113.5q-4 -47 -23.5 -93.5t-57.5 -82t-93 -57 t-131 -21.5t-131 21.5t-93 57t-57.5 82t-23.5 93.5q-4 53 -4 113.5zM1165 356.5q0 -28.5 1 -55.5t3 -39q4 -41 27 -69.5t82 -28.5t81.5 28.5t26.5 69.5q2 12 2.5 39t0.5 55.5v55t-3 39.5q-4 41 -26.5 69.5t-81.5 28.5t-81.5 -28.5t-27.5 -69.5q-2 -12 -3 -39t-1 -55.5z M1669 355.5q0 60.5 4 113.5q4 47 23.5 93t57.5 82t93 58.5t131 22.5t131.5 -22.5t93.5 -58.5t57 -82t24 -93q4 -53 4 -113.5t-4 -113.5q-4 -47 -23.5 -93.5t-57.5 -82t-93.5 -57t-131.5 -21.5t-131 21.5t-93 57t-57.5 82t-23.5 93.5q-4 53 -4 113.5zM1866 356.5 q0 -28.5 1 -55.5t3 -39q4 -41 26.5 -69.5t81.5 -28.5t82 28.5t27 69.5q2 12 2 39v55.5v55t-2 39.5q-4 41 -26.5 69.5t-82.5 28.5q-59 0 -81.5 -28.5t-26.5 -69.5q-2 -12 -3 -39t-1 -55.5z" />
<glyph unicode="&#x2039;" horiz-adv-x="720" d="M88 606v135q0 33 29 58l403 391q10 8 18.5 9t10.5 1q18 0 31.5 -13t13.5 -32v-182q0 -35 -8 -53.5t-29 -38.5l-213 -207l213 -207q20 -20 28.5 -38.5t8.5 -53.5v-182q0 -18 -13.5 -32t-31.5 -14q-2 0 -10.5 1.5t-18.5 9.5l-403 391q-29 25 -29 57z" />
<glyph unicode="&#x203a;" horiz-adv-x="720" d="M127 193v182q0 35 8 53t29 39l213 207l-213 207q-20 20 -28.5 38.5t-8.5 53.5v182q0 18 13.5 31.5t31.5 13.5q2 0 10 -1t19 -9l403 -391q29 -25 29 -58v-135q0 -33 -29 -57l-403 -391q-10 -8 -18.5 -9.5t-10.5 -1.5q-18 0 -31.5 13.5t-13.5 32.5z" />
<glyph unicode="&#x2044;" horiz-adv-x="327" d="M-461 41q0 4 2 10t6 12l1012 1332q14 18 29.5 28.5t44.5 10.5h102q23 0 36 -11.5t13 -29.5q0 -4 -2 -10.5t-6 -12.5l-1012 -1331q-14 -18 -29.5 -28.5t-43.5 -10.5h-103q-23 0 -36 11.5t-13 29.5z" />
<glyph unicode="&#x205f;" horiz-adv-x="466" />
<glyph unicode="&#x20ac;" horiz-adv-x="1562" d="M74 551v74q0 45 45 45h131v61h-131q-45 0 -45 45v74q0 45 45 45h133q4 123 45 225.5t118 176t186.5 115.5t250.5 42q152 0 264.5 -43t188 -108.5t115.5 -145.5t44 -156q2 -25 -15 -40t-40 -15h-166q-25 0 -39 13.5t-20 29.5q-14 37 -35 75t-57.5 67.5t-94 48t-145.5 18.5 q-86 0 -147.5 -23.5t-99.5 -64.5t-56.5 -96.5t-20.5 -118.5h371q45 0 45 -45v-74q0 -45 -45 -45h-373v-61h373q45 0 45 -45v-74q0 -45 -45 -45h-371q2 -47 20.5 -96.5t56.5 -88t99.5 -63.5t147.5 -25q88 0 145.5 18.5t94 48.5t57 68t35.5 74q6 16 20.5 29.5t38.5 13.5h166 q23 0 40 -15t15 -40q-4 -76 -44 -155.5t-115.5 -146.5t-188 -109t-264.5 -42q-141 0 -250.5 43t-186.5 115t-118 168t-45 203h-133q-45 0 -45 45z" />
<glyph unicode="&#x2122;" horiz-adv-x="1320" d="M88 1323v66q0 45 45 45h373q45 0 45 -45v-66q0 -45 -45 -45h-107v-344q0 -45 -45 -45h-69q-45 0 -45 45v344h-107q-45 0 -45 45zM612 934v455q0 45 45 45h70q27 0 40 -13.5t24 -31.5l106 -183l107 183q10 18 23 31.5t40 13.5h70q45 0 45 -45v-455q0 -45 -45 -45h-70 q-45 0 -45 45v209l-43 -82q-10 -16 -20.5 -28.5t-32.5 -12.5h-58q-23 0 -33 12t-20 29l-43 82v-209q0 -45 -45 -45h-70q-45 0 -45 45z" />
<glyph unicode="&#x2202;" horiz-adv-x="1216" d="M90 471q0 125 40 217t109.5 153.5t164 91.5t200.5 30q82 0 156 -19q-57 123 -148.5 216t-208.5 188q-23 16 -28.5 26t-5.5 19q0 41 41 41h217q25 0 41 -7.5t32 -19.5q98 -86 176 -170t132.5 -187.5t82 -237.5t27.5 -320q0 -133 -40 -229.5t-109.5 -159t-163.5 -93 t-201 -30.5q-106 0 -200.5 29.5t-164 91t-109.5 153.5t-40 217zM356 471q0 -102 63.5 -174t184.5 -72t184.5 72t63.5 174t-63.5 174t-184.5 72t-184.5 -72t-63.5 -174z" />
<glyph unicode="&#x2206;" horiz-adv-x="1372" d="M59 55v92q0 29 4.5 39.5t8.5 22.5l446 1075q10 23 30.5 45.5t61.5 22.5h152q41 0 61.5 -22.5t30.5 -45.5l446 -1075q4 -12 8.5 -22.5t4.5 -39.5v-92q0 -23 -16.5 -39t-39.5 -16h-1142q-23 0 -39.5 16.5t-16.5 38.5zM360 246h652l-326 801z" />
<glyph unicode="&#x220f;" horiz-adv-x="1314" d="M143 -354v1732q0 23 16.5 39.5t39.5 16.5h917q23 0 39 -16.5t16 -39.5v-1732q0 -23 -16 -39.5t-39 -16.5h-155q-23 0 -39.5 16.5t-16.5 39.5v1542h-495v-1542q0 -23 -16.5 -39.5t-39.5 -16.5h-155q-23 0 -39.5 16.5t-16.5 39.5z" />
<glyph unicode="&#x2211;" horiz-adv-x="1198" d="M84 -219q0 23 9 38t26 31l663 662l-663 662q-16 16 -25.5 31.5t-9.5 37.5v135q0 23 16.5 39.5t38.5 16.5h889q23 0 39 -16.5t16 -39.5v-135q0 -23 -16 -39t-39 -16h-565l577 -578q16 -16 29.5 -31.5t13.5 -37.5v-58q0 -23 -13 -38t-30 -31l-577 -578h565q23 0 39 -16.5 t16 -38.5v-135q0 -23 -16 -39.5t-39 -16.5h-889q-23 0 -39 16.5t-16 39.5v135z" />
<glyph unicode="&#x221a;" horiz-adv-x="1505" d="M39 1010q0 23 16.5 39t38.5 16h146q31 0 46 -16.5t21 -32.5l234 -686l399 1382q6 16 21.5 32.5t46.5 16.5h407q23 0 39 -16t16 -39v-135q0 -23 -16 -39t-39 -16h-262l-434 -1465q-6 -23 -21.5 -37t-46.5 -14h-211q-31 0 -45 14.5t-22 36.5l-332 944q-2 6 -2 15z" />
<glyph unicode="&#x221e;" horiz-adv-x="1843" d="M102 555q0 88 29 171t84 147.5t137 103.5t189 39q131 0 217 -57.5t164 -167.5q39 55 78.5 97t84.5 70.5t98.5 43t119.5 14.5q106 0 188 -39t137 -103.5t84 -147.5t29 -171t-29 -171t-84 -147.5t-137 -103.5t-188 -39q-66 0 -119.5 14.5t-98.5 43t-84.5 70.5t-78.5 97 q-78 -111 -164 -168t-217 -57q-106 0 -188.5 39t-137.5 103.5t-84 147.5t-29 171zM369 555q0 -61 17 -103t44 -67t56.5 -35t54.5 -10q41 0 71.5 15.5t57 43t52.5 67.5t58 89q-33 49 -58.5 89t-52 67.5t-57 43t-71.5 15.5q-25 0 -54.5 -10t-56.5 -35t-44 -67t-17 -103z M1063 555q33 -49 58.5 -89t52 -67.5t57.5 -43t72 -15.5q25 0 54 10t56 35t44.5 67t17.5 103t-17.5 103t-44.5 67t-56 35t-54 10q-41 0 -72 -15.5t-57.5 -43t-52 -67.5t-58.5 -89z" />
<glyph unicode="&#x222b;" horiz-adv-x="1060" d="M37 -219q0 23 16.5 39t38.5 16h152q92 0 122.5 35t30.5 98v1188q0 98 29 167t82 112t128 61.5t167 18.5h166q23 0 39 -16.5t16 -39.5v-135q0 -23 -16.5 -39t-38.5 -16h-146q-78 0 -118.5 -28t-40.5 -105v-1178q0 -184 -103.5 -276.5t-296.5 -92.5h-172q-23 0 -39 16.5 t-16 39.5v135z" />
<glyph unicode="&#x2248;" horiz-adv-x="1153" d="M137 287v82q0 68 55.5 115.5t159.5 47.5q76 0 128 -13t98.5 -29.5t95.5 -30t121 -13.5q47 0 83.5 19.5t53.5 34.5q8 6 17 11t24 7q29 0 37 -18.5t8 -57.5v-82q0 -68 -60.5 -115.5t-164.5 -47.5q-76 0 -128.5 13t-98.5 29.5t-95 30t-121 13.5q-47 0 -78.5 -19.5 t-48.5 -34.5q-8 -6 -17 -11t-24 -7q-29 0 -37 18.5t-8 57.5zM137 788v82q0 68 55.5 116t159.5 48q76 0 128 -13t98.5 -29.5t95.5 -30t121 -13.5q47 0 83.5 19.5t53.5 33.5q8 6 17 11.5t24 7.5q29 0 37 -18.5t8 -57.5v-82q0 -68 -60.5 -116t-164.5 -48q-76 0 -128.5 13.5 t-98.5 30t-95 29.5t-121 13q-47 0 -78.5 -19.5t-48.5 -33.5q-8 -6 -17 -11t-24 -7q-29 0 -37 18.5t-8 56.5z" />
<glyph unicode="&#x2260;" horiz-adv-x="1128" d="M119 295v135q0 23 16.5 39t38.5 16h197l108 260h-305q-23 0 -39 16.5t-16 39.5v135q0 23 16.5 39t38.5 16h408l57 135q10 23 30.5 42.5t59.5 19.5h152q18 0 31.5 -13.5t13.5 -31.5q0 -8 -4 -19l-58 -133h99q23 0 39 -16.5t16 -38.5v-135q0 -23 -16.5 -39.5t-38.5 -16.5 h-203l-109 -260h312q23 0 39 -16t16 -39v-135q0 -23 -16.5 -39t-38.5 -16h-416l-58 -136q-8 -20 -28.5 -40.5t-61.5 -20.5h-145q-18 0 -31.5 13.5t-13.5 31.5q0 8 4 18l55 134h-94q-23 0 -39 16t-16 39z" />
<glyph unicode="&#x2264;" horiz-adv-x="1095" d="M115 55v135q0 23 16 39.5t39 16.5h731q23 0 39 -16.5t16 -39.5v-135q0 -23 -16 -39t-39 -16h-731q-23 0 -39 16.5t-16 38.5zM115 776v86q0 61 59 86l717 328q14 6 22 6q18 0 30.5 -12.5t12.5 -30.5v-160q0 -31 -18 -55.5t-47 -34.5l-393 -170l393 -170q29 -10 47 -34.5 t18 -55.5v-160q0 -18 -12 -30.5t-31 -12.5q-8 0 -22 6l-717 328q-59 25 -59 86z" />
<glyph unicode="&#x2265;" horiz-adv-x="1095" d="M139 55v135q0 23 16.5 39.5t39.5 16.5h731q23 0 39 -16.5t16 -39.5v-135q0 -23 -16.5 -39t-38.5 -16h-731q-23 0 -39.5 16.5t-16.5 38.5zM139 399v160q0 31 18.5 55.5t47.5 34.5l393 170l-393 170q-29 10 -47.5 35t-18.5 55v160q0 18 12.5 30.5t30.5 12.5q6 0 23 -6 l717 -328q59 -25 59 -86v-86q0 -61 -59 -86l-717 -328q-16 -6 -23 -6q-18 0 -30.5 12.5t-12.5 30.5z" />
<glyph unicode="&#x25ca;" horiz-adv-x="1146" d="M72 727q0 16 5 30.5t11 26.5l320 602q10 23 35.5 45.5t66.5 22.5h127q41 0 66.5 -22.5t35.5 -45.5l320 -602q6 -12 11 -26.5t5 -30.5t-5 -30.5t-11 -26.5l-320 -602q-10 -23 -35.5 -45.5t-66.5 -22.5h-127q-41 0 -66.5 22.5t-35.5 45.5l-320 602q-6 12 -11 26.5t-5 30.5z M346 727l227 -432l228 432l-228 432z" />
<glyph unicode="&#x25fc;" horiz-adv-x="1064" d="M0 0v1065h1065v-1065h-1065z" />
</font>
</defs>
</svg>
